%TF.GenerationSoftware,KiCad,Pcbnew,5.1.12-84ad8e8a86~92~ubuntu20.04.1*%
%TF.CreationDate,2022-06-26T22:57:18-03:00*%
%TF.ProjectId,esp_controller,6573705f-636f-46e7-9472-6f6c6c65722e,rev?*%
%TF.SameCoordinates,Original*%
%TF.FileFunction,Legend,Top*%
%TF.FilePolarity,Positive*%
%FSLAX46Y46*%
G04 Gerber Fmt 4.6, Leading zero omitted, Abs format (unit mm)*
G04 Created by KiCad (PCBNEW 5.1.12-84ad8e8a86~92~ubuntu20.04.1) date 2022-06-26 22:57:18*
%MOMM*%
%LPD*%
G01*
G04 APERTURE LIST*
%ADD10C,0.120000*%
%ADD11C,0.150000*%
%ADD12C,0.100000*%
%ADD13C,0.200000*%
G04 APERTURE END LIST*
D10*
X100139500Y-112364520D02*
X98049080Y-112364520D01*
X98049080Y-101986080D02*
X100139500Y-101986080D01*
X100139500Y-101986080D02*
X100139500Y-112364520D01*
X100136960Y-107175300D02*
X98064320Y-107175300D01*
X100136960Y-93174820D02*
X98064320Y-93174820D01*
X100139500Y-98364040D02*
X98049080Y-98364040D01*
X100139500Y-87985600D02*
X100139500Y-98364040D01*
X98049080Y-87985600D02*
X100139500Y-87985600D01*
D11*
X140129260Y-108747560D02*
X140129260Y-111602520D01*
D12*
X137540297Y-112188074D02*
X137723630Y-112188074D01*
X137802201Y-112476169D02*
X137540297Y-112476169D01*
X137540297Y-111926169D01*
X137802201Y-111926169D01*
X138037916Y-112476169D02*
X138037916Y-111926169D01*
X138352201Y-112476169D01*
X138352201Y-111926169D01*
X138535535Y-111926169D02*
X138849820Y-111926169D01*
X138692678Y-112476169D02*
X138692678Y-111926169D01*
X139347440Y-112476169D02*
X139164106Y-112214264D01*
X139033154Y-112476169D02*
X139033154Y-111926169D01*
X139242678Y-111926169D01*
X139295059Y-111952360D01*
X139321249Y-111978550D01*
X139347440Y-112030931D01*
X139347440Y-112109502D01*
X139321249Y-112161883D01*
X139295059Y-112188074D01*
X139242678Y-112214264D01*
X139033154Y-112214264D01*
X139556963Y-112319026D02*
X139818868Y-112319026D01*
X139504582Y-112476169D02*
X139687916Y-111926169D01*
X139871249Y-112476169D01*
X140054582Y-112476169D02*
X140054582Y-111926169D01*
X140185535Y-111926169D01*
X140264106Y-111952360D01*
X140316487Y-112004740D01*
X140342678Y-112057121D01*
X140368868Y-112161883D01*
X140368868Y-112240455D01*
X140342678Y-112345217D01*
X140316487Y-112397598D01*
X140264106Y-112449979D01*
X140185535Y-112476169D01*
X140054582Y-112476169D01*
X140578392Y-112319026D02*
X140840297Y-112319026D01*
X140526011Y-112476169D02*
X140709344Y-111926169D01*
X140892678Y-112476169D01*
X141468868Y-112319026D02*
X141730773Y-112319026D01*
X141416487Y-112476169D02*
X141599820Y-111926169D01*
X141783154Y-112476169D01*
X141966487Y-112476169D02*
X141966487Y-111926169D01*
X142097440Y-111926169D01*
X142176011Y-111952360D01*
X142228392Y-112004740D01*
X142254582Y-112057121D01*
X142280773Y-112161883D01*
X142280773Y-112240455D01*
X142254582Y-112345217D01*
X142228392Y-112397598D01*
X142176011Y-112449979D01*
X142097440Y-112476169D01*
X141966487Y-112476169D01*
X142830773Y-112423788D02*
X142804582Y-112449979D01*
X142726011Y-112476169D01*
X142673630Y-112476169D01*
X142595059Y-112449979D01*
X142542678Y-112397598D01*
X142516487Y-112345217D01*
X142490297Y-112240455D01*
X142490297Y-112161883D01*
X142516487Y-112057121D01*
X142542678Y-112004740D01*
X142595059Y-111952360D01*
X142673630Y-111926169D01*
X142726011Y-111926169D01*
X142804582Y-111952360D01*
X142830773Y-111978550D01*
D11*
X137248900Y-111602520D02*
X143040100Y-111602520D01*
X143047720Y-112844580D02*
X143047720Y-108717080D01*
X137246360Y-112844580D02*
X143047720Y-112844580D01*
X137246360Y-108717080D02*
X137246360Y-112844580D01*
X137246360Y-108717080D02*
X143047720Y-108717080D01*
X171960476Y-120361428D02*
X172722380Y-120361428D01*
X172341428Y-120742380D02*
X172341428Y-119980476D01*
X180817619Y-120361428D02*
X181579523Y-120361428D01*
X174850000Y-115542380D02*
X174373809Y-115542380D01*
X174326190Y-116018571D01*
X174373809Y-115970952D01*
X174469047Y-115923333D01*
X174707142Y-115923333D01*
X174802380Y-115970952D01*
X174850000Y-116018571D01*
X174897619Y-116113809D01*
X174897619Y-116351904D01*
X174850000Y-116447142D01*
X174802380Y-116494761D01*
X174707142Y-116542380D01*
X174469047Y-116542380D01*
X174373809Y-116494761D01*
X174326190Y-116447142D01*
X175183333Y-115542380D02*
X175516666Y-116542380D01*
X175850000Y-115542380D01*
X177135714Y-115542380D02*
X177326190Y-115542380D01*
X177421428Y-115590000D01*
X177516666Y-115685238D01*
X177564285Y-115875714D01*
X177564285Y-116209047D01*
X177516666Y-116399523D01*
X177421428Y-116494761D01*
X177326190Y-116542380D01*
X177135714Y-116542380D01*
X177040476Y-116494761D01*
X176945238Y-116399523D01*
X176897619Y-116209047D01*
X176897619Y-115875714D01*
X176945238Y-115685238D01*
X177040476Y-115590000D01*
X177135714Y-115542380D01*
X177992857Y-115542380D02*
X177992857Y-116351904D01*
X178040476Y-116447142D01*
X178088095Y-116494761D01*
X178183333Y-116542380D01*
X178373809Y-116542380D01*
X178469047Y-116494761D01*
X178516666Y-116447142D01*
X178564285Y-116351904D01*
X178564285Y-115542380D01*
X178897619Y-115542380D02*
X179469047Y-115542380D01*
X179183333Y-116542380D02*
X179183333Y-115542380D01*
X110666233Y-64261180D02*
X110332900Y-63784990D01*
X110094804Y-64261180D02*
X110094804Y-63261180D01*
X110475757Y-63261180D01*
X110570995Y-63308800D01*
X110618614Y-63356419D01*
X110666233Y-63451657D01*
X110666233Y-63594514D01*
X110618614Y-63689752D01*
X110570995Y-63737371D01*
X110475757Y-63784990D01*
X110094804Y-63784990D01*
X110999566Y-63261180D02*
X111666233Y-64261180D01*
X111666233Y-63261180D02*
X110999566Y-64261180D01*
X105356755Y-63256100D02*
X105928183Y-63256100D01*
X105642469Y-64256100D02*
X105642469Y-63256100D01*
X106166279Y-63256100D02*
X106832945Y-64256100D01*
X106832945Y-63256100D02*
X106166279Y-64256100D01*
X99872349Y-63256100D02*
X100491397Y-63256100D01*
X100158063Y-63637053D01*
X100300920Y-63637053D01*
X100396159Y-63684672D01*
X100443778Y-63732291D01*
X100491397Y-63827529D01*
X100491397Y-64065624D01*
X100443778Y-64160862D01*
X100396159Y-64208481D01*
X100300920Y-64256100D01*
X100015206Y-64256100D01*
X99919968Y-64208481D01*
X99872349Y-64160862D01*
X100919968Y-64160862D02*
X100967587Y-64208481D01*
X100919968Y-64256100D01*
X100872349Y-64208481D01*
X100919968Y-64160862D01*
X100919968Y-64256100D01*
X101300920Y-63256100D02*
X101919968Y-63256100D01*
X101586635Y-63637053D01*
X101729492Y-63637053D01*
X101824730Y-63684672D01*
X101872349Y-63732291D01*
X101919968Y-63827529D01*
X101919968Y-64065624D01*
X101872349Y-64160862D01*
X101824730Y-64208481D01*
X101729492Y-64256100D01*
X101443778Y-64256100D01*
X101348540Y-64208481D01*
X101300920Y-64160862D01*
X102205682Y-63256100D02*
X102539016Y-64256100D01*
X102872349Y-63256100D01*
X125325126Y-93590806D02*
X124991793Y-93590806D01*
X124991793Y-92890806D01*
X125558460Y-93224140D02*
X125791793Y-93224140D01*
X125891793Y-93590806D02*
X125558460Y-93590806D01*
X125558460Y-92890806D01*
X125891793Y-92890806D01*
X126191793Y-93590806D02*
X126191793Y-92890806D01*
X126358460Y-92890806D01*
X126458460Y-92924140D01*
X126525126Y-92990806D01*
X126558460Y-93057473D01*
X126591793Y-93190806D01*
X126591793Y-93290806D01*
X126558460Y-93424140D01*
X126525126Y-93490806D01*
X126458460Y-93557473D01*
X126358460Y-93590806D01*
X126191793Y-93590806D01*
X127258460Y-93590806D02*
X126858460Y-93590806D01*
X127058460Y-93590806D02*
X127058460Y-92890806D01*
X126991793Y-92990806D01*
X126925126Y-93057473D01*
X126858460Y-93090806D01*
X121794526Y-93590806D02*
X121461193Y-93590806D01*
X121461193Y-92890806D01*
X122027860Y-93224140D02*
X122261193Y-93224140D01*
X122361193Y-93590806D02*
X122027860Y-93590806D01*
X122027860Y-92890806D01*
X122361193Y-92890806D01*
X122661193Y-93590806D02*
X122661193Y-92890806D01*
X122827860Y-92890806D01*
X122927860Y-92924140D01*
X122994526Y-92990806D01*
X123027860Y-93057473D01*
X123061193Y-93190806D01*
X123061193Y-93290806D01*
X123027860Y-93424140D01*
X122994526Y-93490806D01*
X122927860Y-93557473D01*
X122827860Y-93590806D01*
X122661193Y-93590806D01*
X123327860Y-92957473D02*
X123361193Y-92924140D01*
X123427860Y-92890806D01*
X123594526Y-92890806D01*
X123661193Y-92924140D01*
X123694526Y-92957473D01*
X123727860Y-93024140D01*
X123727860Y-93090806D01*
X123694526Y-93190806D01*
X123294526Y-93590806D01*
X123727860Y-93590806D01*
X118291866Y-93590806D02*
X117958533Y-93590806D01*
X117958533Y-92890806D01*
X118525200Y-93224140D02*
X118758533Y-93224140D01*
X118858533Y-93590806D02*
X118525200Y-93590806D01*
X118525200Y-92890806D01*
X118858533Y-92890806D01*
X119158533Y-93590806D02*
X119158533Y-92890806D01*
X119325200Y-92890806D01*
X119425200Y-92924140D01*
X119491866Y-92990806D01*
X119525200Y-93057473D01*
X119558533Y-93190806D01*
X119558533Y-93290806D01*
X119525200Y-93424140D01*
X119491866Y-93490806D01*
X119425200Y-93557473D01*
X119325200Y-93590806D01*
X119158533Y-93590806D01*
X119791866Y-92890806D02*
X120225200Y-92890806D01*
X119991866Y-93157473D01*
X120091866Y-93157473D01*
X120158533Y-93190806D01*
X120191866Y-93224140D01*
X120225200Y-93290806D01*
X120225200Y-93457473D01*
X120191866Y-93524140D01*
X120158533Y-93557473D01*
X120091866Y-93590806D01*
X119891866Y-93590806D01*
X119825200Y-93557473D01*
X119791866Y-93524140D01*
X114740946Y-93585726D02*
X114407613Y-93585726D01*
X114407613Y-92885726D01*
X114974280Y-93219060D02*
X115207613Y-93219060D01*
X115307613Y-93585726D02*
X114974280Y-93585726D01*
X114974280Y-92885726D01*
X115307613Y-92885726D01*
X115607613Y-93585726D02*
X115607613Y-92885726D01*
X115774280Y-92885726D01*
X115874280Y-92919060D01*
X115940946Y-92985726D01*
X115974280Y-93052393D01*
X116007613Y-93185726D01*
X116007613Y-93285726D01*
X115974280Y-93419060D01*
X115940946Y-93485726D01*
X115874280Y-93552393D01*
X115774280Y-93585726D01*
X115607613Y-93585726D01*
X116607613Y-93119060D02*
X116607613Y-93585726D01*
X116440946Y-92852393D02*
X116274280Y-93352393D01*
X116707613Y-93352393D01*
X143948923Y-114145368D02*
X144710828Y-114145368D01*
X144329876Y-114526320D02*
X144329876Y-113764416D01*
X145520352Y-114002511D02*
X145663209Y-114050130D01*
X145710828Y-114097749D01*
X145758447Y-114192987D01*
X145758447Y-114335844D01*
X145710828Y-114431082D01*
X145663209Y-114478701D01*
X145567971Y-114526320D01*
X145187019Y-114526320D01*
X145187019Y-113526320D01*
X145520352Y-113526320D01*
X145615590Y-113573940D01*
X145663209Y-113621559D01*
X145710828Y-113716797D01*
X145710828Y-113812035D01*
X145663209Y-113907273D01*
X145615590Y-113954892D01*
X145520352Y-114002511D01*
X145187019Y-114002511D01*
X146139400Y-114240606D02*
X146615590Y-114240606D01*
X146044161Y-114526320D02*
X146377495Y-113526320D01*
X146710828Y-114526320D01*
X146901304Y-113526320D02*
X147472733Y-113526320D01*
X147187019Y-114526320D02*
X147187019Y-113526320D01*
X147758447Y-113621559D02*
X147806066Y-113573940D01*
X147901304Y-113526320D01*
X148139400Y-113526320D01*
X148234638Y-113573940D01*
X148282257Y-113621559D01*
X148329876Y-113716797D01*
X148329876Y-113812035D01*
X148282257Y-113954892D01*
X147710828Y-114526320D01*
X148329876Y-114526320D01*
X148758447Y-114145368D02*
X149520352Y-114145368D01*
X150758447Y-114145368D02*
X151520352Y-114145368D01*
X151139400Y-114526320D02*
X151139400Y-113764416D01*
X152329876Y-114002511D02*
X152472733Y-114050130D01*
X152520352Y-114097749D01*
X152567971Y-114192987D01*
X152567971Y-114335844D01*
X152520352Y-114431082D01*
X152472733Y-114478701D01*
X152377495Y-114526320D01*
X151996542Y-114526320D01*
X151996542Y-113526320D01*
X152329876Y-113526320D01*
X152425114Y-113573940D01*
X152472733Y-113621559D01*
X152520352Y-113716797D01*
X152520352Y-113812035D01*
X152472733Y-113907273D01*
X152425114Y-113954892D01*
X152329876Y-114002511D01*
X151996542Y-114002511D01*
X152948923Y-114240606D02*
X153425114Y-114240606D01*
X152853685Y-114526320D02*
X153187019Y-113526320D01*
X153520352Y-114526320D01*
X153710828Y-113526320D02*
X154282257Y-113526320D01*
X153996542Y-114526320D02*
X153996542Y-113526320D01*
X155139400Y-114526320D02*
X154567971Y-114526320D01*
X154853685Y-114526320D02*
X154853685Y-113526320D01*
X154758447Y-113669178D01*
X154663209Y-113764416D01*
X154567971Y-113812035D01*
X155567971Y-114145368D02*
X156329876Y-114145368D01*
X179191611Y-72804659D02*
X179191611Y-72471325D01*
X179715420Y-72328468D02*
X179715420Y-72804659D01*
X178715420Y-72804659D01*
X178715420Y-72328468D01*
X179715420Y-71899897D02*
X178715420Y-71899897D01*
X179715420Y-71328468D01*
X178715420Y-71328468D01*
X179620182Y-70280849D02*
X179667801Y-70328468D01*
X179715420Y-70471325D01*
X179715420Y-70566563D01*
X179667801Y-70709420D01*
X179572563Y-70804659D01*
X179477325Y-70852278D01*
X179286849Y-70899897D01*
X179143992Y-70899897D01*
X178953516Y-70852278D01*
X178858278Y-70804659D01*
X178763040Y-70709420D01*
X178715420Y-70566563D01*
X178715420Y-70471325D01*
X178763040Y-70328468D01*
X178810659Y-70280849D01*
X178715420Y-69661801D02*
X178715420Y-69471325D01*
X178763040Y-69376087D01*
X178858278Y-69280849D01*
X179048754Y-69233230D01*
X179382087Y-69233230D01*
X179572563Y-69280849D01*
X179667801Y-69376087D01*
X179715420Y-69471325D01*
X179715420Y-69661801D01*
X179667801Y-69757040D01*
X179572563Y-69852278D01*
X179382087Y-69899897D01*
X179048754Y-69899897D01*
X178858278Y-69852278D01*
X178763040Y-69757040D01*
X178715420Y-69661801D01*
X179715420Y-68804659D02*
X178715420Y-68804659D01*
X178715420Y-68566563D01*
X178763040Y-68423706D01*
X178858278Y-68328468D01*
X178953516Y-68280849D01*
X179143992Y-68233230D01*
X179286849Y-68233230D01*
X179477325Y-68280849D01*
X179572563Y-68328468D01*
X179667801Y-68423706D01*
X179715420Y-68566563D01*
X179715420Y-68804659D01*
X179191611Y-67804659D02*
X179191611Y-67471325D01*
X179715420Y-67328468D02*
X179715420Y-67804659D01*
X178715420Y-67804659D01*
X178715420Y-67328468D01*
X179715420Y-66328468D02*
X179239230Y-66661801D01*
X179715420Y-66899897D02*
X178715420Y-66899897D01*
X178715420Y-66518944D01*
X178763040Y-66423706D01*
X178810659Y-66376087D01*
X178905897Y-66328468D01*
X179048754Y-66328468D01*
X179143992Y-66376087D01*
X179191611Y-66423706D01*
X179239230Y-66518944D01*
X179239230Y-66899897D01*
X179715420Y-65137992D02*
X178715420Y-65137992D01*
X178715420Y-64899897D01*
X178763040Y-64757040D01*
X178858278Y-64661801D01*
X178953516Y-64614182D01*
X179143992Y-64566563D01*
X179286849Y-64566563D01*
X179477325Y-64614182D01*
X179572563Y-64661801D01*
X179667801Y-64757040D01*
X179715420Y-64899897D01*
X179715420Y-65137992D01*
X179191611Y-64137992D02*
X179191611Y-63804659D01*
X179715420Y-63661801D02*
X179715420Y-64137992D01*
X178715420Y-64137992D01*
X178715420Y-63661801D01*
X179715420Y-62661801D02*
X179239230Y-62995135D01*
X179715420Y-63233230D02*
X178715420Y-63233230D01*
X178715420Y-62852278D01*
X178763040Y-62757040D01*
X178810659Y-62709420D01*
X178905897Y-62661801D01*
X179048754Y-62661801D01*
X179143992Y-62709420D01*
X179191611Y-62757040D01*
X179239230Y-62852278D01*
X179239230Y-63233230D01*
X179181451Y-88587293D02*
X179181451Y-88253960D01*
X179705260Y-88111102D02*
X179705260Y-88587293D01*
X178705260Y-88587293D01*
X178705260Y-88111102D01*
X179705260Y-87682531D02*
X178705260Y-87682531D01*
X179705260Y-87111102D01*
X178705260Y-87111102D01*
X179610022Y-86063483D02*
X179657641Y-86111102D01*
X179705260Y-86253960D01*
X179705260Y-86349198D01*
X179657641Y-86492055D01*
X179562403Y-86587293D01*
X179467165Y-86634912D01*
X179276689Y-86682531D01*
X179133832Y-86682531D01*
X178943356Y-86634912D01*
X178848118Y-86587293D01*
X178752880Y-86492055D01*
X178705260Y-86349198D01*
X178705260Y-86253960D01*
X178752880Y-86111102D01*
X178800499Y-86063483D01*
X178705260Y-85444436D02*
X178705260Y-85253960D01*
X178752880Y-85158721D01*
X178848118Y-85063483D01*
X179038594Y-85015864D01*
X179371927Y-85015864D01*
X179562403Y-85063483D01*
X179657641Y-85158721D01*
X179705260Y-85253960D01*
X179705260Y-85444436D01*
X179657641Y-85539674D01*
X179562403Y-85634912D01*
X179371927Y-85682531D01*
X179038594Y-85682531D01*
X178848118Y-85634912D01*
X178752880Y-85539674D01*
X178705260Y-85444436D01*
X179705260Y-84587293D02*
X178705260Y-84587293D01*
X178705260Y-84349198D01*
X178752880Y-84206340D01*
X178848118Y-84111102D01*
X178943356Y-84063483D01*
X179133832Y-84015864D01*
X179276689Y-84015864D01*
X179467165Y-84063483D01*
X179562403Y-84111102D01*
X179657641Y-84206340D01*
X179705260Y-84349198D01*
X179705260Y-84587293D01*
X179181451Y-83587293D02*
X179181451Y-83253960D01*
X179705260Y-83111102D02*
X179705260Y-83587293D01*
X178705260Y-83587293D01*
X178705260Y-83111102D01*
X179705260Y-82111102D02*
X179229070Y-82444436D01*
X179705260Y-82682531D02*
X178705260Y-82682531D01*
X178705260Y-82301579D01*
X178752880Y-82206340D01*
X178800499Y-82158721D01*
X178895737Y-82111102D01*
X179038594Y-82111102D01*
X179133832Y-82158721D01*
X179181451Y-82206340D01*
X179229070Y-82301579D01*
X179229070Y-82682531D01*
X179705260Y-80920626D02*
X178705260Y-80920626D01*
X178705260Y-80539674D02*
X178705260Y-79873007D01*
X179705260Y-80539674D01*
X179705260Y-79873007D01*
X179800499Y-78825388D02*
X179752880Y-78920626D01*
X179657641Y-79015864D01*
X179514784Y-79158721D01*
X179467165Y-79253960D01*
X179467165Y-79349198D01*
X179705260Y-79301579D02*
X179657641Y-79396817D01*
X179562403Y-79492055D01*
X179371927Y-79539674D01*
X179038594Y-79539674D01*
X178848118Y-79492055D01*
X178752880Y-79396817D01*
X178705260Y-79301579D01*
X178705260Y-79111102D01*
X178752880Y-79015864D01*
X178848118Y-78920626D01*
X179038594Y-78873007D01*
X179371927Y-78873007D01*
X179562403Y-78920626D01*
X179657641Y-79015864D01*
X179705260Y-79111102D01*
X179705260Y-79301579D01*
X138393657Y-50804771D02*
X138536514Y-50852390D01*
X138584133Y-50900009D01*
X138631752Y-50995247D01*
X138631752Y-51138104D01*
X138584133Y-51233342D01*
X138536514Y-51280961D01*
X138441276Y-51328580D01*
X138060323Y-51328580D01*
X138060323Y-50328580D01*
X138393657Y-50328580D01*
X138488895Y-50376200D01*
X138536514Y-50423819D01*
X138584133Y-50519057D01*
X138584133Y-50614295D01*
X138536514Y-50709533D01*
X138488895Y-50757152D01*
X138393657Y-50804771D01*
X138060323Y-50804771D01*
X139250800Y-50328580D02*
X139441276Y-50328580D01*
X139536514Y-50376200D01*
X139631752Y-50471438D01*
X139679371Y-50661914D01*
X139679371Y-50995247D01*
X139631752Y-51185723D01*
X139536514Y-51280961D01*
X139441276Y-51328580D01*
X139250800Y-51328580D01*
X139155561Y-51280961D01*
X139060323Y-51185723D01*
X139012704Y-50995247D01*
X139012704Y-50661914D01*
X139060323Y-50471438D01*
X139155561Y-50376200D01*
X139250800Y-50328580D01*
X140298419Y-50328580D02*
X140488895Y-50328580D01*
X140584133Y-50376200D01*
X140679371Y-50471438D01*
X140726990Y-50661914D01*
X140726990Y-50995247D01*
X140679371Y-51185723D01*
X140584133Y-51280961D01*
X140488895Y-51328580D01*
X140298419Y-51328580D01*
X140203180Y-51280961D01*
X140107942Y-51185723D01*
X140060323Y-50995247D01*
X140060323Y-50661914D01*
X140107942Y-50471438D01*
X140203180Y-50376200D01*
X140298419Y-50328580D01*
X141012704Y-50328580D02*
X141584133Y-50328580D01*
X141298419Y-51328580D02*
X141298419Y-50328580D01*
X148778459Y-51333660D02*
X148445125Y-50857470D01*
X148207030Y-51333660D02*
X148207030Y-50333660D01*
X148587982Y-50333660D01*
X148683220Y-50381280D01*
X148730840Y-50428899D01*
X148778459Y-50524137D01*
X148778459Y-50666994D01*
X148730840Y-50762232D01*
X148683220Y-50809851D01*
X148587982Y-50857470D01*
X148207030Y-50857470D01*
X149207030Y-50809851D02*
X149540363Y-50809851D01*
X149683220Y-51333660D02*
X149207030Y-51333660D01*
X149207030Y-50333660D01*
X149683220Y-50333660D01*
X150064173Y-51286041D02*
X150207030Y-51333660D01*
X150445125Y-51333660D01*
X150540363Y-51286041D01*
X150587982Y-51238422D01*
X150635601Y-51143184D01*
X150635601Y-51047946D01*
X150587982Y-50952708D01*
X150540363Y-50905089D01*
X150445125Y-50857470D01*
X150254649Y-50809851D01*
X150159411Y-50762232D01*
X150111792Y-50714613D01*
X150064173Y-50619375D01*
X150064173Y-50524137D01*
X150111792Y-50428899D01*
X150159411Y-50381280D01*
X150254649Y-50333660D01*
X150492744Y-50333660D01*
X150635601Y-50381280D01*
X151064173Y-50809851D02*
X151397506Y-50809851D01*
X151540363Y-51333660D02*
X151064173Y-51333660D01*
X151064173Y-50333660D01*
X151540363Y-50333660D01*
X151826078Y-50333660D02*
X152397506Y-50333660D01*
X152111792Y-51333660D02*
X152111792Y-50333660D01*
X171953580Y-57978873D02*
X171986913Y-57945540D01*
X172053580Y-57912206D01*
X172220246Y-57912206D01*
X172286913Y-57945540D01*
X172320246Y-57978873D01*
X172353580Y-58045540D01*
X172353580Y-58112206D01*
X172320246Y-58212206D01*
X171920246Y-58612206D01*
X172353580Y-58612206D01*
X161845006Y-58614746D02*
X161445006Y-58614746D01*
X161645006Y-58614746D02*
X161645006Y-57914746D01*
X161578340Y-58014746D01*
X161511673Y-58081413D01*
X161445006Y-58114746D01*
X162278340Y-57914746D02*
X162345006Y-57914746D01*
X162411673Y-57948080D01*
X162445006Y-57981413D01*
X162478340Y-58048080D01*
X162511673Y-58181413D01*
X162511673Y-58348080D01*
X162478340Y-58481413D01*
X162445006Y-58548080D01*
X162411673Y-58581413D01*
X162345006Y-58614746D01*
X162278340Y-58614746D01*
X162211673Y-58581413D01*
X162178340Y-58548080D01*
X162145006Y-58481413D01*
X162111673Y-58348080D01*
X162111673Y-58181413D01*
X162145006Y-58048080D01*
X162178340Y-57981413D01*
X162211673Y-57948080D01*
X162278340Y-57914746D01*
X161845006Y-51538306D02*
X161978340Y-51538306D01*
X162045006Y-51504973D01*
X162078340Y-51471640D01*
X162145006Y-51371640D01*
X162178340Y-51238306D01*
X162178340Y-50971640D01*
X162145006Y-50904973D01*
X162111673Y-50871640D01*
X162045006Y-50838306D01*
X161911673Y-50838306D01*
X161845006Y-50871640D01*
X161811673Y-50904973D01*
X161778340Y-50971640D01*
X161778340Y-51138306D01*
X161811673Y-51204973D01*
X161845006Y-51238306D01*
X161911673Y-51271640D01*
X162045006Y-51271640D01*
X162111673Y-51238306D01*
X162145006Y-51204973D01*
X162178340Y-51138306D01*
X172384060Y-51538306D02*
X171984060Y-51538306D01*
X172184060Y-51538306D02*
X172184060Y-50838306D01*
X172117393Y-50938306D01*
X172050726Y-51004973D01*
X171984060Y-51038306D01*
X165025011Y-51547020D02*
X165025011Y-50547020D01*
X165405963Y-50547020D01*
X165501201Y-50594640D01*
X165548820Y-50642259D01*
X165596440Y-50737497D01*
X165596440Y-50880354D01*
X165548820Y-50975592D01*
X165501201Y-51023211D01*
X165405963Y-51070830D01*
X165025011Y-51070830D01*
X165977392Y-51261306D02*
X166453582Y-51261306D01*
X165882154Y-51547020D02*
X166215487Y-50547020D01*
X166548820Y-51547020D01*
X166882154Y-51547020D02*
X166882154Y-50547020D01*
X167453582Y-51547020D01*
X167453582Y-50547020D01*
X167929773Y-51023211D02*
X168263106Y-51023211D01*
X168405963Y-51547020D02*
X167929773Y-51547020D01*
X167929773Y-50547020D01*
X168405963Y-50547020D01*
X169310725Y-51547020D02*
X168834535Y-51547020D01*
X168834535Y-50547020D01*
X112221446Y-93681533D02*
X112221446Y-94081533D01*
X112221446Y-93881533D02*
X111521446Y-93881533D01*
X111621446Y-93948200D01*
X111688113Y-94014866D01*
X111721446Y-94081533D01*
X111521446Y-93248200D02*
X111521446Y-93181533D01*
X111554780Y-93114866D01*
X111588113Y-93081533D01*
X111654780Y-93048200D01*
X111788113Y-93014866D01*
X111954780Y-93014866D01*
X112088113Y-93048200D01*
X112154780Y-93081533D01*
X112188113Y-93114866D01*
X112221446Y-93181533D01*
X112221446Y-93248200D01*
X112188113Y-93314866D01*
X112154780Y-93348200D01*
X112088113Y-93381533D01*
X111954780Y-93414866D01*
X111788113Y-93414866D01*
X111654780Y-93381533D01*
X111588113Y-93348200D01*
X111554780Y-93314866D01*
X111521446Y-93248200D01*
X111583033Y-88685980D02*
X111549700Y-88652646D01*
X111516366Y-88585980D01*
X111516366Y-88419313D01*
X111549700Y-88352646D01*
X111583033Y-88319313D01*
X111649700Y-88285980D01*
X111716366Y-88285980D01*
X111816366Y-88319313D01*
X112216366Y-88719313D01*
X112216366Y-88285980D01*
X104469366Y-93651053D02*
X104469366Y-93517720D01*
X104436033Y-93451053D01*
X104402700Y-93417720D01*
X104302700Y-93351053D01*
X104169366Y-93317720D01*
X103902700Y-93317720D01*
X103836033Y-93351053D01*
X103802700Y-93384386D01*
X103769366Y-93451053D01*
X103769366Y-93584386D01*
X103802700Y-93651053D01*
X103836033Y-93684386D01*
X103902700Y-93717720D01*
X104069366Y-93717720D01*
X104136033Y-93684386D01*
X104169366Y-93651053D01*
X104202700Y-93584386D01*
X104202700Y-93451053D01*
X104169366Y-93384386D01*
X104136033Y-93351053D01*
X104069366Y-93317720D01*
X104464286Y-88255500D02*
X104464286Y-88655500D01*
X104464286Y-88455500D02*
X103764286Y-88455500D01*
X103864286Y-88522166D01*
X103930953Y-88588833D01*
X103964286Y-88655500D01*
X106846833Y-86122260D02*
X106846833Y-86836546D01*
X106799214Y-86979403D01*
X106703976Y-87074641D01*
X106561119Y-87122260D01*
X106465880Y-87122260D01*
X107180166Y-86122260D02*
X107751595Y-86122260D01*
X107465880Y-87122260D02*
X107465880Y-86122260D01*
X108037309Y-86836546D02*
X108513500Y-86836546D01*
X107942071Y-87122260D02*
X108275404Y-86122260D01*
X108608738Y-87122260D01*
X109465880Y-86169880D02*
X109370642Y-86122260D01*
X109227785Y-86122260D01*
X109084928Y-86169880D01*
X108989690Y-86265118D01*
X108942071Y-86360356D01*
X108894452Y-86550832D01*
X108894452Y-86693689D01*
X108942071Y-86884165D01*
X108989690Y-86979403D01*
X109084928Y-87074641D01*
X109227785Y-87122260D01*
X109323023Y-87122260D01*
X109465880Y-87074641D01*
X109513500Y-87027022D01*
X109513500Y-86693689D01*
X109323023Y-86693689D01*
X116771895Y-63104780D02*
X116771895Y-63914304D01*
X116819514Y-64009542D01*
X116867133Y-64057161D01*
X116962371Y-64104780D01*
X117152847Y-64104780D01*
X117248085Y-64057161D01*
X117295704Y-64009542D01*
X117343323Y-63914304D01*
X117343323Y-63104780D01*
X117771895Y-64057161D02*
X117914752Y-64104780D01*
X118152847Y-64104780D01*
X118248085Y-64057161D01*
X118295704Y-64009542D01*
X118343323Y-63914304D01*
X118343323Y-63819066D01*
X118295704Y-63723828D01*
X118248085Y-63676209D01*
X118152847Y-63628590D01*
X117962371Y-63580971D01*
X117867133Y-63533352D01*
X117819514Y-63485733D01*
X117771895Y-63390495D01*
X117771895Y-63295257D01*
X117819514Y-63200019D01*
X117867133Y-63152400D01*
X117962371Y-63104780D01*
X118200466Y-63104780D01*
X118343323Y-63152400D01*
X119105228Y-63580971D02*
X119248085Y-63628590D01*
X119295704Y-63676209D01*
X119343323Y-63771447D01*
X119343323Y-63914304D01*
X119295704Y-64009542D01*
X119248085Y-64057161D01*
X119152847Y-64104780D01*
X118771895Y-64104780D01*
X118771895Y-63104780D01*
X119105228Y-63104780D01*
X119200466Y-63152400D01*
X119248085Y-63200019D01*
X119295704Y-63295257D01*
X119295704Y-63390495D01*
X119248085Y-63485733D01*
X119200466Y-63533352D01*
X119105228Y-63580971D01*
X118771895Y-63580971D01*
X91729820Y-111345171D02*
X91729820Y-111821361D01*
X90729820Y-111821361D01*
X91729820Y-110535647D02*
X91729820Y-111011838D01*
X90729820Y-111011838D01*
X91444106Y-110249933D02*
X91444106Y-109773742D01*
X91729820Y-110345171D02*
X90729820Y-110011838D01*
X91729820Y-109678504D01*
X90729820Y-109488028D02*
X91729820Y-109154695D01*
X90729820Y-108821361D01*
X91206011Y-108488028D02*
X91206011Y-108154695D01*
X91729820Y-108011838D02*
X91729820Y-108488028D01*
X90729820Y-108488028D01*
X90729820Y-108011838D01*
X91729820Y-106821361D02*
X90729820Y-106821361D01*
X91206011Y-106821361D02*
X91206011Y-106249933D01*
X91729820Y-106249933D02*
X90729820Y-106249933D01*
X91729820Y-105011838D02*
X90729820Y-105011838D01*
X90729820Y-104630885D02*
X90729820Y-103964219D01*
X91729820Y-104630885D01*
X91729820Y-103964219D01*
X91825059Y-102916600D02*
X91777440Y-103011838D01*
X91682201Y-103107076D01*
X91539344Y-103249933D01*
X91491725Y-103345171D01*
X91491725Y-103440409D01*
X91729820Y-103392790D02*
X91682201Y-103488028D01*
X91586963Y-103583266D01*
X91396487Y-103630885D01*
X91063154Y-103630885D01*
X90872678Y-103583266D01*
X90777440Y-103488028D01*
X90729820Y-103392790D01*
X90729820Y-103202314D01*
X90777440Y-103107076D01*
X90872678Y-103011838D01*
X91063154Y-102964219D01*
X91396487Y-102964219D01*
X91586963Y-103011838D01*
X91682201Y-103107076D01*
X91729820Y-103202314D01*
X91729820Y-103392790D01*
X91783160Y-97330377D02*
X91783160Y-97806567D01*
X90783160Y-97806567D01*
X91783160Y-96520853D02*
X91783160Y-96997043D01*
X90783160Y-96997043D01*
X91497446Y-96235139D02*
X91497446Y-95758948D01*
X91783160Y-96330377D02*
X90783160Y-95997043D01*
X91783160Y-95663710D01*
X90783160Y-95473234D02*
X91783160Y-95139900D01*
X90783160Y-94806567D01*
X91259351Y-94473234D02*
X91259351Y-94139900D01*
X91783160Y-93997043D02*
X91783160Y-94473234D01*
X90783160Y-94473234D01*
X90783160Y-93997043D01*
X91783160Y-92806567D02*
X90783160Y-92806567D01*
X91259351Y-92806567D02*
X91259351Y-92235139D01*
X91783160Y-92235139D02*
X90783160Y-92235139D01*
X91783160Y-90997043D02*
X90783160Y-90997043D01*
X90783160Y-90758948D01*
X90830780Y-90616091D01*
X90926018Y-90520853D01*
X91021256Y-90473234D01*
X91211732Y-90425615D01*
X91354589Y-90425615D01*
X91545065Y-90473234D01*
X91640303Y-90520853D01*
X91735541Y-90616091D01*
X91783160Y-90758948D01*
X91783160Y-90997043D01*
X91259351Y-89997043D02*
X91259351Y-89663710D01*
X91783160Y-89520853D02*
X91783160Y-89997043D01*
X90783160Y-89997043D01*
X90783160Y-89520853D01*
X91783160Y-88520853D02*
X91306970Y-88854186D01*
X91783160Y-89092281D02*
X90783160Y-89092281D01*
X90783160Y-88711329D01*
X90830780Y-88616091D01*
X90878399Y-88568472D01*
X90973637Y-88520853D01*
X91116494Y-88520853D01*
X91211732Y-88568472D01*
X91259351Y-88616091D01*
X91306970Y-88711329D01*
X91306970Y-89092281D01*
X160925902Y-114137748D02*
X161687807Y-114137748D01*
X161306855Y-114518700D02*
X161306855Y-113756796D01*
X163449712Y-114518700D02*
X162878283Y-114518700D01*
X163163998Y-114518700D02*
X163163998Y-113518700D01*
X163068760Y-113661558D01*
X162973521Y-113756796D01*
X162878283Y-113804415D01*
X163830664Y-113613939D02*
X163878283Y-113566320D01*
X163973521Y-113518700D01*
X164211617Y-113518700D01*
X164306855Y-113566320D01*
X164354474Y-113613939D01*
X164402093Y-113709177D01*
X164402093Y-113804415D01*
X164354474Y-113947272D01*
X163783045Y-114518700D01*
X164402093Y-114518700D01*
X164687807Y-113518700D02*
X165021140Y-114518700D01*
X165354474Y-113518700D01*
X166449712Y-114137748D02*
X167211617Y-114137748D01*
D10*
%TO.C,D10*%
X164070000Y-113370000D02*
X164070000Y-110070000D01*
X164070000Y-110070000D02*
X158670000Y-110070000D01*
X164070000Y-113370000D02*
X158670000Y-113370000D01*
%TO.C,D4*%
X128700300Y-81507600D02*
X123300300Y-81507600D01*
X128700300Y-78207600D02*
X123300300Y-78207600D01*
X128700300Y-81507600D02*
X128700300Y-78207600D01*
%TO.C,C16*%
X173347432Y-96567160D02*
X171924928Y-96567160D01*
X173347432Y-99287160D02*
X171924928Y-99287160D01*
%TO.C,C10*%
X109640200Y-82951372D02*
X109640200Y-81528868D01*
X106920200Y-82951372D02*
X106920200Y-81528868D01*
D13*
%TO.C,Q1*%
X97374840Y-67730800D02*
X98724840Y-67730800D01*
%TO.C,Q2*%
X97374840Y-73745520D02*
X98724840Y-73745520D01*
D10*
%TO.C,D9*%
X117000000Y-98250000D02*
X117000000Y-94950000D01*
X117000000Y-94950000D02*
X111600000Y-94950000D01*
X117000000Y-98250000D02*
X111600000Y-98250000D01*
D12*
%TO.C,D3*%
X109592500Y-62293500D02*
G75*
G03*
X109592500Y-62293500I-50000J0D01*
G01*
%TO.C,D2*%
X104859250Y-62293500D02*
G75*
G03*
X104859250Y-62293500I-50000J0D01*
G01*
%TO.C,D1*%
X100126000Y-62293500D02*
G75*
G03*
X100126000Y-62293500I-50000J0D01*
G01*
%TO.C,D5*%
X115556500Y-92248000D02*
G75*
G03*
X115556500Y-92248000I-50000J0D01*
G01*
%TO.C,D6*%
X119091333Y-92248000D02*
G75*
G03*
X119091333Y-92248000I-50000J0D01*
G01*
%TO.C,D7*%
X122626166Y-92248000D02*
G75*
G03*
X122626166Y-92248000I-50000J0D01*
G01*
%TO.C,D8*%
X126161000Y-92248000D02*
G75*
G03*
X126161000Y-92248000I-50000J0D01*
G01*
D10*
%TO.C,R19*%
X151817936Y-75483333D02*
X152272064Y-75483333D01*
X151817936Y-76953333D02*
X152272064Y-76953333D01*
%TO.C,R24*%
X151817936Y-79814166D02*
X152272064Y-79814166D01*
X151817936Y-81284166D02*
X152272064Y-81284166D01*
%TO.C,TP7*%
X98522560Y-105205000D02*
X99922560Y-105205000D01*
X98522560Y-106605000D02*
X98522560Y-105205000D01*
X99922560Y-106605000D02*
X98522560Y-106605000D01*
X99922560Y-105205000D02*
X99922560Y-106605000D01*
%TO.C,TP5*%
X98522560Y-91205000D02*
X99922560Y-91205000D01*
X98522560Y-92605000D02*
X98522560Y-91205000D01*
X99922560Y-92605000D02*
X98522560Y-92605000D01*
X99922560Y-91205000D02*
X99922560Y-92605000D01*
%TO.C,TP8*%
X98522560Y-107745000D02*
X99922560Y-107745000D01*
X98522560Y-109145000D02*
X98522560Y-107745000D01*
X99922560Y-109145000D02*
X98522560Y-109145000D01*
X99922560Y-107745000D02*
X99922560Y-109145000D01*
%TO.C,TP6*%
X98522560Y-93745000D02*
X99922560Y-93745000D01*
X98522560Y-95145000D02*
X98522560Y-93745000D01*
X99922560Y-95145000D02*
X98522560Y-95145000D01*
X99922560Y-93745000D02*
X99922560Y-95145000D01*
%TO.C,TP10*%
X141011680Y-111162060D02*
X141011680Y-109762060D01*
X142411680Y-111162060D02*
X141011680Y-111162060D01*
X142411680Y-109762060D02*
X142411680Y-111162060D01*
X141011680Y-109762060D02*
X142411680Y-109762060D01*
%TO.C,TP3*%
X173102040Y-78795686D02*
X173102040Y-77395686D01*
X174502040Y-78795686D02*
X173102040Y-78795686D01*
X174502040Y-77395686D02*
X174502040Y-78795686D01*
X173102040Y-77395686D02*
X174502040Y-77395686D01*
%TO.C,TP4*%
X173102040Y-82985840D02*
X173102040Y-81585840D01*
X174502040Y-82985840D02*
X173102040Y-82985840D01*
X174502040Y-81585840D02*
X174502040Y-82985840D01*
X173102040Y-81585840D02*
X174502040Y-81585840D01*
%TO.C,TP9*%
X137839220Y-111162060D02*
X137839220Y-109762060D01*
X139239220Y-111162060D02*
X137839220Y-111162060D01*
X139239220Y-109762060D02*
X139239220Y-111162060D01*
X137839220Y-109762060D02*
X139239220Y-109762060D01*
%TO.C,TP1*%
X173102040Y-70415380D02*
X173102040Y-69015380D01*
X174502040Y-70415380D02*
X173102040Y-70415380D01*
X174502040Y-69015380D02*
X174502040Y-70415380D01*
X173102040Y-69015380D02*
X174502040Y-69015380D01*
%TO.C,TP2*%
X173102040Y-74605533D02*
X173102040Y-73205533D01*
X174502040Y-74605533D02*
X173102040Y-74605533D01*
X174502040Y-73205533D02*
X174502040Y-74605533D01*
X173102040Y-73205533D02*
X174502040Y-73205533D01*
%TO.C,C9*%
X137188700Y-79438748D02*
X137188700Y-79961252D01*
X135718700Y-79438748D02*
X135718700Y-79961252D01*
%TO.C,C6*%
X152306252Y-72622500D02*
X151783748Y-72622500D01*
X152306252Y-71152500D02*
X151783748Y-71152500D01*
%TO.C,U6*%
X122500000Y-119060000D02*
X122500000Y-118250000D01*
X104500000Y-119060000D02*
X104500000Y-118250000D01*
X122500000Y-99500000D02*
X121750000Y-99500000D01*
X122500000Y-100250000D02*
X122500000Y-99500000D01*
X104500000Y-99500000D02*
X105250000Y-99500000D01*
X104500000Y-100250000D02*
X104500000Y-99500000D01*
X104500000Y-119060000D02*
X122500000Y-119060000D01*
X121750000Y-99500000D02*
X120000000Y-99500000D01*
X105250000Y-99500000D02*
X107000000Y-99500000D01*
%TO.C,J10*%
X179490000Y-123370000D02*
X179490000Y-117350000D01*
X179490000Y-117350000D02*
X174190000Y-117350000D01*
X174190000Y-117350000D02*
X174190000Y-123370000D01*
X174190000Y-123370000D02*
X179490000Y-123370000D01*
X179780000Y-122340000D02*
X179780000Y-118340000D01*
X178110000Y-117350000D02*
X178110000Y-118350000D01*
X178110000Y-118350000D02*
X175570000Y-118350000D01*
X175570000Y-118350000D02*
X175570000Y-117350000D01*
X178110000Y-118350000D02*
X177860000Y-118880000D01*
X177860000Y-118880000D02*
X175820000Y-118880000D01*
X175820000Y-118880000D02*
X175570000Y-118350000D01*
X177860000Y-117350000D02*
X177860000Y-118350000D01*
X175820000Y-117350000D02*
X175820000Y-118350000D01*
X178910000Y-123370000D02*
X178910000Y-122770000D01*
X178910000Y-122770000D02*
X177310000Y-122770000D01*
X177310000Y-122770000D02*
X177310000Y-123370000D01*
X176370000Y-123370000D02*
X176370000Y-122770000D01*
X176370000Y-122770000D02*
X174770000Y-122770000D01*
X174770000Y-122770000D02*
X174770000Y-123370000D01*
%TO.C,J8*%
X168260000Y-119990000D02*
G75*
G03*
X168260000Y-119990000I-1680000J0D01*
G01*
X158900000Y-124090000D02*
X169180000Y-124090000D01*
X158900000Y-122590000D02*
X169180000Y-122590000D01*
X158900000Y-117689000D02*
X169180000Y-117689000D01*
X158900000Y-114729000D02*
X169180000Y-114729000D01*
X158900000Y-124650000D02*
X169180000Y-124650000D01*
X158900000Y-114729000D02*
X158900000Y-124650000D01*
X169180000Y-114729000D02*
X169180000Y-124650000D01*
X167855000Y-118921000D02*
X167808000Y-118967000D01*
X165546000Y-121229000D02*
X165511000Y-121264000D01*
X167650000Y-118715000D02*
X167615000Y-118751000D01*
X165353000Y-121013000D02*
X165306000Y-121059000D01*
X158660000Y-124150000D02*
X158660000Y-124890000D01*
X158660000Y-124890000D02*
X159160000Y-124890000D01*
X161528805Y-121670253D02*
G75*
G02*
X160816000Y-121525000I-28805J1680253D01*
G01*
X159964574Y-120673042D02*
G75*
G02*
X159965000Y-119306000I1535426J683042D01*
G01*
X160816958Y-118454574D02*
G75*
G02*
X162184000Y-118455000I683042J-1535426D01*
G01*
X163035426Y-119306958D02*
G75*
G02*
X163035000Y-120674000I-1535426J-683042D01*
G01*
X162183318Y-121524756D02*
G75*
G02*
X161500000Y-121670000I-683318J1534756D01*
G01*
%TO.C,J2*%
X116664800Y-58289200D02*
X116664800Y-62549200D01*
X116664800Y-62549200D02*
X128984800Y-62549200D01*
X128984800Y-62549200D02*
X128984800Y-58289200D01*
X121574800Y-62769200D02*
X121074800Y-63269200D01*
X121074800Y-63269200D02*
X122074800Y-63269200D01*
X122074800Y-63269200D02*
X121574800Y-62769200D01*
%TO.C,J4*%
X180100000Y-89960000D02*
X180100000Y-77560000D01*
X180100000Y-77560000D02*
X185570000Y-77560000D01*
X185570000Y-89960000D02*
X180100000Y-89960000D01*
X185500000Y-76950000D02*
X185000000Y-77450000D01*
X185000000Y-77450000D02*
X184500000Y-76950000D01*
X184500000Y-76950000D02*
X185500000Y-76950000D01*
%TO.C,J3*%
X180100000Y-73940000D02*
X180100000Y-61540000D01*
X180100000Y-61540000D02*
X185570000Y-61540000D01*
X185570000Y-73940000D02*
X180100000Y-73940000D01*
X185500000Y-60930000D02*
X185000000Y-61430000D01*
X185000000Y-61430000D02*
X184500000Y-60930000D01*
X184500000Y-60930000D02*
X185500000Y-60930000D01*
%TO.C,U2*%
X144180000Y-78380000D02*
X144180000Y-76430000D01*
X144180000Y-78380000D02*
X144180000Y-80330000D01*
X139060000Y-78380000D02*
X139060000Y-76430000D01*
X139060000Y-78380000D02*
X139060000Y-81830000D01*
%TO.C,U3*%
X160242500Y-78380000D02*
X160242500Y-76430000D01*
X160242500Y-78380000D02*
X160242500Y-80330000D01*
X155122500Y-78380000D02*
X155122500Y-76430000D01*
X155122500Y-78380000D02*
X155122500Y-81830000D01*
%TO.C,U5*%
X157680000Y-102600000D02*
X157680000Y-104100000D01*
X157680000Y-104100000D02*
X158630000Y-104100000D01*
X158630000Y-104100000D02*
X158630000Y-109225000D01*
X168080000Y-102600000D02*
X168080000Y-104100000D01*
X168080000Y-104100000D02*
X167130000Y-104100000D01*
X167130000Y-104100000D02*
X167130000Y-105200000D01*
%TO.C,R11*%
X140542936Y-71152500D02*
X140997064Y-71152500D01*
X140542936Y-72622500D02*
X140997064Y-72622500D01*
%TO.C,R30*%
X140542936Y-84145000D02*
X140997064Y-84145000D01*
X140542936Y-85615000D02*
X140997064Y-85615000D01*
%TO.C,R6*%
X147484564Y-68835000D02*
X147030436Y-68835000D01*
X147484564Y-67365000D02*
X147030436Y-67365000D01*
%TO.C,R38*%
X147484564Y-89395000D02*
X147030436Y-89395000D01*
X147484564Y-87925000D02*
X147030436Y-87925000D01*
%TO.C,R18*%
X147030436Y-75483333D02*
X147484564Y-75483333D01*
X147030436Y-76953333D02*
X147484564Y-76953333D01*
%TO.C,R12*%
X147030436Y-71152500D02*
X147484564Y-71152500D01*
X147030436Y-72622500D02*
X147484564Y-72622500D01*
%TO.C,R23*%
X147030436Y-79814166D02*
X147484564Y-79814166D01*
X147030436Y-81284166D02*
X147484564Y-81284166D01*
%TO.C,R31*%
X147030436Y-84145000D02*
X147484564Y-84145000D01*
X147030436Y-85615000D02*
X147484564Y-85615000D01*
%TO.C,R13*%
X156605436Y-71152500D02*
X157059564Y-71152500D01*
X156605436Y-72622500D02*
X157059564Y-72622500D01*
%TO.C,R32*%
X156605436Y-84145000D02*
X157059564Y-84145000D01*
X156605436Y-85615000D02*
X157059564Y-85615000D01*
%TO.C,R14*%
X163547064Y-72622500D02*
X163092936Y-72622500D01*
X163547064Y-71152500D02*
X163092936Y-71152500D01*
%TO.C,R33*%
X163547064Y-85615000D02*
X163092936Y-85615000D01*
X163547064Y-84145000D02*
X163092936Y-84145000D01*
%TO.C,R7*%
X163092936Y-67365000D02*
X163547064Y-67365000D01*
X163092936Y-68835000D02*
X163547064Y-68835000D01*
%TO.C,R20*%
X163092936Y-75483333D02*
X163547064Y-75483333D01*
X163092936Y-76953333D02*
X163547064Y-76953333D01*
%TO.C,R25*%
X163092936Y-79814166D02*
X163547064Y-79814166D01*
X163092936Y-81284166D02*
X163547064Y-81284166D01*
%TO.C,R39*%
X163092936Y-87925000D02*
X163547064Y-87925000D01*
X163092936Y-89395000D02*
X163547064Y-89395000D01*
%TO.C,R26*%
X171398164Y-82773400D02*
X170944036Y-82773400D01*
X171398164Y-81303400D02*
X170944036Y-81303400D01*
%TO.C,R15*%
X171398164Y-74395133D02*
X170944036Y-74395133D01*
X171398164Y-72925133D02*
X170944036Y-72925133D01*
%TO.C,R21*%
X171398164Y-78584266D02*
X170944036Y-78584266D01*
X171398164Y-77114266D02*
X170944036Y-77114266D01*
%TO.C,R8*%
X171398164Y-70206000D02*
X170944036Y-70206000D01*
X171398164Y-68736000D02*
X170944036Y-68736000D01*
%TO.C,R22*%
X176205636Y-77114266D02*
X176659764Y-77114266D01*
X176205636Y-78584266D02*
X176659764Y-78584266D01*
%TO.C,R27*%
X176205636Y-81303400D02*
X176659764Y-81303400D01*
X176205636Y-82773400D02*
X176659764Y-82773400D01*
%TO.C,R9*%
X176205636Y-68736000D02*
X176659764Y-68736000D01*
X176205636Y-70206000D02*
X176659764Y-70206000D01*
%TO.C,R16*%
X176205636Y-72925133D02*
X176659764Y-72925133D01*
X176205636Y-74395133D02*
X176659764Y-74395133D01*
%TO.C,R29*%
X130987336Y-83999400D02*
X131441464Y-83999400D01*
X130987336Y-85469400D02*
X131441464Y-85469400D01*
%TO.C,R40*%
X130987336Y-97333920D02*
X131441464Y-97333920D01*
X130987336Y-98803920D02*
X131441464Y-98803920D01*
%TO.C,R41*%
X130987336Y-110668440D02*
X131441464Y-110668440D01*
X130987336Y-112138440D02*
X131441464Y-112138440D01*
%TO.C,R28*%
X114224800Y-82041636D02*
X114224800Y-82495764D01*
X112754800Y-82041636D02*
X112754800Y-82495764D01*
%TO.C,R10*%
X94384864Y-71008680D02*
X93930736Y-71008680D01*
X94384864Y-69538680D02*
X93930736Y-69538680D01*
%TO.C,R17*%
X94384864Y-75007280D02*
X93930736Y-75007280D01*
X94384864Y-73537280D02*
X93930736Y-73537280D01*
%TO.C,R5*%
X147423212Y-61665000D02*
X147877340Y-61665000D01*
X147423212Y-63135000D02*
X147877340Y-63135000D01*
%TO.C,R4*%
X136285436Y-61665000D02*
X136739564Y-61665000D01*
X136285436Y-63135000D02*
X136739564Y-63135000D01*
%TO.C,R3*%
X110580436Y-57240500D02*
X111034564Y-57240500D01*
X110580436Y-58710500D02*
X111034564Y-58710500D01*
%TO.C,R2*%
X105847186Y-57240500D02*
X106301314Y-57240500D01*
X105847186Y-58710500D02*
X106301314Y-58710500D01*
%TO.C,R1*%
X101113936Y-57240500D02*
X101568064Y-57240500D01*
X101113936Y-58710500D02*
X101568064Y-58710500D01*
%TO.C,R34*%
X114771500Y-87591564D02*
X114771500Y-87137436D01*
X116241500Y-87591564D02*
X116241500Y-87137436D01*
%TO.C,R35*%
X118306333Y-87591564D02*
X118306333Y-87137436D01*
X119776333Y-87591564D02*
X119776333Y-87137436D01*
%TO.C,R36*%
X121841166Y-87591564D02*
X121841166Y-87137436D01*
X123311166Y-87591564D02*
X123311166Y-87137436D01*
%TO.C,R37*%
X125376000Y-87591564D02*
X125376000Y-87137436D01*
X126846000Y-87591564D02*
X126846000Y-87137436D01*
%TO.C,L1*%
X178910000Y-100470000D02*
X181910000Y-100470000D01*
X181910000Y-100470000D02*
X181910000Y-113070000D01*
X181910000Y-113070000D02*
X178910000Y-113070000D01*
X172310000Y-113070000D02*
X169310000Y-113070000D01*
X169310000Y-113070000D02*
X169310000Y-100470000D01*
X169310000Y-100470000D02*
X172310000Y-100470000D01*
%TO.C,C4*%
X141061252Y-68835000D02*
X140538748Y-68835000D01*
X141061252Y-67365000D02*
X140538748Y-67365000D01*
%TO.C,C13*%
X141061252Y-89395000D02*
X140538748Y-89395000D01*
X141061252Y-87925000D02*
X140538748Y-87925000D01*
%TO.C,C5*%
X157123752Y-68835000D02*
X156601248Y-68835000D01*
X157123752Y-67365000D02*
X156601248Y-67365000D01*
%TO.C,C14*%
X157123752Y-89395000D02*
X156601248Y-89395000D01*
X157123752Y-87925000D02*
X156601248Y-87925000D01*
%TO.C,C19*%
X183080000Y-107380000D02*
X186130000Y-107380000D01*
X191600000Y-107380000D02*
X188550000Y-107380000D01*
X191600000Y-99924437D02*
X191600000Y-107380000D01*
X183080000Y-99924437D02*
X183080000Y-107380000D01*
X184144437Y-98860000D02*
X186130000Y-98860000D01*
X190535563Y-98860000D02*
X188550000Y-98860000D01*
X190535563Y-98860000D02*
X191600000Y-99924437D01*
X184144437Y-98860000D02*
X183080000Y-99924437D01*
X189550000Y-97620000D02*
X189550000Y-98620000D01*
X190050000Y-98120000D02*
X189050000Y-98120000D01*
%TO.C,C18*%
X147900000Y-107380000D02*
X150950000Y-107380000D01*
X156420000Y-107380000D02*
X153370000Y-107380000D01*
X156420000Y-99924437D02*
X156420000Y-107380000D01*
X147900000Y-99924437D02*
X147900000Y-107380000D01*
X148964437Y-98860000D02*
X150950000Y-98860000D01*
X155355563Y-98860000D02*
X153370000Y-98860000D01*
X155355563Y-98860000D02*
X156420000Y-99924437D01*
X148964437Y-98860000D02*
X147900000Y-99924437D01*
X154370000Y-97620000D02*
X154370000Y-98620000D01*
X154870000Y-98120000D02*
X153870000Y-98120000D01*
%TO.C,C7*%
X115649148Y-74804600D02*
X116171652Y-74804600D01*
X115649148Y-76274600D02*
X116171652Y-76274600D01*
%TO.C,C15*%
X184055000Y-94206248D02*
X184055000Y-94728752D01*
X182585000Y-94206248D02*
X182585000Y-94728752D01*
%TO.C,C8*%
X132215000Y-79961252D02*
X132215000Y-79438748D01*
X133685000Y-79961252D02*
X133685000Y-79438748D01*
%TO.C,C1*%
X152958748Y-59515000D02*
X153481252Y-59515000D01*
X152958748Y-60985000D02*
X153481252Y-60985000D01*
%TO.C,C2*%
X141820136Y-61665000D02*
X142342640Y-61665000D01*
X141820136Y-63135000D02*
X142342640Y-63135000D01*
%TO.C,C3*%
X152957914Y-61665000D02*
X153480418Y-61665000D01*
X152957914Y-63135000D02*
X153480418Y-63135000D01*
%TO.C,C11*%
X135069948Y-83974000D02*
X135592452Y-83974000D01*
X135069948Y-85444000D02*
X135592452Y-85444000D01*
%TO.C,C17*%
X135069948Y-97309000D02*
X135592452Y-97309000D01*
X135069948Y-98779000D02*
X135592452Y-98779000D01*
%TO.C,C20*%
X135069948Y-110644000D02*
X135592452Y-110644000D01*
X135069948Y-112114000D02*
X135592452Y-112114000D01*
%TO.C,C21*%
X126321452Y-118250640D02*
X125798948Y-118250640D01*
X126321452Y-116780640D02*
X125798948Y-116780640D01*
%TO.C,C12*%
X168905000Y-88238748D02*
X168905000Y-88761252D01*
X167435000Y-88238748D02*
X167435000Y-88761252D01*
%TO.C,U4*%
X177500000Y-89090000D02*
X176240000Y-89090000D01*
X170680000Y-89090000D02*
X171940000Y-89090000D01*
X177500000Y-92850000D02*
X177500000Y-89090000D01*
X170680000Y-95100000D02*
X170680000Y-89090000D01*
%TO.C,J9*%
X151760000Y-120000000D02*
G75*
G03*
X151760000Y-120000000I-1680000J0D01*
G01*
X156840000Y-120000000D02*
G75*
G03*
X156840000Y-120000000I-1680000J0D01*
G01*
X142400000Y-124100000D02*
X157760000Y-124100000D01*
X142400000Y-122600000D02*
X157760000Y-122600000D01*
X142400000Y-117699000D02*
X157760000Y-117699000D01*
X142400000Y-114739000D02*
X157760000Y-114739000D01*
X142400000Y-124660000D02*
X157760000Y-124660000D01*
X142400000Y-114739000D02*
X142400000Y-124660000D01*
X157760000Y-114739000D02*
X157760000Y-124660000D01*
X151355000Y-118931000D02*
X151308000Y-118977000D01*
X149046000Y-121239000D02*
X149011000Y-121274000D01*
X151150000Y-118725000D02*
X151115000Y-118761000D01*
X148853000Y-121023000D02*
X148806000Y-121069000D01*
X156435000Y-118931000D02*
X156388000Y-118977000D01*
X154126000Y-121239000D02*
X154091000Y-121274000D01*
X156230000Y-118725000D02*
X156195000Y-118761000D01*
X153933000Y-121023000D02*
X153886000Y-121069000D01*
X142160000Y-124160000D02*
X142160000Y-124900000D01*
X142160000Y-124900000D02*
X142660000Y-124900000D01*
X145028805Y-121680253D02*
G75*
G02*
X144316000Y-121535000I-28805J1680253D01*
G01*
X143464574Y-120683042D02*
G75*
G02*
X143465000Y-119316000I1535426J683042D01*
G01*
X144316958Y-118464574D02*
G75*
G02*
X145684000Y-118465000I683042J-1535426D01*
G01*
X146535426Y-119316958D02*
G75*
G02*
X146535000Y-120684000I-1535426J-683042D01*
G01*
X145683318Y-121534756D02*
G75*
G02*
X145000000Y-121680000I-683318J1534756D01*
G01*
%TO.C,J1*%
X160660000Y-52120000D02*
X160660000Y-57320000D01*
X170880000Y-52120000D02*
X160660000Y-52120000D01*
X173480000Y-57320000D02*
X160660000Y-57320000D01*
X170880000Y-52120000D02*
X170880000Y-54720000D01*
X170880000Y-54720000D02*
X173480000Y-54720000D01*
X173480000Y-54720000D02*
X173480000Y-57320000D01*
X172150000Y-52120000D02*
X173480000Y-52120000D01*
X173480000Y-52120000D02*
X173480000Y-53450000D01*
%TO.C,J7*%
X92036800Y-112365000D02*
X98056800Y-112365000D01*
X98056800Y-112365000D02*
X98056800Y-101985000D01*
X98056800Y-101985000D02*
X92036800Y-101985000D01*
X92036800Y-101985000D02*
X92036800Y-112365000D01*
X93066800Y-112655000D02*
X97066800Y-112655000D01*
X98056800Y-110985000D02*
X97056800Y-110985000D01*
X97056800Y-110985000D02*
X97056800Y-103365000D01*
X97056800Y-103365000D02*
X98056800Y-103365000D01*
X97056800Y-110985000D02*
X96526800Y-110735000D01*
X96526800Y-110735000D02*
X96526800Y-103615000D01*
X96526800Y-103615000D02*
X97056800Y-103365000D01*
X98056800Y-110735000D02*
X97056800Y-110735000D01*
X98056800Y-103615000D02*
X97056800Y-103615000D01*
X92036800Y-111785000D02*
X92636800Y-111785000D01*
X92636800Y-111785000D02*
X92636800Y-110185000D01*
X92636800Y-110185000D02*
X92036800Y-110185000D01*
X92036800Y-109245000D02*
X92636800Y-109245000D01*
X92636800Y-109245000D02*
X92636800Y-107645000D01*
X92636800Y-107645000D02*
X92036800Y-107645000D01*
X92036800Y-106705000D02*
X92636800Y-106705000D01*
X92636800Y-106705000D02*
X92636800Y-105105000D01*
X92636800Y-105105000D02*
X92036800Y-105105000D01*
X92036800Y-104165000D02*
X92636800Y-104165000D01*
X92636800Y-104165000D02*
X92636800Y-102565000D01*
X92636800Y-102565000D02*
X92036800Y-102565000D01*
%TO.C,J5*%
X106243000Y-87765000D02*
X109773000Y-87765000D01*
X106243000Y-94235000D02*
X109773000Y-94235000D01*
X104918000Y-87830000D02*
X106243000Y-87830000D01*
X106243000Y-87765000D02*
X106243000Y-87830000D01*
X109773000Y-87765000D02*
X109773000Y-87830000D01*
X106243000Y-94170000D02*
X106243000Y-94235000D01*
X109773000Y-94170000D02*
X109773000Y-94235000D01*
%TO.C,SW1*%
X137489200Y-58449200D02*
X141989200Y-58449200D01*
X136239200Y-54449200D02*
X136239200Y-55949200D01*
X141989200Y-51949200D02*
X137489200Y-51949200D01*
X143239200Y-55949200D02*
X143239200Y-54449200D01*
%TO.C,SW2*%
X147989200Y-58449200D02*
X152489200Y-58449200D01*
X146739200Y-54449200D02*
X146739200Y-55949200D01*
X152489200Y-51949200D02*
X147989200Y-51949200D01*
X153739200Y-55949200D02*
X153739200Y-54449200D01*
%TO.C,SW3*%
X130034400Y-88567460D02*
X130034400Y-93067460D01*
X134034400Y-87317460D02*
X132534400Y-87317460D01*
X136534400Y-93067460D02*
X136534400Y-88567460D01*
X132534400Y-94317460D02*
X134034400Y-94317460D01*
%TO.C,SW4*%
X130034400Y-101901980D02*
X130034400Y-106401980D01*
X134034400Y-100651980D02*
X132534400Y-100651980D01*
X136534400Y-106401980D02*
X136534400Y-101901980D01*
X132534400Y-107651980D02*
X134034400Y-107651980D01*
%TO.C,SW5*%
X130034400Y-115236500D02*
X130034400Y-119736500D01*
X134034400Y-113986500D02*
X132534400Y-113986500D01*
X136534400Y-119736500D02*
X136534400Y-115236500D01*
X132534400Y-120986500D02*
X134034400Y-120986500D01*
%TO.C,FB1*%
X119669800Y-73451700D02*
X123509800Y-73451700D01*
X123509800Y-73451700D02*
X123509800Y-68211700D01*
X123509800Y-68211700D02*
X119669800Y-68211700D01*
X119669800Y-68211700D02*
X119669800Y-73451700D01*
X121589800Y-74831700D02*
X121589800Y-73451700D01*
X121589800Y-66831700D02*
X121589800Y-68211700D01*
%TO.C,J6*%
X92636800Y-88565000D02*
X92036800Y-88565000D01*
X92636800Y-90165000D02*
X92636800Y-88565000D01*
X92036800Y-90165000D02*
X92636800Y-90165000D01*
X92636800Y-91105000D02*
X92036800Y-91105000D01*
X92636800Y-92705000D02*
X92636800Y-91105000D01*
X92036800Y-92705000D02*
X92636800Y-92705000D01*
X92636800Y-93645000D02*
X92036800Y-93645000D01*
X92636800Y-95245000D02*
X92636800Y-93645000D01*
X92036800Y-95245000D02*
X92636800Y-95245000D01*
X92636800Y-96185000D02*
X92036800Y-96185000D01*
X92636800Y-97785000D02*
X92636800Y-96185000D01*
X92036800Y-97785000D02*
X92636800Y-97785000D01*
X98056800Y-89615000D02*
X97056800Y-89615000D01*
X98056800Y-96735000D02*
X97056800Y-96735000D01*
X96526800Y-89615000D02*
X97056800Y-89365000D01*
X96526800Y-96735000D02*
X96526800Y-89615000D01*
X97056800Y-96985000D02*
X96526800Y-96735000D01*
X97056800Y-89365000D02*
X98056800Y-89365000D01*
X97056800Y-96985000D02*
X97056800Y-89365000D01*
X98056800Y-96985000D02*
X97056800Y-96985000D01*
X93066800Y-98655000D02*
X97066800Y-98655000D01*
X92036800Y-87985000D02*
X92036800Y-98365000D01*
X98056800Y-87985000D02*
X92036800Y-87985000D01*
X98056800Y-98365000D02*
X98056800Y-87985000D01*
X92036800Y-98365000D02*
X98056800Y-98365000D01*
D11*
%TO.C,U1*%
X105583000Y-68465500D02*
X103983000Y-68465500D01*
X105583000Y-78540500D02*
X111333000Y-78540500D01*
X105583000Y-67890500D02*
X111333000Y-67890500D01*
X105583000Y-78540500D02*
X105583000Y-77890500D01*
X111333000Y-78540500D02*
X111333000Y-77890500D01*
X111333000Y-67890500D02*
X111333000Y-68540500D01*
X105583000Y-67890500D02*
X105583000Y-68465500D01*
%TO.C,D10*%
X156884640Y-112938965D02*
X155884640Y-112938965D01*
X155884640Y-112700870D01*
X155932260Y-112558013D01*
X156027498Y-112462775D01*
X156122736Y-112415156D01*
X156313212Y-112367537D01*
X156456069Y-112367537D01*
X156646545Y-112415156D01*
X156741783Y-112462775D01*
X156837021Y-112558013D01*
X156884640Y-112700870D01*
X156884640Y-112938965D01*
X156884640Y-111415156D02*
X156884640Y-111986584D01*
X156884640Y-111700870D02*
X155884640Y-111700870D01*
X156027498Y-111796108D01*
X156122736Y-111891346D01*
X156170355Y-111986584D01*
X155884640Y-110796108D02*
X155884640Y-110700870D01*
X155932260Y-110605632D01*
X155979879Y-110558013D01*
X156075117Y-110510394D01*
X156265593Y-110462775D01*
X156503688Y-110462775D01*
X156694164Y-110510394D01*
X156789402Y-110558013D01*
X156837021Y-110605632D01*
X156884640Y-110700870D01*
X156884640Y-110796108D01*
X156837021Y-110891346D01*
X156789402Y-110938965D01*
X156694164Y-110986584D01*
X156503688Y-111034203D01*
X156265593Y-111034203D01*
X156075117Y-110986584D01*
X155979879Y-110938965D01*
X155932260Y-110891346D01*
X155884640Y-110796108D01*
%TO.C,D4*%
X124557124Y-77714740D02*
X124557124Y-76714740D01*
X124795220Y-76714740D01*
X124938077Y-76762360D01*
X125033315Y-76857598D01*
X125080934Y-76952836D01*
X125128553Y-77143312D01*
X125128553Y-77286169D01*
X125080934Y-77476645D01*
X125033315Y-77571883D01*
X124938077Y-77667121D01*
X124795220Y-77714740D01*
X124557124Y-77714740D01*
X125985696Y-77048074D02*
X125985696Y-77714740D01*
X125747600Y-76667121D02*
X125509505Y-77381407D01*
X126128553Y-77381407D01*
%TO.C,C16*%
X175800782Y-97265762D02*
X175753163Y-97313381D01*
X175610306Y-97361000D01*
X175515068Y-97361000D01*
X175372211Y-97313381D01*
X175276973Y-97218143D01*
X175229354Y-97122905D01*
X175181735Y-96932429D01*
X175181735Y-96789572D01*
X175229354Y-96599096D01*
X175276973Y-96503858D01*
X175372211Y-96408620D01*
X175515068Y-96361000D01*
X175610306Y-96361000D01*
X175753163Y-96408620D01*
X175800782Y-96456239D01*
X176753163Y-97361000D02*
X176181735Y-97361000D01*
X176467449Y-97361000D02*
X176467449Y-96361000D01*
X176372211Y-96503858D01*
X176276973Y-96599096D01*
X176181735Y-96646715D01*
X177610306Y-96361000D02*
X177419830Y-96361000D01*
X177324592Y-96408620D01*
X177276973Y-96456239D01*
X177181735Y-96599096D01*
X177134116Y-96789572D01*
X177134116Y-97170524D01*
X177181735Y-97265762D01*
X177229354Y-97313381D01*
X177324592Y-97361000D01*
X177515068Y-97361000D01*
X177610306Y-97313381D01*
X177657925Y-97265762D01*
X177705544Y-97170524D01*
X177705544Y-96932429D01*
X177657925Y-96837191D01*
X177610306Y-96789572D01*
X177515068Y-96741953D01*
X177324592Y-96741953D01*
X177229354Y-96789572D01*
X177181735Y-96837191D01*
X177134116Y-96932429D01*
%TO.C,C10*%
X106337342Y-82882977D02*
X106384961Y-82930596D01*
X106432580Y-83073453D01*
X106432580Y-83168691D01*
X106384961Y-83311548D01*
X106289723Y-83406786D01*
X106194485Y-83454405D01*
X106004009Y-83502024D01*
X105861152Y-83502024D01*
X105670676Y-83454405D01*
X105575438Y-83406786D01*
X105480200Y-83311548D01*
X105432580Y-83168691D01*
X105432580Y-83073453D01*
X105480200Y-82930596D01*
X105527819Y-82882977D01*
X106432580Y-81930596D02*
X106432580Y-82502024D01*
X106432580Y-82216310D02*
X105432580Y-82216310D01*
X105575438Y-82311548D01*
X105670676Y-82406786D01*
X105718295Y-82502024D01*
X105432580Y-81311548D02*
X105432580Y-81216310D01*
X105480200Y-81121072D01*
X105527819Y-81073453D01*
X105623057Y-81025834D01*
X105813533Y-80978215D01*
X106051628Y-80978215D01*
X106242104Y-81025834D01*
X106337342Y-81073453D01*
X106384961Y-81121072D01*
X106432580Y-81216310D01*
X106432580Y-81311548D01*
X106384961Y-81406786D01*
X106337342Y-81454405D01*
X106242104Y-81502024D01*
X106051628Y-81549643D01*
X105813533Y-81549643D01*
X105623057Y-81502024D01*
X105527819Y-81454405D01*
X105480200Y-81406786D01*
X105432580Y-81311548D01*
%TO.C,Q1*%
X98012261Y-67329299D02*
X97917023Y-67281680D01*
X97821785Y-67186441D01*
X97678928Y-67043584D01*
X97583690Y-66995965D01*
X97488452Y-66995965D01*
X97536071Y-67234060D02*
X97440833Y-67186441D01*
X97345595Y-67091203D01*
X97297976Y-66900727D01*
X97297976Y-66567394D01*
X97345595Y-66376918D01*
X97440833Y-66281680D01*
X97536071Y-66234060D01*
X97726547Y-66234060D01*
X97821785Y-66281680D01*
X97917023Y-66376918D01*
X97964642Y-66567394D01*
X97964642Y-66900727D01*
X97917023Y-67091203D01*
X97821785Y-67186441D01*
X97726547Y-67234060D01*
X97536071Y-67234060D01*
X98917023Y-67234060D02*
X98345595Y-67234060D01*
X98631309Y-67234060D02*
X98631309Y-66234060D01*
X98536071Y-66376918D01*
X98440833Y-66472156D01*
X98345595Y-66519775D01*
%TO.C,Q2*%
X98065601Y-73354179D02*
X97970363Y-73306560D01*
X97875125Y-73211321D01*
X97732268Y-73068464D01*
X97637030Y-73020845D01*
X97541792Y-73020845D01*
X97589411Y-73258940D02*
X97494173Y-73211321D01*
X97398935Y-73116083D01*
X97351316Y-72925607D01*
X97351316Y-72592274D01*
X97398935Y-72401798D01*
X97494173Y-72306560D01*
X97589411Y-72258940D01*
X97779887Y-72258940D01*
X97875125Y-72306560D01*
X97970363Y-72401798D01*
X98017982Y-72592274D01*
X98017982Y-72925607D01*
X97970363Y-73116083D01*
X97875125Y-73211321D01*
X97779887Y-73258940D01*
X97589411Y-73258940D01*
X98398935Y-72354179D02*
X98446554Y-72306560D01*
X98541792Y-72258940D01*
X98779887Y-72258940D01*
X98875125Y-72306560D01*
X98922744Y-72354179D01*
X98970363Y-72449417D01*
X98970363Y-72544655D01*
X98922744Y-72687512D01*
X98351316Y-73258940D01*
X98970363Y-73258940D01*
%TO.C,D9*%
X109875580Y-97341915D02*
X108875580Y-97341915D01*
X108875580Y-97103820D01*
X108923200Y-96960962D01*
X109018438Y-96865724D01*
X109113676Y-96818105D01*
X109304152Y-96770486D01*
X109447009Y-96770486D01*
X109637485Y-96818105D01*
X109732723Y-96865724D01*
X109827961Y-96960962D01*
X109875580Y-97103820D01*
X109875580Y-97341915D01*
X109875580Y-96294296D02*
X109875580Y-96103820D01*
X109827961Y-96008581D01*
X109780342Y-95960962D01*
X109637485Y-95865724D01*
X109447009Y-95818105D01*
X109066057Y-95818105D01*
X108970819Y-95865724D01*
X108923200Y-95913343D01*
X108875580Y-96008581D01*
X108875580Y-96199058D01*
X108923200Y-96294296D01*
X108970819Y-96341915D01*
X109066057Y-96389534D01*
X109304152Y-96389534D01*
X109399390Y-96341915D01*
X109447009Y-96294296D01*
X109494628Y-96199058D01*
X109494628Y-96008581D01*
X109447009Y-95913343D01*
X109399390Y-95865724D01*
X109304152Y-95818105D01*
%TO.C,D3*%
X110069404Y-61575880D02*
X110069404Y-60575880D01*
X110307500Y-60575880D01*
X110450357Y-60623500D01*
X110545595Y-60718738D01*
X110593214Y-60813976D01*
X110640833Y-61004452D01*
X110640833Y-61147309D01*
X110593214Y-61337785D01*
X110545595Y-61433023D01*
X110450357Y-61528261D01*
X110307500Y-61575880D01*
X110069404Y-61575880D01*
X110974166Y-60575880D02*
X111593214Y-60575880D01*
X111259880Y-60956833D01*
X111402738Y-60956833D01*
X111497976Y-61004452D01*
X111545595Y-61052071D01*
X111593214Y-61147309D01*
X111593214Y-61385404D01*
X111545595Y-61480642D01*
X111497976Y-61528261D01*
X111402738Y-61575880D01*
X111117023Y-61575880D01*
X111021785Y-61528261D01*
X110974166Y-61480642D01*
%TO.C,D2*%
X105336154Y-61575880D02*
X105336154Y-60575880D01*
X105574250Y-60575880D01*
X105717107Y-60623500D01*
X105812345Y-60718738D01*
X105859964Y-60813976D01*
X105907583Y-61004452D01*
X105907583Y-61147309D01*
X105859964Y-61337785D01*
X105812345Y-61433023D01*
X105717107Y-61528261D01*
X105574250Y-61575880D01*
X105336154Y-61575880D01*
X106288535Y-60671119D02*
X106336154Y-60623500D01*
X106431392Y-60575880D01*
X106669488Y-60575880D01*
X106764726Y-60623500D01*
X106812345Y-60671119D01*
X106859964Y-60766357D01*
X106859964Y-60861595D01*
X106812345Y-61004452D01*
X106240916Y-61575880D01*
X106859964Y-61575880D01*
%TO.C,D1*%
X100602904Y-61575880D02*
X100602904Y-60575880D01*
X100841000Y-60575880D01*
X100983857Y-60623500D01*
X101079095Y-60718738D01*
X101126714Y-60813976D01*
X101174333Y-61004452D01*
X101174333Y-61147309D01*
X101126714Y-61337785D01*
X101079095Y-61433023D01*
X100983857Y-61528261D01*
X100841000Y-61575880D01*
X100602904Y-61575880D01*
X102126714Y-61575880D02*
X101555285Y-61575880D01*
X101841000Y-61575880D02*
X101841000Y-60575880D01*
X101745761Y-60718738D01*
X101650523Y-60813976D01*
X101555285Y-60861595D01*
%TO.C,D5*%
X114788880Y-91721095D02*
X113788880Y-91721095D01*
X113788880Y-91483000D01*
X113836500Y-91340142D01*
X113931738Y-91244904D01*
X114026976Y-91197285D01*
X114217452Y-91149666D01*
X114360309Y-91149666D01*
X114550785Y-91197285D01*
X114646023Y-91244904D01*
X114741261Y-91340142D01*
X114788880Y-91483000D01*
X114788880Y-91721095D01*
X113788880Y-90244904D02*
X113788880Y-90721095D01*
X114265071Y-90768714D01*
X114217452Y-90721095D01*
X114169833Y-90625857D01*
X114169833Y-90387761D01*
X114217452Y-90292523D01*
X114265071Y-90244904D01*
X114360309Y-90197285D01*
X114598404Y-90197285D01*
X114693642Y-90244904D01*
X114741261Y-90292523D01*
X114788880Y-90387761D01*
X114788880Y-90625857D01*
X114741261Y-90721095D01*
X114693642Y-90768714D01*
%TO.C,D6*%
X118323713Y-91721095D02*
X117323713Y-91721095D01*
X117323713Y-91483000D01*
X117371333Y-91340142D01*
X117466571Y-91244904D01*
X117561809Y-91197285D01*
X117752285Y-91149666D01*
X117895142Y-91149666D01*
X118085618Y-91197285D01*
X118180856Y-91244904D01*
X118276094Y-91340142D01*
X118323713Y-91483000D01*
X118323713Y-91721095D01*
X117323713Y-90292523D02*
X117323713Y-90483000D01*
X117371333Y-90578238D01*
X117418952Y-90625857D01*
X117561809Y-90721095D01*
X117752285Y-90768714D01*
X118133237Y-90768714D01*
X118228475Y-90721095D01*
X118276094Y-90673476D01*
X118323713Y-90578238D01*
X118323713Y-90387761D01*
X118276094Y-90292523D01*
X118228475Y-90244904D01*
X118133237Y-90197285D01*
X117895142Y-90197285D01*
X117799904Y-90244904D01*
X117752285Y-90292523D01*
X117704666Y-90387761D01*
X117704666Y-90578238D01*
X117752285Y-90673476D01*
X117799904Y-90721095D01*
X117895142Y-90768714D01*
%TO.C,D7*%
X121858546Y-91721095D02*
X120858546Y-91721095D01*
X120858546Y-91483000D01*
X120906166Y-91340142D01*
X121001404Y-91244904D01*
X121096642Y-91197285D01*
X121287118Y-91149666D01*
X121429975Y-91149666D01*
X121620451Y-91197285D01*
X121715689Y-91244904D01*
X121810927Y-91340142D01*
X121858546Y-91483000D01*
X121858546Y-91721095D01*
X120858546Y-90816333D02*
X120858546Y-90149666D01*
X121858546Y-90578238D01*
%TO.C,D8*%
X125393380Y-91721095D02*
X124393380Y-91721095D01*
X124393380Y-91483000D01*
X124441000Y-91340142D01*
X124536238Y-91244904D01*
X124631476Y-91197285D01*
X124821952Y-91149666D01*
X124964809Y-91149666D01*
X125155285Y-91197285D01*
X125250523Y-91244904D01*
X125345761Y-91340142D01*
X125393380Y-91483000D01*
X125393380Y-91721095D01*
X124821952Y-90578238D02*
X124774333Y-90673476D01*
X124726714Y-90721095D01*
X124631476Y-90768714D01*
X124583857Y-90768714D01*
X124488619Y-90721095D01*
X124441000Y-90673476D01*
X124393380Y-90578238D01*
X124393380Y-90387761D01*
X124441000Y-90292523D01*
X124488619Y-90244904D01*
X124583857Y-90197285D01*
X124631476Y-90197285D01*
X124726714Y-90244904D01*
X124774333Y-90292523D01*
X124821952Y-90387761D01*
X124821952Y-90578238D01*
X124869571Y-90673476D01*
X124917190Y-90721095D01*
X125012428Y-90768714D01*
X125202904Y-90768714D01*
X125298142Y-90721095D01*
X125345761Y-90673476D01*
X125393380Y-90578238D01*
X125393380Y-90387761D01*
X125345761Y-90292523D01*
X125298142Y-90244904D01*
X125202904Y-90197285D01*
X125012428Y-90197285D01*
X124917190Y-90244904D01*
X124869571Y-90292523D01*
X124821952Y-90387761D01*
%TO.C,R19*%
X151402142Y-75020713D02*
X151068809Y-74544523D01*
X150830714Y-75020713D02*
X150830714Y-74020713D01*
X151211666Y-74020713D01*
X151306904Y-74068333D01*
X151354523Y-74115952D01*
X151402142Y-74211190D01*
X151402142Y-74354047D01*
X151354523Y-74449285D01*
X151306904Y-74496904D01*
X151211666Y-74544523D01*
X150830714Y-74544523D01*
X152354523Y-75020713D02*
X151783095Y-75020713D01*
X152068809Y-75020713D02*
X152068809Y-74020713D01*
X151973571Y-74163571D01*
X151878333Y-74258809D01*
X151783095Y-74306428D01*
X152830714Y-75020713D02*
X153021190Y-75020713D01*
X153116428Y-74973094D01*
X153164047Y-74925475D01*
X153259285Y-74782618D01*
X153306904Y-74592142D01*
X153306904Y-74211190D01*
X153259285Y-74115952D01*
X153211666Y-74068333D01*
X153116428Y-74020713D01*
X152925952Y-74020713D01*
X152830714Y-74068333D01*
X152783095Y-74115952D01*
X152735476Y-74211190D01*
X152735476Y-74449285D01*
X152783095Y-74544523D01*
X152830714Y-74592142D01*
X152925952Y-74639761D01*
X153116428Y-74639761D01*
X153211666Y-74592142D01*
X153259285Y-74544523D01*
X153306904Y-74449285D01*
%TO.C,R24*%
X151402142Y-79351546D02*
X151068809Y-78875356D01*
X150830714Y-79351546D02*
X150830714Y-78351546D01*
X151211666Y-78351546D01*
X151306904Y-78399166D01*
X151354523Y-78446785D01*
X151402142Y-78542023D01*
X151402142Y-78684880D01*
X151354523Y-78780118D01*
X151306904Y-78827737D01*
X151211666Y-78875356D01*
X150830714Y-78875356D01*
X151783095Y-78446785D02*
X151830714Y-78399166D01*
X151925952Y-78351546D01*
X152164047Y-78351546D01*
X152259285Y-78399166D01*
X152306904Y-78446785D01*
X152354523Y-78542023D01*
X152354523Y-78637261D01*
X152306904Y-78780118D01*
X151735476Y-79351546D01*
X152354523Y-79351546D01*
X153211666Y-78684880D02*
X153211666Y-79351546D01*
X152973571Y-78303927D02*
X152735476Y-79018213D01*
X153354523Y-79018213D01*
%TO.C,TP7*%
D12*
X99488568Y-104878417D02*
X98888568Y-104878417D01*
X98888568Y-104649845D01*
X98917140Y-104592702D01*
X98945711Y-104564131D01*
X99002854Y-104535560D01*
X99088568Y-104535560D01*
X99145711Y-104564131D01*
X99174282Y-104592702D01*
X99202854Y-104649845D01*
X99202854Y-104878417D01*
X98888568Y-104335560D02*
X99488568Y-104192702D01*
X99059997Y-104078417D01*
X99488568Y-103964131D01*
X98888568Y-103821274D01*
X99488568Y-103592702D02*
X98888568Y-103592702D01*
X99317140Y-103392702D01*
X98888568Y-103192702D01*
X99488568Y-103192702D01*
%TO.C,TP5*%
X99488568Y-90878417D02*
X98888568Y-90878417D01*
X98888568Y-90649845D01*
X98917140Y-90592702D01*
X98945711Y-90564131D01*
X99002854Y-90535560D01*
X99088568Y-90535560D01*
X99145711Y-90564131D01*
X99174282Y-90592702D01*
X99202854Y-90649845D01*
X99202854Y-90878417D01*
X98888568Y-90335560D02*
X99488568Y-90192702D01*
X99059997Y-90078417D01*
X99488568Y-89964131D01*
X98888568Y-89821274D01*
X99488568Y-89592702D02*
X98888568Y-89592702D01*
X99317140Y-89392702D01*
X98888568Y-89192702D01*
X99488568Y-89192702D01*
%TO.C,TP8*%
X99181902Y-110358517D02*
X99181902Y-110158517D01*
X99496188Y-110072802D02*
X99496188Y-110358517D01*
X98896188Y-110358517D01*
X98896188Y-110072802D01*
X99496188Y-109815660D02*
X98896188Y-109815660D01*
X99496188Y-109472802D01*
X98896188Y-109472802D01*
%TO.C,TP6*%
X99181902Y-96358517D02*
X99181902Y-96158517D01*
X99496188Y-96072802D02*
X99496188Y-96358517D01*
X98896188Y-96358517D01*
X98896188Y-96072802D01*
X99496188Y-95815660D02*
X98896188Y-95815660D01*
X99496188Y-95472802D01*
X98896188Y-95472802D01*
%TO.C,TP10*%
X140635157Y-109161902D02*
X140720871Y-109190474D01*
X140749442Y-109219045D01*
X140778014Y-109276188D01*
X140778014Y-109361902D01*
X140749442Y-109419045D01*
X140720871Y-109447617D01*
X140663728Y-109476188D01*
X140435157Y-109476188D01*
X140435157Y-108876188D01*
X140635157Y-108876188D01*
X140692300Y-108904760D01*
X140720871Y-108933331D01*
X140749442Y-108990474D01*
X140749442Y-109047617D01*
X140720871Y-109104760D01*
X140692300Y-109133331D01*
X140635157Y-109161902D01*
X140435157Y-109161902D01*
X141006585Y-109304760D02*
X141292300Y-109304760D01*
X140949442Y-109476188D02*
X141149442Y-108876188D01*
X141349442Y-109476188D01*
X141463728Y-108876188D02*
X141806585Y-108876188D01*
X141635157Y-109476188D02*
X141635157Y-108876188D01*
X142778014Y-109476188D02*
X142435157Y-109476188D01*
X142606585Y-109476188D02*
X142606585Y-108876188D01*
X142549442Y-108961902D01*
X142492300Y-109019045D01*
X142435157Y-109047617D01*
%TO.C,TP3*%
X172673468Y-79548554D02*
X172673468Y-78948554D01*
X172902040Y-78948554D02*
X173302040Y-78948554D01*
X172902040Y-79548554D01*
X173302040Y-79548554D01*
X173930611Y-79605697D02*
X173873468Y-79577126D01*
X173816325Y-79519983D01*
X173730611Y-79434268D01*
X173673468Y-79405697D01*
X173616325Y-79405697D01*
X173644897Y-79548554D02*
X173587754Y-79519983D01*
X173530611Y-79462840D01*
X173502040Y-79348554D01*
X173502040Y-79148554D01*
X173530611Y-79034268D01*
X173587754Y-78977126D01*
X173644897Y-78948554D01*
X173759182Y-78948554D01*
X173816325Y-78977126D01*
X173873468Y-79034268D01*
X173902040Y-79148554D01*
X173902040Y-79348554D01*
X173873468Y-79462840D01*
X173816325Y-79519983D01*
X173759182Y-79548554D01*
X173644897Y-79548554D01*
X174016325Y-79605697D02*
X174473468Y-79605697D01*
X174816325Y-79234268D02*
X174902040Y-79262840D01*
X174930611Y-79291411D01*
X174959182Y-79348554D01*
X174959182Y-79434268D01*
X174930611Y-79491411D01*
X174902040Y-79519983D01*
X174844897Y-79548554D01*
X174616325Y-79548554D01*
X174616325Y-78948554D01*
X174816325Y-78948554D01*
X174873468Y-78977126D01*
X174902040Y-79005697D01*
X174930611Y-79062840D01*
X174930611Y-79119983D01*
X174902040Y-79177126D01*
X174873468Y-79205697D01*
X174816325Y-79234268D01*
X174616325Y-79234268D01*
%TO.C,TP4*%
X172716325Y-83738708D02*
X172716325Y-83138708D01*
X172944897Y-83138708D02*
X173344897Y-83138708D01*
X172944897Y-83738708D01*
X173344897Y-83738708D01*
X173973468Y-83795851D02*
X173916325Y-83767280D01*
X173859182Y-83710137D01*
X173773468Y-83624422D01*
X173716325Y-83595851D01*
X173659182Y-83595851D01*
X173687754Y-83738708D02*
X173630611Y-83710137D01*
X173573468Y-83652994D01*
X173544897Y-83538708D01*
X173544897Y-83338708D01*
X173573468Y-83224422D01*
X173630611Y-83167280D01*
X173687754Y-83138708D01*
X173802040Y-83138708D01*
X173859182Y-83167280D01*
X173916325Y-83224422D01*
X173944897Y-83338708D01*
X173944897Y-83538708D01*
X173916325Y-83652994D01*
X173859182Y-83710137D01*
X173802040Y-83738708D01*
X173687754Y-83738708D01*
X174059182Y-83795851D02*
X174516325Y-83795851D01*
X174630611Y-83567280D02*
X174916325Y-83567280D01*
X174573468Y-83738708D02*
X174773468Y-83138708D01*
X174973468Y-83738708D01*
%TO.C,TP9*%
X137693837Y-109161902D02*
X137779551Y-109190474D01*
X137808122Y-109219045D01*
X137836694Y-109276188D01*
X137836694Y-109361902D01*
X137808122Y-109419045D01*
X137779551Y-109447617D01*
X137722408Y-109476188D01*
X137493837Y-109476188D01*
X137493837Y-108876188D01*
X137693837Y-108876188D01*
X137750980Y-108904760D01*
X137779551Y-108933331D01*
X137808122Y-108990474D01*
X137808122Y-109047617D01*
X137779551Y-109104760D01*
X137750980Y-109133331D01*
X137693837Y-109161902D01*
X137493837Y-109161902D01*
X138065265Y-109304760D02*
X138350980Y-109304760D01*
X138008122Y-109476188D02*
X138208122Y-108876188D01*
X138408122Y-109476188D01*
X138522408Y-108876188D02*
X138865265Y-108876188D01*
X138693837Y-109476188D02*
X138693837Y-108876188D01*
X139493837Y-108933331D02*
X139522408Y-108904760D01*
X139579551Y-108876188D01*
X139722408Y-108876188D01*
X139779551Y-108904760D01*
X139808122Y-108933331D01*
X139836694Y-108990474D01*
X139836694Y-109047617D01*
X139808122Y-109133331D01*
X139465265Y-109476188D01*
X139836694Y-109476188D01*
%TO.C,TP1*%
X172544897Y-71168248D02*
X172544897Y-70568248D01*
X172687754Y-70568248D01*
X172773468Y-70596820D01*
X172830611Y-70653962D01*
X172859182Y-70711105D01*
X172887754Y-70825391D01*
X172887754Y-70911105D01*
X172859182Y-71025391D01*
X172830611Y-71082534D01*
X172773468Y-71139677D01*
X172687754Y-71168248D01*
X172544897Y-71168248D01*
X173144897Y-70853962D02*
X173344897Y-70853962D01*
X173430611Y-71168248D02*
X173144897Y-71168248D01*
X173144897Y-70568248D01*
X173430611Y-70568248D01*
X174030611Y-71168248D02*
X173830611Y-70882534D01*
X173687754Y-71168248D02*
X173687754Y-70568248D01*
X173916325Y-70568248D01*
X173973468Y-70596820D01*
X174002040Y-70625391D01*
X174030611Y-70682534D01*
X174030611Y-70768248D01*
X174002040Y-70825391D01*
X173973468Y-70853962D01*
X173916325Y-70882534D01*
X173687754Y-70882534D01*
X174144897Y-71225391D02*
X174602040Y-71225391D01*
X174944897Y-70853962D02*
X175030611Y-70882534D01*
X175059182Y-70911105D01*
X175087754Y-70968248D01*
X175087754Y-71053962D01*
X175059182Y-71111105D01*
X175030611Y-71139677D01*
X174973468Y-71168248D01*
X174744897Y-71168248D01*
X174744897Y-70568248D01*
X174944897Y-70568248D01*
X175002040Y-70596820D01*
X175030611Y-70625391D01*
X175059182Y-70682534D01*
X175059182Y-70739677D01*
X175030611Y-70796820D01*
X175002040Y-70825391D01*
X174944897Y-70853962D01*
X174744897Y-70853962D01*
%TO.C,TP2*%
X172587754Y-75358401D02*
X172587754Y-74758401D01*
X172730611Y-74758401D01*
X172816325Y-74786973D01*
X172873468Y-74844115D01*
X172902040Y-74901258D01*
X172930611Y-75015544D01*
X172930611Y-75101258D01*
X172902040Y-75215544D01*
X172873468Y-75272687D01*
X172816325Y-75329830D01*
X172730611Y-75358401D01*
X172587754Y-75358401D01*
X173187754Y-75044115D02*
X173387754Y-75044115D01*
X173473468Y-75358401D02*
X173187754Y-75358401D01*
X173187754Y-74758401D01*
X173473468Y-74758401D01*
X174073468Y-75358401D02*
X173873468Y-75072687D01*
X173730611Y-75358401D02*
X173730611Y-74758401D01*
X173959182Y-74758401D01*
X174016325Y-74786973D01*
X174044897Y-74815544D01*
X174073468Y-74872687D01*
X174073468Y-74958401D01*
X174044897Y-75015544D01*
X174016325Y-75044115D01*
X173959182Y-75072687D01*
X173730611Y-75072687D01*
X174187754Y-75415544D02*
X174644897Y-75415544D01*
X174759182Y-75186973D02*
X175044897Y-75186973D01*
X174702040Y-75358401D02*
X174902040Y-74758401D01*
X175102040Y-75358401D01*
%TO.C,C9*%
D11*
X135187962Y-80054746D02*
X135235581Y-80102365D01*
X135283200Y-80245222D01*
X135283200Y-80340460D01*
X135235581Y-80483318D01*
X135140343Y-80578556D01*
X135045105Y-80626175D01*
X134854629Y-80673794D01*
X134711772Y-80673794D01*
X134521296Y-80626175D01*
X134426058Y-80578556D01*
X134330820Y-80483318D01*
X134283200Y-80340460D01*
X134283200Y-80245222D01*
X134330820Y-80102365D01*
X134378439Y-80054746D01*
X135283200Y-79578556D02*
X135283200Y-79388080D01*
X135235581Y-79292841D01*
X135187962Y-79245222D01*
X135045105Y-79149984D01*
X134854629Y-79102365D01*
X134473677Y-79102365D01*
X134378439Y-79149984D01*
X134330820Y-79197603D01*
X134283200Y-79292841D01*
X134283200Y-79483318D01*
X134330820Y-79578556D01*
X134378439Y-79626175D01*
X134473677Y-79673794D01*
X134711772Y-79673794D01*
X134807010Y-79626175D01*
X134854629Y-79578556D01*
X134902248Y-79483318D01*
X134902248Y-79292841D01*
X134854629Y-79197603D01*
X134807010Y-79149984D01*
X134711772Y-79102365D01*
%TO.C,C6*%
X151828333Y-70644642D02*
X151780714Y-70692261D01*
X151637857Y-70739880D01*
X151542619Y-70739880D01*
X151399761Y-70692261D01*
X151304523Y-70597023D01*
X151256904Y-70501785D01*
X151209285Y-70311309D01*
X151209285Y-70168452D01*
X151256904Y-69977976D01*
X151304523Y-69882738D01*
X151399761Y-69787500D01*
X151542619Y-69739880D01*
X151637857Y-69739880D01*
X151780714Y-69787500D01*
X151828333Y-69835119D01*
X152685476Y-69739880D02*
X152495000Y-69739880D01*
X152399761Y-69787500D01*
X152352142Y-69835119D01*
X152256904Y-69977976D01*
X152209285Y-70168452D01*
X152209285Y-70549404D01*
X152256904Y-70644642D01*
X152304523Y-70692261D01*
X152399761Y-70739880D01*
X152590238Y-70739880D01*
X152685476Y-70692261D01*
X152733095Y-70644642D01*
X152780714Y-70549404D01*
X152780714Y-70311309D01*
X152733095Y-70216071D01*
X152685476Y-70168452D01*
X152590238Y-70120833D01*
X152399761Y-70120833D01*
X152304523Y-70168452D01*
X152256904Y-70216071D01*
X152209285Y-70311309D01*
%TO.C,U6*%
X102175060Y-111262064D02*
X102984584Y-111262064D01*
X103079822Y-111214445D01*
X103127441Y-111166826D01*
X103175060Y-111071588D01*
X103175060Y-110881112D01*
X103127441Y-110785874D01*
X103079822Y-110738255D01*
X102984584Y-110690636D01*
X102175060Y-110690636D01*
X102175060Y-109785874D02*
X102175060Y-109976350D01*
X102222680Y-110071588D01*
X102270299Y-110119207D01*
X102413156Y-110214445D01*
X102603632Y-110262064D01*
X102984584Y-110262064D01*
X103079822Y-110214445D01*
X103127441Y-110166826D01*
X103175060Y-110071588D01*
X103175060Y-109881112D01*
X103127441Y-109785874D01*
X103079822Y-109738255D01*
X102984584Y-109690636D01*
X102746489Y-109690636D01*
X102651251Y-109738255D01*
X102603632Y-109785874D01*
X102556013Y-109881112D01*
X102556013Y-110071588D01*
X102603632Y-110166826D01*
X102651251Y-110214445D01*
X102746489Y-110262064D01*
%TO.C,J10*%
X180450476Y-117172380D02*
X180450476Y-117886666D01*
X180402857Y-118029523D01*
X180307619Y-118124761D01*
X180164761Y-118172380D01*
X180069523Y-118172380D01*
X181450476Y-118172380D02*
X180879047Y-118172380D01*
X181164761Y-118172380D02*
X181164761Y-117172380D01*
X181069523Y-117315238D01*
X180974285Y-117410476D01*
X180879047Y-117458095D01*
X182069523Y-117172380D02*
X182164761Y-117172380D01*
X182260000Y-117220000D01*
X182307619Y-117267619D01*
X182355238Y-117362857D01*
X182402857Y-117553333D01*
X182402857Y-117791428D01*
X182355238Y-117981904D01*
X182307619Y-118077142D01*
X182260000Y-118124761D01*
X182164761Y-118172380D01*
X182069523Y-118172380D01*
X181974285Y-118124761D01*
X181926666Y-118077142D01*
X181879047Y-117981904D01*
X181831428Y-117791428D01*
X181831428Y-117553333D01*
X181879047Y-117362857D01*
X181926666Y-117267619D01*
X181974285Y-117220000D01*
X182069523Y-117172380D01*
%TO.C,J8*%
X170276666Y-114812380D02*
X170276666Y-115526666D01*
X170229047Y-115669523D01*
X170133809Y-115764761D01*
X169990952Y-115812380D01*
X169895714Y-115812380D01*
X170895714Y-115240952D02*
X170800476Y-115193333D01*
X170752857Y-115145714D01*
X170705238Y-115050476D01*
X170705238Y-115002857D01*
X170752857Y-114907619D01*
X170800476Y-114860000D01*
X170895714Y-114812380D01*
X171086190Y-114812380D01*
X171181428Y-114860000D01*
X171229047Y-114907619D01*
X171276666Y-115002857D01*
X171276666Y-115050476D01*
X171229047Y-115145714D01*
X171181428Y-115193333D01*
X171086190Y-115240952D01*
X170895714Y-115240952D01*
X170800476Y-115288571D01*
X170752857Y-115336190D01*
X170705238Y-115431428D01*
X170705238Y-115621904D01*
X170752857Y-115717142D01*
X170800476Y-115764761D01*
X170895714Y-115812380D01*
X171086190Y-115812380D01*
X171181428Y-115764761D01*
X171229047Y-115717142D01*
X171276666Y-115621904D01*
X171276666Y-115431428D01*
X171229047Y-115336190D01*
X171181428Y-115288571D01*
X171086190Y-115240952D01*
%TO.C,J2*%
X113257180Y-54522533D02*
X113971466Y-54522533D01*
X114114323Y-54570152D01*
X114209561Y-54665390D01*
X114257180Y-54808247D01*
X114257180Y-54903485D01*
X113352419Y-54093961D02*
X113304800Y-54046342D01*
X113257180Y-53951104D01*
X113257180Y-53713009D01*
X113304800Y-53617771D01*
X113352419Y-53570152D01*
X113447657Y-53522533D01*
X113542895Y-53522533D01*
X113685752Y-53570152D01*
X114257180Y-54141580D01*
X114257180Y-53522533D01*
%TO.C,J4*%
X180636586Y-75929240D02*
X180636586Y-76643526D01*
X180588967Y-76786383D01*
X180493729Y-76881621D01*
X180350872Y-76929240D01*
X180255634Y-76929240D01*
X181541348Y-76262574D02*
X181541348Y-76929240D01*
X181303253Y-75881621D02*
X181065158Y-76595907D01*
X181684205Y-76595907D01*
%TO.C,J3*%
X180621346Y-59917080D02*
X180621346Y-60631366D01*
X180573727Y-60774223D01*
X180478489Y-60869461D01*
X180335632Y-60917080D01*
X180240394Y-60917080D01*
X181002299Y-59917080D02*
X181621346Y-59917080D01*
X181288013Y-60298033D01*
X181430870Y-60298033D01*
X181526108Y-60345652D01*
X181573727Y-60393271D01*
X181621346Y-60488509D01*
X181621346Y-60726604D01*
X181573727Y-60821842D01*
X181526108Y-60869461D01*
X181430870Y-60917080D01*
X181145156Y-60917080D01*
X181049918Y-60869461D01*
X181002299Y-60821842D01*
%TO.C,U2*%
X137763000Y-79138924D02*
X138572524Y-79138924D01*
X138667762Y-79091305D01*
X138715381Y-79043686D01*
X138763000Y-78948448D01*
X138763000Y-78757972D01*
X138715381Y-78662734D01*
X138667762Y-78615115D01*
X138572524Y-78567496D01*
X137763000Y-78567496D01*
X137858239Y-78138924D02*
X137810620Y-78091305D01*
X137763000Y-77996067D01*
X137763000Y-77757972D01*
X137810620Y-77662734D01*
X137858239Y-77615115D01*
X137953477Y-77567496D01*
X138048715Y-77567496D01*
X138191572Y-77615115D01*
X138763000Y-78186543D01*
X138763000Y-77567496D01*
%TO.C,U3*%
X160580534Y-79136384D02*
X161390058Y-79136384D01*
X161485296Y-79088765D01*
X161532915Y-79041146D01*
X161580534Y-78945908D01*
X161580534Y-78755432D01*
X161532915Y-78660194D01*
X161485296Y-78612575D01*
X161390058Y-78564956D01*
X160580534Y-78564956D01*
X160580534Y-78184003D02*
X160580534Y-77564956D01*
X160961487Y-77898289D01*
X160961487Y-77755432D01*
X161009106Y-77660194D01*
X161056725Y-77612575D01*
X161151963Y-77564956D01*
X161390058Y-77564956D01*
X161485296Y-77612575D01*
X161532915Y-77660194D01*
X161580534Y-77755432D01*
X161580534Y-78041146D01*
X161532915Y-78136384D01*
X161485296Y-78184003D01*
%TO.C,U5*%
X162082575Y-91621360D02*
X162082575Y-92430884D01*
X162130194Y-92526122D01*
X162177813Y-92573741D01*
X162273051Y-92621360D01*
X162463527Y-92621360D01*
X162558765Y-92573741D01*
X162606384Y-92526122D01*
X162654003Y-92430884D01*
X162654003Y-91621360D01*
X163606384Y-91621360D02*
X163130194Y-91621360D01*
X163082575Y-92097551D01*
X163130194Y-92049932D01*
X163225432Y-92002313D01*
X163463527Y-92002313D01*
X163558765Y-92049932D01*
X163606384Y-92097551D01*
X163654003Y-92192789D01*
X163654003Y-92430884D01*
X163606384Y-92526122D01*
X163558765Y-92573741D01*
X163463527Y-92621360D01*
X163225432Y-92621360D01*
X163130194Y-92573741D01*
X163082575Y-92526122D01*
%TO.C,R11*%
X140127142Y-70689880D02*
X139793809Y-70213690D01*
X139555714Y-70689880D02*
X139555714Y-69689880D01*
X139936666Y-69689880D01*
X140031904Y-69737500D01*
X140079523Y-69785119D01*
X140127142Y-69880357D01*
X140127142Y-70023214D01*
X140079523Y-70118452D01*
X140031904Y-70166071D01*
X139936666Y-70213690D01*
X139555714Y-70213690D01*
X141079523Y-70689880D02*
X140508095Y-70689880D01*
X140793809Y-70689880D02*
X140793809Y-69689880D01*
X140698571Y-69832738D01*
X140603333Y-69927976D01*
X140508095Y-69975595D01*
X142031904Y-70689880D02*
X141460476Y-70689880D01*
X141746190Y-70689880D02*
X141746190Y-69689880D01*
X141650952Y-69832738D01*
X141555714Y-69927976D01*
X141460476Y-69975595D01*
%TO.C,R30*%
X140127142Y-83682380D02*
X139793809Y-83206190D01*
X139555714Y-83682380D02*
X139555714Y-82682380D01*
X139936666Y-82682380D01*
X140031904Y-82730000D01*
X140079523Y-82777619D01*
X140127142Y-82872857D01*
X140127142Y-83015714D01*
X140079523Y-83110952D01*
X140031904Y-83158571D01*
X139936666Y-83206190D01*
X139555714Y-83206190D01*
X140460476Y-82682380D02*
X141079523Y-82682380D01*
X140746190Y-83063333D01*
X140889047Y-83063333D01*
X140984285Y-83110952D01*
X141031904Y-83158571D01*
X141079523Y-83253809D01*
X141079523Y-83491904D01*
X141031904Y-83587142D01*
X140984285Y-83634761D01*
X140889047Y-83682380D01*
X140603333Y-83682380D01*
X140508095Y-83634761D01*
X140460476Y-83587142D01*
X141698571Y-82682380D02*
X141793809Y-82682380D01*
X141889047Y-82730000D01*
X141936666Y-82777619D01*
X141984285Y-82872857D01*
X142031904Y-83063333D01*
X142031904Y-83301428D01*
X141984285Y-83491904D01*
X141936666Y-83587142D01*
X141889047Y-83634761D01*
X141793809Y-83682380D01*
X141698571Y-83682380D01*
X141603333Y-83634761D01*
X141555714Y-83587142D01*
X141508095Y-83491904D01*
X141460476Y-83301428D01*
X141460476Y-83063333D01*
X141508095Y-82872857D01*
X141555714Y-82777619D01*
X141603333Y-82730000D01*
X141698571Y-82682380D01*
%TO.C,R6*%
X147045113Y-66852120D02*
X146711780Y-66375930D01*
X146473684Y-66852120D02*
X146473684Y-65852120D01*
X146854637Y-65852120D01*
X146949875Y-65899740D01*
X146997494Y-65947359D01*
X147045113Y-66042597D01*
X147045113Y-66185454D01*
X146997494Y-66280692D01*
X146949875Y-66328311D01*
X146854637Y-66375930D01*
X146473684Y-66375930D01*
X147902256Y-65852120D02*
X147711780Y-65852120D01*
X147616541Y-65899740D01*
X147568922Y-65947359D01*
X147473684Y-66090216D01*
X147426065Y-66280692D01*
X147426065Y-66661644D01*
X147473684Y-66756882D01*
X147521303Y-66804501D01*
X147616541Y-66852120D01*
X147807018Y-66852120D01*
X147902256Y-66804501D01*
X147949875Y-66756882D01*
X147997494Y-66661644D01*
X147997494Y-66423549D01*
X147949875Y-66328311D01*
X147902256Y-66280692D01*
X147807018Y-66233073D01*
X147616541Y-66233073D01*
X147521303Y-66280692D01*
X147473684Y-66328311D01*
X147426065Y-66423549D01*
%TO.C,R38*%
X146568922Y-87412120D02*
X146235589Y-86935930D01*
X145997494Y-87412120D02*
X145997494Y-86412120D01*
X146378446Y-86412120D01*
X146473684Y-86459740D01*
X146521303Y-86507359D01*
X146568922Y-86602597D01*
X146568922Y-86745454D01*
X146521303Y-86840692D01*
X146473684Y-86888311D01*
X146378446Y-86935930D01*
X145997494Y-86935930D01*
X146902256Y-86412120D02*
X147521303Y-86412120D01*
X147187970Y-86793073D01*
X147330827Y-86793073D01*
X147426065Y-86840692D01*
X147473684Y-86888311D01*
X147521303Y-86983549D01*
X147521303Y-87221644D01*
X147473684Y-87316882D01*
X147426065Y-87364501D01*
X147330827Y-87412120D01*
X147045113Y-87412120D01*
X146949875Y-87364501D01*
X146902256Y-87316882D01*
X148092732Y-86840692D02*
X147997494Y-86793073D01*
X147949875Y-86745454D01*
X147902256Y-86650216D01*
X147902256Y-86602597D01*
X147949875Y-86507359D01*
X147997494Y-86459740D01*
X148092732Y-86412120D01*
X148283208Y-86412120D01*
X148378446Y-86459740D01*
X148426065Y-86507359D01*
X148473684Y-86602597D01*
X148473684Y-86650216D01*
X148426065Y-86745454D01*
X148378446Y-86793073D01*
X148283208Y-86840692D01*
X148092732Y-86840692D01*
X147997494Y-86888311D01*
X147949875Y-86935930D01*
X147902256Y-87031168D01*
X147902256Y-87221644D01*
X147949875Y-87316882D01*
X147997494Y-87364501D01*
X148092732Y-87412120D01*
X148283208Y-87412120D01*
X148378446Y-87364501D01*
X148426065Y-87316882D01*
X148473684Y-87221644D01*
X148473684Y-87031168D01*
X148426065Y-86935930D01*
X148378446Y-86888311D01*
X148283208Y-86840692D01*
%TO.C,R18*%
X146614642Y-75020713D02*
X146281309Y-74544523D01*
X146043214Y-75020713D02*
X146043214Y-74020713D01*
X146424166Y-74020713D01*
X146519404Y-74068333D01*
X146567023Y-74115952D01*
X146614642Y-74211190D01*
X146614642Y-74354047D01*
X146567023Y-74449285D01*
X146519404Y-74496904D01*
X146424166Y-74544523D01*
X146043214Y-74544523D01*
X147567023Y-75020713D02*
X146995595Y-75020713D01*
X147281309Y-75020713D02*
X147281309Y-74020713D01*
X147186071Y-74163571D01*
X147090833Y-74258809D01*
X146995595Y-74306428D01*
X148138452Y-74449285D02*
X148043214Y-74401666D01*
X147995595Y-74354047D01*
X147947976Y-74258809D01*
X147947976Y-74211190D01*
X147995595Y-74115952D01*
X148043214Y-74068333D01*
X148138452Y-74020713D01*
X148328928Y-74020713D01*
X148424166Y-74068333D01*
X148471785Y-74115952D01*
X148519404Y-74211190D01*
X148519404Y-74258809D01*
X148471785Y-74354047D01*
X148424166Y-74401666D01*
X148328928Y-74449285D01*
X148138452Y-74449285D01*
X148043214Y-74496904D01*
X147995595Y-74544523D01*
X147947976Y-74639761D01*
X147947976Y-74830237D01*
X147995595Y-74925475D01*
X148043214Y-74973094D01*
X148138452Y-75020713D01*
X148328928Y-75020713D01*
X148424166Y-74973094D01*
X148471785Y-74925475D01*
X148519404Y-74830237D01*
X148519404Y-74639761D01*
X148471785Y-74544523D01*
X148424166Y-74496904D01*
X148328928Y-74449285D01*
%TO.C,R12*%
X146614642Y-70689880D02*
X146281309Y-70213690D01*
X146043214Y-70689880D02*
X146043214Y-69689880D01*
X146424166Y-69689880D01*
X146519404Y-69737500D01*
X146567023Y-69785119D01*
X146614642Y-69880357D01*
X146614642Y-70023214D01*
X146567023Y-70118452D01*
X146519404Y-70166071D01*
X146424166Y-70213690D01*
X146043214Y-70213690D01*
X147567023Y-70689880D02*
X146995595Y-70689880D01*
X147281309Y-70689880D02*
X147281309Y-69689880D01*
X147186071Y-69832738D01*
X147090833Y-69927976D01*
X146995595Y-69975595D01*
X147947976Y-69785119D02*
X147995595Y-69737500D01*
X148090833Y-69689880D01*
X148328928Y-69689880D01*
X148424166Y-69737500D01*
X148471785Y-69785119D01*
X148519404Y-69880357D01*
X148519404Y-69975595D01*
X148471785Y-70118452D01*
X147900357Y-70689880D01*
X148519404Y-70689880D01*
%TO.C,R23*%
X146614642Y-79351546D02*
X146281309Y-78875356D01*
X146043214Y-79351546D02*
X146043214Y-78351546D01*
X146424166Y-78351546D01*
X146519404Y-78399166D01*
X146567023Y-78446785D01*
X146614642Y-78542023D01*
X146614642Y-78684880D01*
X146567023Y-78780118D01*
X146519404Y-78827737D01*
X146424166Y-78875356D01*
X146043214Y-78875356D01*
X146995595Y-78446785D02*
X147043214Y-78399166D01*
X147138452Y-78351546D01*
X147376547Y-78351546D01*
X147471785Y-78399166D01*
X147519404Y-78446785D01*
X147567023Y-78542023D01*
X147567023Y-78637261D01*
X147519404Y-78780118D01*
X146947976Y-79351546D01*
X147567023Y-79351546D01*
X147900357Y-78351546D02*
X148519404Y-78351546D01*
X148186071Y-78732499D01*
X148328928Y-78732499D01*
X148424166Y-78780118D01*
X148471785Y-78827737D01*
X148519404Y-78922975D01*
X148519404Y-79161070D01*
X148471785Y-79256308D01*
X148424166Y-79303927D01*
X148328928Y-79351546D01*
X148043214Y-79351546D01*
X147947976Y-79303927D01*
X147900357Y-79256308D01*
%TO.C,R31*%
X146614642Y-83682380D02*
X146281309Y-83206190D01*
X146043214Y-83682380D02*
X146043214Y-82682380D01*
X146424166Y-82682380D01*
X146519404Y-82730000D01*
X146567023Y-82777619D01*
X146614642Y-82872857D01*
X146614642Y-83015714D01*
X146567023Y-83110952D01*
X146519404Y-83158571D01*
X146424166Y-83206190D01*
X146043214Y-83206190D01*
X146947976Y-82682380D02*
X147567023Y-82682380D01*
X147233690Y-83063333D01*
X147376547Y-83063333D01*
X147471785Y-83110952D01*
X147519404Y-83158571D01*
X147567023Y-83253809D01*
X147567023Y-83491904D01*
X147519404Y-83587142D01*
X147471785Y-83634761D01*
X147376547Y-83682380D01*
X147090833Y-83682380D01*
X146995595Y-83634761D01*
X146947976Y-83587142D01*
X148519404Y-83682380D02*
X147947976Y-83682380D01*
X148233690Y-83682380D02*
X148233690Y-82682380D01*
X148138452Y-82825238D01*
X148043214Y-82920476D01*
X147947976Y-82968095D01*
%TO.C,R13*%
X156189642Y-70689880D02*
X155856309Y-70213690D01*
X155618214Y-70689880D02*
X155618214Y-69689880D01*
X155999166Y-69689880D01*
X156094404Y-69737500D01*
X156142023Y-69785119D01*
X156189642Y-69880357D01*
X156189642Y-70023214D01*
X156142023Y-70118452D01*
X156094404Y-70166071D01*
X155999166Y-70213690D01*
X155618214Y-70213690D01*
X157142023Y-70689880D02*
X156570595Y-70689880D01*
X156856309Y-70689880D02*
X156856309Y-69689880D01*
X156761071Y-69832738D01*
X156665833Y-69927976D01*
X156570595Y-69975595D01*
X157475357Y-69689880D02*
X158094404Y-69689880D01*
X157761071Y-70070833D01*
X157903928Y-70070833D01*
X157999166Y-70118452D01*
X158046785Y-70166071D01*
X158094404Y-70261309D01*
X158094404Y-70499404D01*
X158046785Y-70594642D01*
X157999166Y-70642261D01*
X157903928Y-70689880D01*
X157618214Y-70689880D01*
X157522976Y-70642261D01*
X157475357Y-70594642D01*
%TO.C,R32*%
X156189642Y-83682380D02*
X155856309Y-83206190D01*
X155618214Y-83682380D02*
X155618214Y-82682380D01*
X155999166Y-82682380D01*
X156094404Y-82730000D01*
X156142023Y-82777619D01*
X156189642Y-82872857D01*
X156189642Y-83015714D01*
X156142023Y-83110952D01*
X156094404Y-83158571D01*
X155999166Y-83206190D01*
X155618214Y-83206190D01*
X156522976Y-82682380D02*
X157142023Y-82682380D01*
X156808690Y-83063333D01*
X156951547Y-83063333D01*
X157046785Y-83110952D01*
X157094404Y-83158571D01*
X157142023Y-83253809D01*
X157142023Y-83491904D01*
X157094404Y-83587142D01*
X157046785Y-83634761D01*
X156951547Y-83682380D01*
X156665833Y-83682380D01*
X156570595Y-83634761D01*
X156522976Y-83587142D01*
X157522976Y-82777619D02*
X157570595Y-82730000D01*
X157665833Y-82682380D01*
X157903928Y-82682380D01*
X157999166Y-82730000D01*
X158046785Y-82777619D01*
X158094404Y-82872857D01*
X158094404Y-82968095D01*
X158046785Y-83110952D01*
X157475357Y-83682380D01*
X158094404Y-83682380D01*
%TO.C,R14*%
X162631422Y-70639620D02*
X162298089Y-70163430D01*
X162059994Y-70639620D02*
X162059994Y-69639620D01*
X162440946Y-69639620D01*
X162536184Y-69687240D01*
X162583803Y-69734859D01*
X162631422Y-69830097D01*
X162631422Y-69972954D01*
X162583803Y-70068192D01*
X162536184Y-70115811D01*
X162440946Y-70163430D01*
X162059994Y-70163430D01*
X163583803Y-70639620D02*
X163012375Y-70639620D01*
X163298089Y-70639620D02*
X163298089Y-69639620D01*
X163202851Y-69782478D01*
X163107613Y-69877716D01*
X163012375Y-69925335D01*
X164440946Y-69972954D02*
X164440946Y-70639620D01*
X164202851Y-69592001D02*
X163964756Y-70306287D01*
X164583803Y-70306287D01*
%TO.C,R33*%
X162631422Y-83632120D02*
X162298089Y-83155930D01*
X162059994Y-83632120D02*
X162059994Y-82632120D01*
X162440946Y-82632120D01*
X162536184Y-82679740D01*
X162583803Y-82727359D01*
X162631422Y-82822597D01*
X162631422Y-82965454D01*
X162583803Y-83060692D01*
X162536184Y-83108311D01*
X162440946Y-83155930D01*
X162059994Y-83155930D01*
X162964756Y-82632120D02*
X163583803Y-82632120D01*
X163250470Y-83013073D01*
X163393327Y-83013073D01*
X163488565Y-83060692D01*
X163536184Y-83108311D01*
X163583803Y-83203549D01*
X163583803Y-83441644D01*
X163536184Y-83536882D01*
X163488565Y-83584501D01*
X163393327Y-83632120D01*
X163107613Y-83632120D01*
X163012375Y-83584501D01*
X162964756Y-83536882D01*
X163917137Y-82632120D02*
X164536184Y-82632120D01*
X164202851Y-83013073D01*
X164345708Y-83013073D01*
X164440946Y-83060692D01*
X164488565Y-83108311D01*
X164536184Y-83203549D01*
X164536184Y-83441644D01*
X164488565Y-83536882D01*
X164440946Y-83584501D01*
X164345708Y-83632120D01*
X164059994Y-83632120D01*
X163964756Y-83584501D01*
X163917137Y-83536882D01*
%TO.C,R7*%
X163153333Y-66902380D02*
X162820000Y-66426190D01*
X162581904Y-66902380D02*
X162581904Y-65902380D01*
X162962857Y-65902380D01*
X163058095Y-65950000D01*
X163105714Y-65997619D01*
X163153333Y-66092857D01*
X163153333Y-66235714D01*
X163105714Y-66330952D01*
X163058095Y-66378571D01*
X162962857Y-66426190D01*
X162581904Y-66426190D01*
X163486666Y-65902380D02*
X164153333Y-65902380D01*
X163724761Y-66902380D01*
%TO.C,R20*%
X162677142Y-75020713D02*
X162343809Y-74544523D01*
X162105714Y-75020713D02*
X162105714Y-74020713D01*
X162486666Y-74020713D01*
X162581904Y-74068333D01*
X162629523Y-74115952D01*
X162677142Y-74211190D01*
X162677142Y-74354047D01*
X162629523Y-74449285D01*
X162581904Y-74496904D01*
X162486666Y-74544523D01*
X162105714Y-74544523D01*
X163058095Y-74115952D02*
X163105714Y-74068333D01*
X163200952Y-74020713D01*
X163439047Y-74020713D01*
X163534285Y-74068333D01*
X163581904Y-74115952D01*
X163629523Y-74211190D01*
X163629523Y-74306428D01*
X163581904Y-74449285D01*
X163010476Y-75020713D01*
X163629523Y-75020713D01*
X164248571Y-74020713D02*
X164343809Y-74020713D01*
X164439047Y-74068333D01*
X164486666Y-74115952D01*
X164534285Y-74211190D01*
X164581904Y-74401666D01*
X164581904Y-74639761D01*
X164534285Y-74830237D01*
X164486666Y-74925475D01*
X164439047Y-74973094D01*
X164343809Y-75020713D01*
X164248571Y-75020713D01*
X164153333Y-74973094D01*
X164105714Y-74925475D01*
X164058095Y-74830237D01*
X164010476Y-74639761D01*
X164010476Y-74401666D01*
X164058095Y-74211190D01*
X164105714Y-74115952D01*
X164153333Y-74068333D01*
X164248571Y-74020713D01*
%TO.C,R25*%
X162717142Y-79378214D02*
X162383809Y-78902024D01*
X162145714Y-79378214D02*
X162145714Y-78378214D01*
X162526666Y-78378214D01*
X162621904Y-78425834D01*
X162669523Y-78473453D01*
X162717142Y-78568691D01*
X162717142Y-78711548D01*
X162669523Y-78806786D01*
X162621904Y-78854405D01*
X162526666Y-78902024D01*
X162145714Y-78902024D01*
X163098095Y-78473453D02*
X163145714Y-78425834D01*
X163240952Y-78378214D01*
X163479047Y-78378214D01*
X163574285Y-78425834D01*
X163621904Y-78473453D01*
X163669523Y-78568691D01*
X163669523Y-78663929D01*
X163621904Y-78806786D01*
X163050476Y-79378214D01*
X163669523Y-79378214D01*
X164574285Y-78378214D02*
X164098095Y-78378214D01*
X164050476Y-78854405D01*
X164098095Y-78806786D01*
X164193333Y-78759167D01*
X164431428Y-78759167D01*
X164526666Y-78806786D01*
X164574285Y-78854405D01*
X164621904Y-78949643D01*
X164621904Y-79187738D01*
X164574285Y-79282976D01*
X164526666Y-79330595D01*
X164431428Y-79378214D01*
X164193333Y-79378214D01*
X164098095Y-79330595D01*
X164050476Y-79282976D01*
%TO.C,R39*%
X162677142Y-87462380D02*
X162343809Y-86986190D01*
X162105714Y-87462380D02*
X162105714Y-86462380D01*
X162486666Y-86462380D01*
X162581904Y-86510000D01*
X162629523Y-86557619D01*
X162677142Y-86652857D01*
X162677142Y-86795714D01*
X162629523Y-86890952D01*
X162581904Y-86938571D01*
X162486666Y-86986190D01*
X162105714Y-86986190D01*
X163010476Y-86462380D02*
X163629523Y-86462380D01*
X163296190Y-86843333D01*
X163439047Y-86843333D01*
X163534285Y-86890952D01*
X163581904Y-86938571D01*
X163629523Y-87033809D01*
X163629523Y-87271904D01*
X163581904Y-87367142D01*
X163534285Y-87414761D01*
X163439047Y-87462380D01*
X163153333Y-87462380D01*
X163058095Y-87414761D01*
X163010476Y-87367142D01*
X164105714Y-87462380D02*
X164296190Y-87462380D01*
X164391428Y-87414761D01*
X164439047Y-87367142D01*
X164534285Y-87224285D01*
X164581904Y-87033809D01*
X164581904Y-86652857D01*
X164534285Y-86557619D01*
X164486666Y-86510000D01*
X164391428Y-86462380D01*
X164200952Y-86462380D01*
X164105714Y-86510000D01*
X164058095Y-86557619D01*
X164010476Y-86652857D01*
X164010476Y-86890952D01*
X164058095Y-86986190D01*
X164105714Y-87033809D01*
X164200952Y-87081428D01*
X164391428Y-87081428D01*
X164486666Y-87033809D01*
X164534285Y-86986190D01*
X164581904Y-86890952D01*
%TO.C,R26*%
X170537902Y-80820520D02*
X170204569Y-80344330D01*
X169966474Y-80820520D02*
X169966474Y-79820520D01*
X170347426Y-79820520D01*
X170442664Y-79868140D01*
X170490283Y-79915759D01*
X170537902Y-80010997D01*
X170537902Y-80153854D01*
X170490283Y-80249092D01*
X170442664Y-80296711D01*
X170347426Y-80344330D01*
X169966474Y-80344330D01*
X170918855Y-79915759D02*
X170966474Y-79868140D01*
X171061712Y-79820520D01*
X171299807Y-79820520D01*
X171395045Y-79868140D01*
X171442664Y-79915759D01*
X171490283Y-80010997D01*
X171490283Y-80106235D01*
X171442664Y-80249092D01*
X170871236Y-80820520D01*
X171490283Y-80820520D01*
X172347426Y-79820520D02*
X172156950Y-79820520D01*
X172061712Y-79868140D01*
X172014093Y-79915759D01*
X171918855Y-80058616D01*
X171871236Y-80249092D01*
X171871236Y-80630044D01*
X171918855Y-80725282D01*
X171966474Y-80772901D01*
X172061712Y-80820520D01*
X172252188Y-80820520D01*
X172347426Y-80772901D01*
X172395045Y-80725282D01*
X172442664Y-80630044D01*
X172442664Y-80391949D01*
X172395045Y-80296711D01*
X172347426Y-80249092D01*
X172252188Y-80201473D01*
X172061712Y-80201473D01*
X171966474Y-80249092D01*
X171918855Y-80296711D01*
X171871236Y-80391949D01*
%TO.C,R15*%
X170482522Y-72412253D02*
X170149189Y-71936063D01*
X169911094Y-72412253D02*
X169911094Y-71412253D01*
X170292046Y-71412253D01*
X170387284Y-71459873D01*
X170434903Y-71507492D01*
X170482522Y-71602730D01*
X170482522Y-71745587D01*
X170434903Y-71840825D01*
X170387284Y-71888444D01*
X170292046Y-71936063D01*
X169911094Y-71936063D01*
X171434903Y-72412253D02*
X170863475Y-72412253D01*
X171149189Y-72412253D02*
X171149189Y-71412253D01*
X171053951Y-71555111D01*
X170958713Y-71650349D01*
X170863475Y-71697968D01*
X172339665Y-71412253D02*
X171863475Y-71412253D01*
X171815856Y-71888444D01*
X171863475Y-71840825D01*
X171958713Y-71793206D01*
X172196808Y-71793206D01*
X172292046Y-71840825D01*
X172339665Y-71888444D01*
X172387284Y-71983682D01*
X172387284Y-72221777D01*
X172339665Y-72317015D01*
X172292046Y-72364634D01*
X172196808Y-72412253D01*
X171958713Y-72412253D01*
X171863475Y-72364634D01*
X171815856Y-72317015D01*
%TO.C,R21*%
X170482522Y-76601386D02*
X170149189Y-76125196D01*
X169911094Y-76601386D02*
X169911094Y-75601386D01*
X170292046Y-75601386D01*
X170387284Y-75649006D01*
X170434903Y-75696625D01*
X170482522Y-75791863D01*
X170482522Y-75934720D01*
X170434903Y-76029958D01*
X170387284Y-76077577D01*
X170292046Y-76125196D01*
X169911094Y-76125196D01*
X170863475Y-75696625D02*
X170911094Y-75649006D01*
X171006332Y-75601386D01*
X171244427Y-75601386D01*
X171339665Y-75649006D01*
X171387284Y-75696625D01*
X171434903Y-75791863D01*
X171434903Y-75887101D01*
X171387284Y-76029958D01*
X170815856Y-76601386D01*
X171434903Y-76601386D01*
X172387284Y-76601386D02*
X171815856Y-76601386D01*
X172101570Y-76601386D02*
X172101570Y-75601386D01*
X172006332Y-75744244D01*
X171911094Y-75839482D01*
X171815856Y-75887101D01*
%TO.C,R8*%
X170958713Y-68223120D02*
X170625380Y-67746930D01*
X170387284Y-68223120D02*
X170387284Y-67223120D01*
X170768237Y-67223120D01*
X170863475Y-67270740D01*
X170911094Y-67318359D01*
X170958713Y-67413597D01*
X170958713Y-67556454D01*
X170911094Y-67651692D01*
X170863475Y-67699311D01*
X170768237Y-67746930D01*
X170387284Y-67746930D01*
X171530141Y-67651692D02*
X171434903Y-67604073D01*
X171387284Y-67556454D01*
X171339665Y-67461216D01*
X171339665Y-67413597D01*
X171387284Y-67318359D01*
X171434903Y-67270740D01*
X171530141Y-67223120D01*
X171720618Y-67223120D01*
X171815856Y-67270740D01*
X171863475Y-67318359D01*
X171911094Y-67413597D01*
X171911094Y-67461216D01*
X171863475Y-67556454D01*
X171815856Y-67604073D01*
X171720618Y-67651692D01*
X171530141Y-67651692D01*
X171434903Y-67699311D01*
X171387284Y-67746930D01*
X171339665Y-67842168D01*
X171339665Y-68032644D01*
X171387284Y-68127882D01*
X171434903Y-68175501D01*
X171530141Y-68223120D01*
X171720618Y-68223120D01*
X171815856Y-68175501D01*
X171863475Y-68127882D01*
X171911094Y-68032644D01*
X171911094Y-67842168D01*
X171863475Y-67746930D01*
X171815856Y-67699311D01*
X171720618Y-67651692D01*
%TO.C,R22*%
X175789842Y-76651646D02*
X175456509Y-76175456D01*
X175218414Y-76651646D02*
X175218414Y-75651646D01*
X175599366Y-75651646D01*
X175694604Y-75699266D01*
X175742223Y-75746885D01*
X175789842Y-75842123D01*
X175789842Y-75984980D01*
X175742223Y-76080218D01*
X175694604Y-76127837D01*
X175599366Y-76175456D01*
X175218414Y-76175456D01*
X176170795Y-75746885D02*
X176218414Y-75699266D01*
X176313652Y-75651646D01*
X176551747Y-75651646D01*
X176646985Y-75699266D01*
X176694604Y-75746885D01*
X176742223Y-75842123D01*
X176742223Y-75937361D01*
X176694604Y-76080218D01*
X176123176Y-76651646D01*
X176742223Y-76651646D01*
X177123176Y-75746885D02*
X177170795Y-75699266D01*
X177266033Y-75651646D01*
X177504128Y-75651646D01*
X177599366Y-75699266D01*
X177646985Y-75746885D01*
X177694604Y-75842123D01*
X177694604Y-75937361D01*
X177646985Y-76080218D01*
X177075557Y-76651646D01*
X177694604Y-76651646D01*
%TO.C,R27*%
X175789842Y-80840780D02*
X175456509Y-80364590D01*
X175218414Y-80840780D02*
X175218414Y-79840780D01*
X175599366Y-79840780D01*
X175694604Y-79888400D01*
X175742223Y-79936019D01*
X175789842Y-80031257D01*
X175789842Y-80174114D01*
X175742223Y-80269352D01*
X175694604Y-80316971D01*
X175599366Y-80364590D01*
X175218414Y-80364590D01*
X176170795Y-79936019D02*
X176218414Y-79888400D01*
X176313652Y-79840780D01*
X176551747Y-79840780D01*
X176646985Y-79888400D01*
X176694604Y-79936019D01*
X176742223Y-80031257D01*
X176742223Y-80126495D01*
X176694604Y-80269352D01*
X176123176Y-80840780D01*
X176742223Y-80840780D01*
X177075557Y-79840780D02*
X177742223Y-79840780D01*
X177313652Y-80840780D01*
%TO.C,R9*%
X176266033Y-68273380D02*
X175932700Y-67797190D01*
X175694604Y-68273380D02*
X175694604Y-67273380D01*
X176075557Y-67273380D01*
X176170795Y-67321000D01*
X176218414Y-67368619D01*
X176266033Y-67463857D01*
X176266033Y-67606714D01*
X176218414Y-67701952D01*
X176170795Y-67749571D01*
X176075557Y-67797190D01*
X175694604Y-67797190D01*
X176742223Y-68273380D02*
X176932700Y-68273380D01*
X177027938Y-68225761D01*
X177075557Y-68178142D01*
X177170795Y-68035285D01*
X177218414Y-67844809D01*
X177218414Y-67463857D01*
X177170795Y-67368619D01*
X177123176Y-67321000D01*
X177027938Y-67273380D01*
X176837461Y-67273380D01*
X176742223Y-67321000D01*
X176694604Y-67368619D01*
X176646985Y-67463857D01*
X176646985Y-67701952D01*
X176694604Y-67797190D01*
X176742223Y-67844809D01*
X176837461Y-67892428D01*
X177027938Y-67892428D01*
X177123176Y-67844809D01*
X177170795Y-67797190D01*
X177218414Y-67701952D01*
%TO.C,R16*%
X175789842Y-72462513D02*
X175456509Y-71986323D01*
X175218414Y-72462513D02*
X175218414Y-71462513D01*
X175599366Y-71462513D01*
X175694604Y-71510133D01*
X175742223Y-71557752D01*
X175789842Y-71652990D01*
X175789842Y-71795847D01*
X175742223Y-71891085D01*
X175694604Y-71938704D01*
X175599366Y-71986323D01*
X175218414Y-71986323D01*
X176742223Y-72462513D02*
X176170795Y-72462513D01*
X176456509Y-72462513D02*
X176456509Y-71462513D01*
X176361271Y-71605371D01*
X176266033Y-71700609D01*
X176170795Y-71748228D01*
X177599366Y-71462513D02*
X177408890Y-71462513D01*
X177313652Y-71510133D01*
X177266033Y-71557752D01*
X177170795Y-71700609D01*
X177123176Y-71891085D01*
X177123176Y-72272037D01*
X177170795Y-72367275D01*
X177218414Y-72414894D01*
X177313652Y-72462513D01*
X177504128Y-72462513D01*
X177599366Y-72414894D01*
X177646985Y-72367275D01*
X177694604Y-72272037D01*
X177694604Y-72033942D01*
X177646985Y-71938704D01*
X177599366Y-71891085D01*
X177504128Y-71843466D01*
X177313652Y-71843466D01*
X177218414Y-71891085D01*
X177170795Y-71938704D01*
X177123176Y-72033942D01*
%TO.C,R29*%
X130571542Y-83536780D02*
X130238209Y-83060590D01*
X130000114Y-83536780D02*
X130000114Y-82536780D01*
X130381066Y-82536780D01*
X130476304Y-82584400D01*
X130523923Y-82632019D01*
X130571542Y-82727257D01*
X130571542Y-82870114D01*
X130523923Y-82965352D01*
X130476304Y-83012971D01*
X130381066Y-83060590D01*
X130000114Y-83060590D01*
X130952495Y-82632019D02*
X131000114Y-82584400D01*
X131095352Y-82536780D01*
X131333447Y-82536780D01*
X131428685Y-82584400D01*
X131476304Y-82632019D01*
X131523923Y-82727257D01*
X131523923Y-82822495D01*
X131476304Y-82965352D01*
X130904876Y-83536780D01*
X131523923Y-83536780D01*
X132000114Y-83536780D02*
X132190590Y-83536780D01*
X132285828Y-83489161D01*
X132333447Y-83441542D01*
X132428685Y-83298685D01*
X132476304Y-83108209D01*
X132476304Y-82727257D01*
X132428685Y-82632019D01*
X132381066Y-82584400D01*
X132285828Y-82536780D01*
X132095352Y-82536780D01*
X132000114Y-82584400D01*
X131952495Y-82632019D01*
X131904876Y-82727257D01*
X131904876Y-82965352D01*
X131952495Y-83060590D01*
X132000114Y-83108209D01*
X132095352Y-83155828D01*
X132285828Y-83155828D01*
X132381066Y-83108209D01*
X132428685Y-83060590D01*
X132476304Y-82965352D01*
%TO.C,R40*%
X130571542Y-96871300D02*
X130238209Y-96395110D01*
X130000114Y-96871300D02*
X130000114Y-95871300D01*
X130381066Y-95871300D01*
X130476304Y-95918920D01*
X130523923Y-95966539D01*
X130571542Y-96061777D01*
X130571542Y-96204634D01*
X130523923Y-96299872D01*
X130476304Y-96347491D01*
X130381066Y-96395110D01*
X130000114Y-96395110D01*
X131428685Y-96204634D02*
X131428685Y-96871300D01*
X131190590Y-95823681D02*
X130952495Y-96537967D01*
X131571542Y-96537967D01*
X132142971Y-95871300D02*
X132238209Y-95871300D01*
X132333447Y-95918920D01*
X132381066Y-95966539D01*
X132428685Y-96061777D01*
X132476304Y-96252253D01*
X132476304Y-96490348D01*
X132428685Y-96680824D01*
X132381066Y-96776062D01*
X132333447Y-96823681D01*
X132238209Y-96871300D01*
X132142971Y-96871300D01*
X132047733Y-96823681D01*
X132000114Y-96776062D01*
X131952495Y-96680824D01*
X131904876Y-96490348D01*
X131904876Y-96252253D01*
X131952495Y-96061777D01*
X132000114Y-95966539D01*
X132047733Y-95918920D01*
X132142971Y-95871300D01*
%TO.C,R41*%
X130571542Y-110205820D02*
X130238209Y-109729630D01*
X130000114Y-110205820D02*
X130000114Y-109205820D01*
X130381066Y-109205820D01*
X130476304Y-109253440D01*
X130523923Y-109301059D01*
X130571542Y-109396297D01*
X130571542Y-109539154D01*
X130523923Y-109634392D01*
X130476304Y-109682011D01*
X130381066Y-109729630D01*
X130000114Y-109729630D01*
X131428685Y-109539154D02*
X131428685Y-110205820D01*
X131190590Y-109158201D02*
X130952495Y-109872487D01*
X131571542Y-109872487D01*
X132476304Y-110205820D02*
X131904876Y-110205820D01*
X132190590Y-110205820D02*
X132190590Y-109205820D01*
X132095352Y-109348678D01*
X132000114Y-109443916D01*
X131904876Y-109491535D01*
%TO.C,R28*%
X112290180Y-82909017D02*
X111813990Y-83242350D01*
X112290180Y-83480445D02*
X111290180Y-83480445D01*
X111290180Y-83099493D01*
X111337800Y-83004255D01*
X111385419Y-82956636D01*
X111480657Y-82909017D01*
X111623514Y-82909017D01*
X111718752Y-82956636D01*
X111766371Y-83004255D01*
X111813990Y-83099493D01*
X111813990Y-83480445D01*
X111385419Y-82528064D02*
X111337800Y-82480445D01*
X111290180Y-82385207D01*
X111290180Y-82147112D01*
X111337800Y-82051874D01*
X111385419Y-82004255D01*
X111480657Y-81956636D01*
X111575895Y-81956636D01*
X111718752Y-82004255D01*
X112290180Y-82575683D01*
X112290180Y-81956636D01*
X111718752Y-81385207D02*
X111671133Y-81480445D01*
X111623514Y-81528064D01*
X111528276Y-81575683D01*
X111480657Y-81575683D01*
X111385419Y-81528064D01*
X111337800Y-81480445D01*
X111290180Y-81385207D01*
X111290180Y-81194731D01*
X111337800Y-81099493D01*
X111385419Y-81051874D01*
X111480657Y-81004255D01*
X111528276Y-81004255D01*
X111623514Y-81051874D01*
X111671133Y-81099493D01*
X111718752Y-81194731D01*
X111718752Y-81385207D01*
X111766371Y-81480445D01*
X111813990Y-81528064D01*
X111909228Y-81575683D01*
X112099704Y-81575683D01*
X112194942Y-81528064D01*
X112242561Y-81480445D01*
X112290180Y-81385207D01*
X112290180Y-81194731D01*
X112242561Y-81099493D01*
X112194942Y-81051874D01*
X112099704Y-81004255D01*
X111909228Y-81004255D01*
X111813990Y-81051874D01*
X111766371Y-81099493D01*
X111718752Y-81194731D01*
%TO.C,R10*%
X93517482Y-69074060D02*
X93184149Y-68597870D01*
X92946054Y-69074060D02*
X92946054Y-68074060D01*
X93327006Y-68074060D01*
X93422244Y-68121680D01*
X93469863Y-68169299D01*
X93517482Y-68264537D01*
X93517482Y-68407394D01*
X93469863Y-68502632D01*
X93422244Y-68550251D01*
X93327006Y-68597870D01*
X92946054Y-68597870D01*
X94469863Y-69074060D02*
X93898435Y-69074060D01*
X94184149Y-69074060D02*
X94184149Y-68074060D01*
X94088911Y-68216918D01*
X93993673Y-68312156D01*
X93898435Y-68359775D01*
X95088911Y-68074060D02*
X95184149Y-68074060D01*
X95279387Y-68121680D01*
X95327006Y-68169299D01*
X95374625Y-68264537D01*
X95422244Y-68455013D01*
X95422244Y-68693108D01*
X95374625Y-68883584D01*
X95327006Y-68978822D01*
X95279387Y-69026441D01*
X95184149Y-69074060D01*
X95088911Y-69074060D01*
X94993673Y-69026441D01*
X94946054Y-68978822D01*
X94898435Y-68883584D01*
X94850816Y-68693108D01*
X94850816Y-68455013D01*
X94898435Y-68264537D01*
X94946054Y-68169299D01*
X94993673Y-68121680D01*
X95088911Y-68074060D01*
%TO.C,R17*%
X93555582Y-73111620D02*
X93222249Y-72635430D01*
X92984154Y-73111620D02*
X92984154Y-72111620D01*
X93365106Y-72111620D01*
X93460344Y-72159240D01*
X93507963Y-72206859D01*
X93555582Y-72302097D01*
X93555582Y-72444954D01*
X93507963Y-72540192D01*
X93460344Y-72587811D01*
X93365106Y-72635430D01*
X92984154Y-72635430D01*
X94507963Y-73111620D02*
X93936535Y-73111620D01*
X94222249Y-73111620D02*
X94222249Y-72111620D01*
X94127011Y-72254478D01*
X94031773Y-72349716D01*
X93936535Y-72397335D01*
X94841297Y-72111620D02*
X95507963Y-72111620D01*
X95079392Y-73111620D01*
%TO.C,R5*%
X147483609Y-61202380D02*
X147150276Y-60726190D01*
X146912180Y-61202380D02*
X146912180Y-60202380D01*
X147293133Y-60202380D01*
X147388371Y-60250000D01*
X147435990Y-60297619D01*
X147483609Y-60392857D01*
X147483609Y-60535714D01*
X147435990Y-60630952D01*
X147388371Y-60678571D01*
X147293133Y-60726190D01*
X146912180Y-60726190D01*
X148388371Y-60202380D02*
X147912180Y-60202380D01*
X147864561Y-60678571D01*
X147912180Y-60630952D01*
X148007418Y-60583333D01*
X148245514Y-60583333D01*
X148340752Y-60630952D01*
X148388371Y-60678571D01*
X148435990Y-60773809D01*
X148435990Y-61011904D01*
X148388371Y-61107142D01*
X148340752Y-61154761D01*
X148245514Y-61202380D01*
X148007418Y-61202380D01*
X147912180Y-61154761D01*
X147864561Y-61107142D01*
%TO.C,R4*%
X136345833Y-61202380D02*
X136012500Y-60726190D01*
X135774404Y-61202380D02*
X135774404Y-60202380D01*
X136155357Y-60202380D01*
X136250595Y-60250000D01*
X136298214Y-60297619D01*
X136345833Y-60392857D01*
X136345833Y-60535714D01*
X136298214Y-60630952D01*
X136250595Y-60678571D01*
X136155357Y-60726190D01*
X135774404Y-60726190D01*
X137202976Y-60535714D02*
X137202976Y-61202380D01*
X136964880Y-60154761D02*
X136726785Y-60869047D01*
X137345833Y-60869047D01*
%TO.C,R3*%
X110640833Y-56777880D02*
X110307500Y-56301690D01*
X110069404Y-56777880D02*
X110069404Y-55777880D01*
X110450357Y-55777880D01*
X110545595Y-55825500D01*
X110593214Y-55873119D01*
X110640833Y-55968357D01*
X110640833Y-56111214D01*
X110593214Y-56206452D01*
X110545595Y-56254071D01*
X110450357Y-56301690D01*
X110069404Y-56301690D01*
X110974166Y-55777880D02*
X111593214Y-55777880D01*
X111259880Y-56158833D01*
X111402738Y-56158833D01*
X111497976Y-56206452D01*
X111545595Y-56254071D01*
X111593214Y-56349309D01*
X111593214Y-56587404D01*
X111545595Y-56682642D01*
X111497976Y-56730261D01*
X111402738Y-56777880D01*
X111117023Y-56777880D01*
X111021785Y-56730261D01*
X110974166Y-56682642D01*
%TO.C,R2*%
X105907583Y-56777880D02*
X105574250Y-56301690D01*
X105336154Y-56777880D02*
X105336154Y-55777880D01*
X105717107Y-55777880D01*
X105812345Y-55825500D01*
X105859964Y-55873119D01*
X105907583Y-55968357D01*
X105907583Y-56111214D01*
X105859964Y-56206452D01*
X105812345Y-56254071D01*
X105717107Y-56301690D01*
X105336154Y-56301690D01*
X106288535Y-55873119D02*
X106336154Y-55825500D01*
X106431392Y-55777880D01*
X106669488Y-55777880D01*
X106764726Y-55825500D01*
X106812345Y-55873119D01*
X106859964Y-55968357D01*
X106859964Y-56063595D01*
X106812345Y-56206452D01*
X106240916Y-56777880D01*
X106859964Y-56777880D01*
%TO.C,R1*%
X101174333Y-56777880D02*
X100841000Y-56301690D01*
X100602904Y-56777880D02*
X100602904Y-55777880D01*
X100983857Y-55777880D01*
X101079095Y-55825500D01*
X101126714Y-55873119D01*
X101174333Y-55968357D01*
X101174333Y-56111214D01*
X101126714Y-56206452D01*
X101079095Y-56254071D01*
X100983857Y-56301690D01*
X100602904Y-56301690D01*
X102126714Y-56777880D02*
X101555285Y-56777880D01*
X101841000Y-56777880D02*
X101841000Y-55777880D01*
X101745761Y-55920738D01*
X101650523Y-56015976D01*
X101555285Y-56063595D01*
%TO.C,R34*%
X114308880Y-88007357D02*
X113832690Y-88340690D01*
X114308880Y-88578785D02*
X113308880Y-88578785D01*
X113308880Y-88197833D01*
X113356500Y-88102595D01*
X113404119Y-88054976D01*
X113499357Y-88007357D01*
X113642214Y-88007357D01*
X113737452Y-88054976D01*
X113785071Y-88102595D01*
X113832690Y-88197833D01*
X113832690Y-88578785D01*
X113308880Y-87674023D02*
X113308880Y-87054976D01*
X113689833Y-87388309D01*
X113689833Y-87245452D01*
X113737452Y-87150214D01*
X113785071Y-87102595D01*
X113880309Y-87054976D01*
X114118404Y-87054976D01*
X114213642Y-87102595D01*
X114261261Y-87150214D01*
X114308880Y-87245452D01*
X114308880Y-87531166D01*
X114261261Y-87626404D01*
X114213642Y-87674023D01*
X113642214Y-86197833D02*
X114308880Y-86197833D01*
X113261261Y-86435928D02*
X113975547Y-86674023D01*
X113975547Y-86054976D01*
%TO.C,R35*%
X117843713Y-88007357D02*
X117367523Y-88340690D01*
X117843713Y-88578785D02*
X116843713Y-88578785D01*
X116843713Y-88197833D01*
X116891333Y-88102595D01*
X116938952Y-88054976D01*
X117034190Y-88007357D01*
X117177047Y-88007357D01*
X117272285Y-88054976D01*
X117319904Y-88102595D01*
X117367523Y-88197833D01*
X117367523Y-88578785D01*
X116843713Y-87674023D02*
X116843713Y-87054976D01*
X117224666Y-87388309D01*
X117224666Y-87245452D01*
X117272285Y-87150214D01*
X117319904Y-87102595D01*
X117415142Y-87054976D01*
X117653237Y-87054976D01*
X117748475Y-87102595D01*
X117796094Y-87150214D01*
X117843713Y-87245452D01*
X117843713Y-87531166D01*
X117796094Y-87626404D01*
X117748475Y-87674023D01*
X116843713Y-86150214D02*
X116843713Y-86626404D01*
X117319904Y-86674023D01*
X117272285Y-86626404D01*
X117224666Y-86531166D01*
X117224666Y-86293071D01*
X117272285Y-86197833D01*
X117319904Y-86150214D01*
X117415142Y-86102595D01*
X117653237Y-86102595D01*
X117748475Y-86150214D01*
X117796094Y-86197833D01*
X117843713Y-86293071D01*
X117843713Y-86531166D01*
X117796094Y-86626404D01*
X117748475Y-86674023D01*
%TO.C,R36*%
X121378546Y-88007357D02*
X120902356Y-88340690D01*
X121378546Y-88578785D02*
X120378546Y-88578785D01*
X120378546Y-88197833D01*
X120426166Y-88102595D01*
X120473785Y-88054976D01*
X120569023Y-88007357D01*
X120711880Y-88007357D01*
X120807118Y-88054976D01*
X120854737Y-88102595D01*
X120902356Y-88197833D01*
X120902356Y-88578785D01*
X120378546Y-87674023D02*
X120378546Y-87054976D01*
X120759499Y-87388309D01*
X120759499Y-87245452D01*
X120807118Y-87150214D01*
X120854737Y-87102595D01*
X120949975Y-87054976D01*
X121188070Y-87054976D01*
X121283308Y-87102595D01*
X121330927Y-87150214D01*
X121378546Y-87245452D01*
X121378546Y-87531166D01*
X121330927Y-87626404D01*
X121283308Y-87674023D01*
X120378546Y-86197833D02*
X120378546Y-86388309D01*
X120426166Y-86483547D01*
X120473785Y-86531166D01*
X120616642Y-86626404D01*
X120807118Y-86674023D01*
X121188070Y-86674023D01*
X121283308Y-86626404D01*
X121330927Y-86578785D01*
X121378546Y-86483547D01*
X121378546Y-86293071D01*
X121330927Y-86197833D01*
X121283308Y-86150214D01*
X121188070Y-86102595D01*
X120949975Y-86102595D01*
X120854737Y-86150214D01*
X120807118Y-86197833D01*
X120759499Y-86293071D01*
X120759499Y-86483547D01*
X120807118Y-86578785D01*
X120854737Y-86626404D01*
X120949975Y-86674023D01*
%TO.C,R37*%
X124913380Y-88007357D02*
X124437190Y-88340690D01*
X124913380Y-88578785D02*
X123913380Y-88578785D01*
X123913380Y-88197833D01*
X123961000Y-88102595D01*
X124008619Y-88054976D01*
X124103857Y-88007357D01*
X124246714Y-88007357D01*
X124341952Y-88054976D01*
X124389571Y-88102595D01*
X124437190Y-88197833D01*
X124437190Y-88578785D01*
X123913380Y-87674023D02*
X123913380Y-87054976D01*
X124294333Y-87388309D01*
X124294333Y-87245452D01*
X124341952Y-87150214D01*
X124389571Y-87102595D01*
X124484809Y-87054976D01*
X124722904Y-87054976D01*
X124818142Y-87102595D01*
X124865761Y-87150214D01*
X124913380Y-87245452D01*
X124913380Y-87531166D01*
X124865761Y-87626404D01*
X124818142Y-87674023D01*
X123913380Y-86721642D02*
X123913380Y-86054976D01*
X124913380Y-86483547D01*
%TO.C,L1*%
X176429373Y-99591120D02*
X175953182Y-99591120D01*
X175953182Y-98591120D01*
X177286516Y-99591120D02*
X176715087Y-99591120D01*
X177000801Y-99591120D02*
X177000801Y-98591120D01*
X176905563Y-98733978D01*
X176810325Y-98829216D01*
X176715087Y-98876835D01*
%TO.C,C4*%
X140587613Y-66786882D02*
X140539994Y-66834501D01*
X140397137Y-66882120D01*
X140301899Y-66882120D01*
X140159041Y-66834501D01*
X140063803Y-66739263D01*
X140016184Y-66644025D01*
X139968565Y-66453549D01*
X139968565Y-66310692D01*
X140016184Y-66120216D01*
X140063803Y-66024978D01*
X140159041Y-65929740D01*
X140301899Y-65882120D01*
X140397137Y-65882120D01*
X140539994Y-65929740D01*
X140587613Y-65977359D01*
X141444756Y-66215454D02*
X141444756Y-66882120D01*
X141206660Y-65834501D02*
X140968565Y-66548787D01*
X141587613Y-66548787D01*
%TO.C,C13*%
X140111422Y-87346882D02*
X140063803Y-87394501D01*
X139920946Y-87442120D01*
X139825708Y-87442120D01*
X139682851Y-87394501D01*
X139587613Y-87299263D01*
X139539994Y-87204025D01*
X139492375Y-87013549D01*
X139492375Y-86870692D01*
X139539994Y-86680216D01*
X139587613Y-86584978D01*
X139682851Y-86489740D01*
X139825708Y-86442120D01*
X139920946Y-86442120D01*
X140063803Y-86489740D01*
X140111422Y-86537359D01*
X141063803Y-87442120D02*
X140492375Y-87442120D01*
X140778089Y-87442120D02*
X140778089Y-86442120D01*
X140682851Y-86584978D01*
X140587613Y-86680216D01*
X140492375Y-86727835D01*
X141397137Y-86442120D02*
X142016184Y-86442120D01*
X141682851Y-86823073D01*
X141825708Y-86823073D01*
X141920946Y-86870692D01*
X141968565Y-86918311D01*
X142016184Y-87013549D01*
X142016184Y-87251644D01*
X141968565Y-87346882D01*
X141920946Y-87394501D01*
X141825708Y-87442120D01*
X141539994Y-87442120D01*
X141444756Y-87394501D01*
X141397137Y-87346882D01*
%TO.C,C5*%
X156650113Y-66786882D02*
X156602494Y-66834501D01*
X156459637Y-66882120D01*
X156364399Y-66882120D01*
X156221541Y-66834501D01*
X156126303Y-66739263D01*
X156078684Y-66644025D01*
X156031065Y-66453549D01*
X156031065Y-66310692D01*
X156078684Y-66120216D01*
X156126303Y-66024978D01*
X156221541Y-65929740D01*
X156364399Y-65882120D01*
X156459637Y-65882120D01*
X156602494Y-65929740D01*
X156650113Y-65977359D01*
X157554875Y-65882120D02*
X157078684Y-65882120D01*
X157031065Y-66358311D01*
X157078684Y-66310692D01*
X157173922Y-66263073D01*
X157412018Y-66263073D01*
X157507256Y-66310692D01*
X157554875Y-66358311D01*
X157602494Y-66453549D01*
X157602494Y-66691644D01*
X157554875Y-66786882D01*
X157507256Y-66834501D01*
X157412018Y-66882120D01*
X157173922Y-66882120D01*
X157078684Y-66834501D01*
X157031065Y-66786882D01*
%TO.C,C14*%
X156173922Y-87346882D02*
X156126303Y-87394501D01*
X155983446Y-87442120D01*
X155888208Y-87442120D01*
X155745351Y-87394501D01*
X155650113Y-87299263D01*
X155602494Y-87204025D01*
X155554875Y-87013549D01*
X155554875Y-86870692D01*
X155602494Y-86680216D01*
X155650113Y-86584978D01*
X155745351Y-86489740D01*
X155888208Y-86442120D01*
X155983446Y-86442120D01*
X156126303Y-86489740D01*
X156173922Y-86537359D01*
X157126303Y-87442120D02*
X156554875Y-87442120D01*
X156840589Y-87442120D02*
X156840589Y-86442120D01*
X156745351Y-86584978D01*
X156650113Y-86680216D01*
X156554875Y-86727835D01*
X157983446Y-86775454D02*
X157983446Y-87442120D01*
X157745351Y-86394501D02*
X157507256Y-87108787D01*
X158126303Y-87108787D01*
%TO.C,C19*%
X183781462Y-98243662D02*
X183733843Y-98291281D01*
X183590986Y-98338900D01*
X183495748Y-98338900D01*
X183352891Y-98291281D01*
X183257653Y-98196043D01*
X183210034Y-98100805D01*
X183162415Y-97910329D01*
X183162415Y-97767472D01*
X183210034Y-97576996D01*
X183257653Y-97481758D01*
X183352891Y-97386520D01*
X183495748Y-97338900D01*
X183590986Y-97338900D01*
X183733843Y-97386520D01*
X183781462Y-97434139D01*
X184733843Y-98338900D02*
X184162415Y-98338900D01*
X184448129Y-98338900D02*
X184448129Y-97338900D01*
X184352891Y-97481758D01*
X184257653Y-97576996D01*
X184162415Y-97624615D01*
X185210034Y-98338900D02*
X185400510Y-98338900D01*
X185495748Y-98291281D01*
X185543367Y-98243662D01*
X185638605Y-98100805D01*
X185686224Y-97910329D01*
X185686224Y-97529377D01*
X185638605Y-97434139D01*
X185590986Y-97386520D01*
X185495748Y-97338900D01*
X185305272Y-97338900D01*
X185210034Y-97386520D01*
X185162415Y-97434139D01*
X185114796Y-97529377D01*
X185114796Y-97767472D01*
X185162415Y-97862710D01*
X185210034Y-97910329D01*
X185305272Y-97957948D01*
X185495748Y-97957948D01*
X185590986Y-97910329D01*
X185638605Y-97862710D01*
X185686224Y-97767472D01*
%TO.C,C18*%
X148587222Y-98170002D02*
X148539603Y-98217621D01*
X148396746Y-98265240D01*
X148301508Y-98265240D01*
X148158651Y-98217621D01*
X148063413Y-98122383D01*
X148015794Y-98027145D01*
X147968175Y-97836669D01*
X147968175Y-97693812D01*
X148015794Y-97503336D01*
X148063413Y-97408098D01*
X148158651Y-97312860D01*
X148301508Y-97265240D01*
X148396746Y-97265240D01*
X148539603Y-97312860D01*
X148587222Y-97360479D01*
X149539603Y-98265240D02*
X148968175Y-98265240D01*
X149253889Y-98265240D02*
X149253889Y-97265240D01*
X149158651Y-97408098D01*
X149063413Y-97503336D01*
X148968175Y-97550955D01*
X150111032Y-97693812D02*
X150015794Y-97646193D01*
X149968175Y-97598574D01*
X149920556Y-97503336D01*
X149920556Y-97455717D01*
X149968175Y-97360479D01*
X150015794Y-97312860D01*
X150111032Y-97265240D01*
X150301508Y-97265240D01*
X150396746Y-97312860D01*
X150444365Y-97360479D01*
X150491984Y-97455717D01*
X150491984Y-97503336D01*
X150444365Y-97598574D01*
X150396746Y-97646193D01*
X150301508Y-97693812D01*
X150111032Y-97693812D01*
X150015794Y-97741431D01*
X149968175Y-97789050D01*
X149920556Y-97884288D01*
X149920556Y-98074764D01*
X149968175Y-98170002D01*
X150015794Y-98217621D01*
X150111032Y-98265240D01*
X150301508Y-98265240D01*
X150396746Y-98217621D01*
X150444365Y-98170002D01*
X150491984Y-98074764D01*
X150491984Y-97884288D01*
X150444365Y-97789050D01*
X150396746Y-97741431D01*
X150301508Y-97693812D01*
%TO.C,C7*%
X115743733Y-74216742D02*
X115696114Y-74264361D01*
X115553257Y-74311980D01*
X115458019Y-74311980D01*
X115315161Y-74264361D01*
X115219923Y-74169123D01*
X115172304Y-74073885D01*
X115124685Y-73883409D01*
X115124685Y-73740552D01*
X115172304Y-73550076D01*
X115219923Y-73454838D01*
X115315161Y-73359600D01*
X115458019Y-73311980D01*
X115553257Y-73311980D01*
X115696114Y-73359600D01*
X115743733Y-73407219D01*
X116077066Y-73311980D02*
X116743733Y-73311980D01*
X116315161Y-74311980D01*
%TO.C,C15*%
X181938302Y-95105277D02*
X181985921Y-95152896D01*
X182033540Y-95295753D01*
X182033540Y-95390991D01*
X181985921Y-95533848D01*
X181890683Y-95629086D01*
X181795445Y-95676705D01*
X181604969Y-95724324D01*
X181462112Y-95724324D01*
X181271636Y-95676705D01*
X181176398Y-95629086D01*
X181081160Y-95533848D01*
X181033540Y-95390991D01*
X181033540Y-95295753D01*
X181081160Y-95152896D01*
X181128779Y-95105277D01*
X182033540Y-94152896D02*
X182033540Y-94724324D01*
X182033540Y-94438610D02*
X181033540Y-94438610D01*
X181176398Y-94533848D01*
X181271636Y-94629086D01*
X181319255Y-94724324D01*
X181033540Y-93248134D02*
X181033540Y-93724324D01*
X181509731Y-93771943D01*
X181462112Y-93724324D01*
X181414493Y-93629086D01*
X181414493Y-93390991D01*
X181462112Y-93295753D01*
X181509731Y-93248134D01*
X181604969Y-93200515D01*
X181843064Y-93200515D01*
X181938302Y-93248134D01*
X181985921Y-93295753D01*
X182033540Y-93390991D01*
X182033540Y-93629086D01*
X181985921Y-93724324D01*
X181938302Y-93771943D01*
%TO.C,C8*%
X131627142Y-79866666D02*
X131674761Y-79914285D01*
X131722380Y-80057142D01*
X131722380Y-80152380D01*
X131674761Y-80295238D01*
X131579523Y-80390476D01*
X131484285Y-80438095D01*
X131293809Y-80485714D01*
X131150952Y-80485714D01*
X130960476Y-80438095D01*
X130865238Y-80390476D01*
X130770000Y-80295238D01*
X130722380Y-80152380D01*
X130722380Y-80057142D01*
X130770000Y-79914285D01*
X130817619Y-79866666D01*
X131150952Y-79295238D02*
X131103333Y-79390476D01*
X131055714Y-79438095D01*
X130960476Y-79485714D01*
X130912857Y-79485714D01*
X130817619Y-79438095D01*
X130770000Y-79390476D01*
X130722380Y-79295238D01*
X130722380Y-79104761D01*
X130770000Y-79009523D01*
X130817619Y-78961904D01*
X130912857Y-78914285D01*
X130960476Y-78914285D01*
X131055714Y-78961904D01*
X131103333Y-79009523D01*
X131150952Y-79104761D01*
X131150952Y-79295238D01*
X131198571Y-79390476D01*
X131246190Y-79438095D01*
X131341428Y-79485714D01*
X131531904Y-79485714D01*
X131627142Y-79438095D01*
X131674761Y-79390476D01*
X131722380Y-79295238D01*
X131722380Y-79104761D01*
X131674761Y-79009523D01*
X131627142Y-78961904D01*
X131531904Y-78914285D01*
X131341428Y-78914285D01*
X131246190Y-78961904D01*
X131198571Y-79009523D01*
X131150952Y-79104761D01*
%TO.C,C1*%
X155905753Y-60613702D02*
X155858134Y-60661321D01*
X155715277Y-60708940D01*
X155620039Y-60708940D01*
X155477181Y-60661321D01*
X155381943Y-60566083D01*
X155334324Y-60470845D01*
X155286705Y-60280369D01*
X155286705Y-60137512D01*
X155334324Y-59947036D01*
X155381943Y-59851798D01*
X155477181Y-59756560D01*
X155620039Y-59708940D01*
X155715277Y-59708940D01*
X155858134Y-59756560D01*
X155905753Y-59804179D01*
X156858134Y-60708940D02*
X156286705Y-60708940D01*
X156572420Y-60708940D02*
X156572420Y-59708940D01*
X156477181Y-59851798D01*
X156381943Y-59947036D01*
X156286705Y-59994655D01*
%TO.C,C2*%
X141914721Y-61077142D02*
X141867102Y-61124761D01*
X141724245Y-61172380D01*
X141629007Y-61172380D01*
X141486149Y-61124761D01*
X141390911Y-61029523D01*
X141343292Y-60934285D01*
X141295673Y-60743809D01*
X141295673Y-60600952D01*
X141343292Y-60410476D01*
X141390911Y-60315238D01*
X141486149Y-60220000D01*
X141629007Y-60172380D01*
X141724245Y-60172380D01*
X141867102Y-60220000D01*
X141914721Y-60267619D01*
X142295673Y-60267619D02*
X142343292Y-60220000D01*
X142438530Y-60172380D01*
X142676626Y-60172380D01*
X142771864Y-60220000D01*
X142819483Y-60267619D01*
X142867102Y-60362857D01*
X142867102Y-60458095D01*
X142819483Y-60600952D01*
X142248054Y-61172380D01*
X142867102Y-61172380D01*
%TO.C,C3*%
X155904919Y-62763702D02*
X155857300Y-62811321D01*
X155714443Y-62858940D01*
X155619205Y-62858940D01*
X155476347Y-62811321D01*
X155381109Y-62716083D01*
X155333490Y-62620845D01*
X155285871Y-62430369D01*
X155285871Y-62287512D01*
X155333490Y-62097036D01*
X155381109Y-62001798D01*
X155476347Y-61906560D01*
X155619205Y-61858940D01*
X155714443Y-61858940D01*
X155857300Y-61906560D01*
X155904919Y-61954179D01*
X156238252Y-61858940D02*
X156857300Y-61858940D01*
X156523966Y-62239893D01*
X156666824Y-62239893D01*
X156762062Y-62287512D01*
X156809681Y-62335131D01*
X156857300Y-62430369D01*
X156857300Y-62668464D01*
X156809681Y-62763702D01*
X156762062Y-62811321D01*
X156666824Y-62858940D01*
X156381109Y-62858940D01*
X156285871Y-62811321D01*
X156238252Y-62763702D01*
%TO.C,C11*%
X134688342Y-83386142D02*
X134640723Y-83433761D01*
X134497866Y-83481380D01*
X134402628Y-83481380D01*
X134259771Y-83433761D01*
X134164533Y-83338523D01*
X134116914Y-83243285D01*
X134069295Y-83052809D01*
X134069295Y-82909952D01*
X134116914Y-82719476D01*
X134164533Y-82624238D01*
X134259771Y-82529000D01*
X134402628Y-82481380D01*
X134497866Y-82481380D01*
X134640723Y-82529000D01*
X134688342Y-82576619D01*
X135640723Y-83481380D02*
X135069295Y-83481380D01*
X135355009Y-83481380D02*
X135355009Y-82481380D01*
X135259771Y-82624238D01*
X135164533Y-82719476D01*
X135069295Y-82767095D01*
X136593104Y-83481380D02*
X136021676Y-83481380D01*
X136307390Y-83481380D02*
X136307390Y-82481380D01*
X136212152Y-82624238D01*
X136116914Y-82719476D01*
X136021676Y-82767095D01*
%TO.C,C17*%
X134688342Y-96721142D02*
X134640723Y-96768761D01*
X134497866Y-96816380D01*
X134402628Y-96816380D01*
X134259771Y-96768761D01*
X134164533Y-96673523D01*
X134116914Y-96578285D01*
X134069295Y-96387809D01*
X134069295Y-96244952D01*
X134116914Y-96054476D01*
X134164533Y-95959238D01*
X134259771Y-95864000D01*
X134402628Y-95816380D01*
X134497866Y-95816380D01*
X134640723Y-95864000D01*
X134688342Y-95911619D01*
X135640723Y-96816380D02*
X135069295Y-96816380D01*
X135355009Y-96816380D02*
X135355009Y-95816380D01*
X135259771Y-95959238D01*
X135164533Y-96054476D01*
X135069295Y-96102095D01*
X135974057Y-95816380D02*
X136640723Y-95816380D01*
X136212152Y-96816380D01*
%TO.C,C20*%
X134688342Y-110056142D02*
X134640723Y-110103761D01*
X134497866Y-110151380D01*
X134402628Y-110151380D01*
X134259771Y-110103761D01*
X134164533Y-110008523D01*
X134116914Y-109913285D01*
X134069295Y-109722809D01*
X134069295Y-109579952D01*
X134116914Y-109389476D01*
X134164533Y-109294238D01*
X134259771Y-109199000D01*
X134402628Y-109151380D01*
X134497866Y-109151380D01*
X134640723Y-109199000D01*
X134688342Y-109246619D01*
X135069295Y-109246619D02*
X135116914Y-109199000D01*
X135212152Y-109151380D01*
X135450247Y-109151380D01*
X135545485Y-109199000D01*
X135593104Y-109246619D01*
X135640723Y-109341857D01*
X135640723Y-109437095D01*
X135593104Y-109579952D01*
X135021676Y-110151380D01*
X135640723Y-110151380D01*
X136259771Y-109151380D02*
X136355009Y-109151380D01*
X136450247Y-109199000D01*
X136497866Y-109246619D01*
X136545485Y-109341857D01*
X136593104Y-109532333D01*
X136593104Y-109770428D01*
X136545485Y-109960904D01*
X136497866Y-110056142D01*
X136450247Y-110103761D01*
X136355009Y-110151380D01*
X136259771Y-110151380D01*
X136164533Y-110103761D01*
X136116914Y-110056142D01*
X136069295Y-109960904D01*
X136021676Y-109770428D01*
X136021676Y-109532333D01*
X136069295Y-109341857D01*
X136116914Y-109246619D01*
X136164533Y-109199000D01*
X136259771Y-109151380D01*
%TO.C,C21*%
X125437662Y-116211622D02*
X125390043Y-116259241D01*
X125247186Y-116306860D01*
X125151948Y-116306860D01*
X125009091Y-116259241D01*
X124913853Y-116164003D01*
X124866234Y-116068765D01*
X124818615Y-115878289D01*
X124818615Y-115735432D01*
X124866234Y-115544956D01*
X124913853Y-115449718D01*
X125009091Y-115354480D01*
X125151948Y-115306860D01*
X125247186Y-115306860D01*
X125390043Y-115354480D01*
X125437662Y-115402099D01*
X125818615Y-115402099D02*
X125866234Y-115354480D01*
X125961472Y-115306860D01*
X126199567Y-115306860D01*
X126294805Y-115354480D01*
X126342424Y-115402099D01*
X126390043Y-115497337D01*
X126390043Y-115592575D01*
X126342424Y-115735432D01*
X125770996Y-116306860D01*
X126390043Y-116306860D01*
X127342424Y-116306860D02*
X126770996Y-116306860D01*
X127056710Y-116306860D02*
X127056710Y-115306860D01*
X126961472Y-115449718D01*
X126866234Y-115544956D01*
X126770996Y-115592575D01*
%TO.C,C12*%
X166841442Y-89136457D02*
X166889061Y-89184076D01*
X166936680Y-89326933D01*
X166936680Y-89422171D01*
X166889061Y-89565028D01*
X166793823Y-89660266D01*
X166698585Y-89707885D01*
X166508109Y-89755504D01*
X166365252Y-89755504D01*
X166174776Y-89707885D01*
X166079538Y-89660266D01*
X165984300Y-89565028D01*
X165936680Y-89422171D01*
X165936680Y-89326933D01*
X165984300Y-89184076D01*
X166031919Y-89136457D01*
X166936680Y-88184076D02*
X166936680Y-88755504D01*
X166936680Y-88469790D02*
X165936680Y-88469790D01*
X166079538Y-88565028D01*
X166174776Y-88660266D01*
X166222395Y-88755504D01*
X166031919Y-87803123D02*
X165984300Y-87755504D01*
X165936680Y-87660266D01*
X165936680Y-87422171D01*
X165984300Y-87326933D01*
X166031919Y-87279314D01*
X166127157Y-87231695D01*
X166222395Y-87231695D01*
X166365252Y-87279314D01*
X166936680Y-87850742D01*
X166936680Y-87231695D01*
%TO.C,U4*%
X173337315Y-85405980D02*
X173337315Y-86215504D01*
X173384934Y-86310742D01*
X173432553Y-86358361D01*
X173527791Y-86405980D01*
X173718267Y-86405980D01*
X173813505Y-86358361D01*
X173861124Y-86310742D01*
X173908743Y-86215504D01*
X173908743Y-85405980D01*
X174813505Y-85739314D02*
X174813505Y-86405980D01*
X174575410Y-85358361D02*
X174337315Y-86072647D01*
X174956362Y-86072647D01*
%TO.C,J9*%
X140766206Y-114748060D02*
X140766206Y-115462346D01*
X140718587Y-115605203D01*
X140623349Y-115700441D01*
X140480492Y-115748060D01*
X140385254Y-115748060D01*
X141290016Y-115748060D02*
X141480492Y-115748060D01*
X141575730Y-115700441D01*
X141623349Y-115652822D01*
X141718587Y-115509965D01*
X141766206Y-115319489D01*
X141766206Y-114938537D01*
X141718587Y-114843299D01*
X141670968Y-114795680D01*
X141575730Y-114748060D01*
X141385254Y-114748060D01*
X141290016Y-114795680D01*
X141242397Y-114843299D01*
X141194778Y-114938537D01*
X141194778Y-115176632D01*
X141242397Y-115271870D01*
X141290016Y-115319489D01*
X141385254Y-115367108D01*
X141575730Y-115367108D01*
X141670968Y-115319489D01*
X141718587Y-115271870D01*
X141766206Y-115176632D01*
%TO.C,J1*%
X158817060Y-55072873D02*
X159531346Y-55072873D01*
X159674203Y-55120492D01*
X159769441Y-55215730D01*
X159817060Y-55358587D01*
X159817060Y-55453825D01*
X159817060Y-54072873D02*
X159817060Y-54644301D01*
X159817060Y-54358587D02*
X158817060Y-54358587D01*
X158959918Y-54453825D01*
X159055156Y-54549063D01*
X159102775Y-54644301D01*
%TO.C,J7*%
X94503820Y-113906593D02*
X95218106Y-113906593D01*
X95360963Y-113954212D01*
X95456201Y-114049450D01*
X95503820Y-114192307D01*
X95503820Y-114287545D01*
X94503820Y-113525640D02*
X94503820Y-112858974D01*
X95503820Y-113287545D01*
%TO.C,J5*%
X102578920Y-91397413D02*
X103293206Y-91397413D01*
X103436063Y-91445032D01*
X103531301Y-91540270D01*
X103578920Y-91683127D01*
X103578920Y-91778365D01*
X102578920Y-90445032D02*
X102578920Y-90921222D01*
X103055111Y-90968841D01*
X103007492Y-90921222D01*
X102959873Y-90825984D01*
X102959873Y-90587889D01*
X103007492Y-90492651D01*
X103055111Y-90445032D01*
X103150349Y-90397413D01*
X103388444Y-90397413D01*
X103483682Y-90445032D01*
X103531301Y-90492651D01*
X103578920Y-90587889D01*
X103578920Y-90825984D01*
X103531301Y-90921222D01*
X103483682Y-90968841D01*
%TO.C,SW1*%
X135403221Y-56494513D02*
X135450840Y-56351656D01*
X135450840Y-56113560D01*
X135403221Y-56018322D01*
X135355602Y-55970703D01*
X135260364Y-55923084D01*
X135165126Y-55923084D01*
X135069888Y-55970703D01*
X135022269Y-56018322D01*
X134974650Y-56113560D01*
X134927031Y-56304037D01*
X134879412Y-56399275D01*
X134831793Y-56446894D01*
X134736555Y-56494513D01*
X134641317Y-56494513D01*
X134546079Y-56446894D01*
X134498460Y-56399275D01*
X134450840Y-56304037D01*
X134450840Y-56065941D01*
X134498460Y-55923084D01*
X134450840Y-55589751D02*
X135450840Y-55351656D01*
X134736555Y-55161180D01*
X135450840Y-54970703D01*
X134450840Y-54732608D01*
X135450840Y-53827846D02*
X135450840Y-54399275D01*
X135450840Y-54113560D02*
X134450840Y-54113560D01*
X134593698Y-54208799D01*
X134688936Y-54304037D01*
X134736555Y-54399275D01*
%TO.C,SW2*%
X145903581Y-56474193D02*
X145951200Y-56331336D01*
X145951200Y-56093240D01*
X145903581Y-55998002D01*
X145855962Y-55950383D01*
X145760724Y-55902764D01*
X145665486Y-55902764D01*
X145570248Y-55950383D01*
X145522629Y-55998002D01*
X145475010Y-56093240D01*
X145427391Y-56283717D01*
X145379772Y-56378955D01*
X145332153Y-56426574D01*
X145236915Y-56474193D01*
X145141677Y-56474193D01*
X145046439Y-56426574D01*
X144998820Y-56378955D01*
X144951200Y-56283717D01*
X144951200Y-56045621D01*
X144998820Y-55902764D01*
X144951200Y-55569431D02*
X145951200Y-55331336D01*
X145236915Y-55140860D01*
X145951200Y-54950383D01*
X144951200Y-54712288D01*
X145046439Y-54378955D02*
X144998820Y-54331336D01*
X144951200Y-54236098D01*
X144951200Y-53998002D01*
X144998820Y-53902764D01*
X145046439Y-53855145D01*
X145141677Y-53807526D01*
X145236915Y-53807526D01*
X145379772Y-53855145D01*
X145951200Y-54426574D01*
X145951200Y-53807526D01*
%TO.C,SW3*%
X129239661Y-92087293D02*
X129287280Y-91944436D01*
X129287280Y-91706340D01*
X129239661Y-91611102D01*
X129192042Y-91563483D01*
X129096804Y-91515864D01*
X129001566Y-91515864D01*
X128906328Y-91563483D01*
X128858709Y-91611102D01*
X128811090Y-91706340D01*
X128763471Y-91896817D01*
X128715852Y-91992055D01*
X128668233Y-92039674D01*
X128572995Y-92087293D01*
X128477757Y-92087293D01*
X128382519Y-92039674D01*
X128334900Y-91992055D01*
X128287280Y-91896817D01*
X128287280Y-91658721D01*
X128334900Y-91515864D01*
X128287280Y-91182531D02*
X129287280Y-90944436D01*
X128572995Y-90753960D01*
X129287280Y-90563483D01*
X128287280Y-90325388D01*
X128287280Y-90039674D02*
X128287280Y-89420626D01*
X128668233Y-89753960D01*
X128668233Y-89611102D01*
X128715852Y-89515864D01*
X128763471Y-89468245D01*
X128858709Y-89420626D01*
X129096804Y-89420626D01*
X129192042Y-89468245D01*
X129239661Y-89515864D01*
X129287280Y-89611102D01*
X129287280Y-89896817D01*
X129239661Y-89992055D01*
X129192042Y-90039674D01*
%TO.C,SW4*%
X129251161Y-105410313D02*
X129298780Y-105267456D01*
X129298780Y-105029360D01*
X129251161Y-104934122D01*
X129203542Y-104886503D01*
X129108304Y-104838884D01*
X129013066Y-104838884D01*
X128917828Y-104886503D01*
X128870209Y-104934122D01*
X128822590Y-105029360D01*
X128774971Y-105219837D01*
X128727352Y-105315075D01*
X128679733Y-105362694D01*
X128584495Y-105410313D01*
X128489257Y-105410313D01*
X128394019Y-105362694D01*
X128346400Y-105315075D01*
X128298780Y-105219837D01*
X128298780Y-104981741D01*
X128346400Y-104838884D01*
X128298780Y-104505551D02*
X129298780Y-104267456D01*
X128584495Y-104076980D01*
X129298780Y-103886503D01*
X128298780Y-103648408D01*
X128632114Y-102838884D02*
X129298780Y-102838884D01*
X128251161Y-103076980D02*
X128965447Y-103315075D01*
X128965447Y-102696027D01*
%TO.C,SW5*%
X129239661Y-118756333D02*
X129287280Y-118613476D01*
X129287280Y-118375380D01*
X129239661Y-118280142D01*
X129192042Y-118232523D01*
X129096804Y-118184904D01*
X129001566Y-118184904D01*
X128906328Y-118232523D01*
X128858709Y-118280142D01*
X128811090Y-118375380D01*
X128763471Y-118565857D01*
X128715852Y-118661095D01*
X128668233Y-118708714D01*
X128572995Y-118756333D01*
X128477757Y-118756333D01*
X128382519Y-118708714D01*
X128334900Y-118661095D01*
X128287280Y-118565857D01*
X128287280Y-118327761D01*
X128334900Y-118184904D01*
X128287280Y-117851571D02*
X129287280Y-117613476D01*
X128572995Y-117423000D01*
X129287280Y-117232523D01*
X128287280Y-116994428D01*
X128287280Y-116137285D02*
X128287280Y-116613476D01*
X128763471Y-116661095D01*
X128715852Y-116613476D01*
X128668233Y-116518238D01*
X128668233Y-116280142D01*
X128715852Y-116184904D01*
X128763471Y-116137285D01*
X128858709Y-116089666D01*
X129096804Y-116089666D01*
X129192042Y-116137285D01*
X129239661Y-116184904D01*
X129287280Y-116280142D01*
X129287280Y-116518238D01*
X129239661Y-116613476D01*
X129192042Y-116661095D01*
%TO.C,FB1*%
X118518371Y-71665033D02*
X118518371Y-71998366D01*
X119042180Y-71998366D02*
X118042180Y-71998366D01*
X118042180Y-71522176D01*
X118518371Y-70807890D02*
X118565990Y-70665033D01*
X118613609Y-70617414D01*
X118708847Y-70569795D01*
X118851704Y-70569795D01*
X118946942Y-70617414D01*
X118994561Y-70665033D01*
X119042180Y-70760271D01*
X119042180Y-71141223D01*
X118042180Y-71141223D01*
X118042180Y-70807890D01*
X118089800Y-70712652D01*
X118137419Y-70665033D01*
X118232657Y-70617414D01*
X118327895Y-70617414D01*
X118423133Y-70665033D01*
X118470752Y-70712652D01*
X118518371Y-70807890D01*
X118518371Y-71141223D01*
X119042180Y-69617414D02*
X119042180Y-70188842D01*
X119042180Y-69903128D02*
X118042180Y-69903128D01*
X118185038Y-69998366D01*
X118280276Y-70093604D01*
X118327895Y-70188842D01*
%TO.C,J6*%
X94503820Y-99906593D02*
X95218106Y-99906593D01*
X95360963Y-99954212D01*
X95456201Y-100049450D01*
X95503820Y-100192307D01*
X95503820Y-100287545D01*
X94503820Y-99001831D02*
X94503820Y-99192307D01*
X94551440Y-99287545D01*
X94599059Y-99335164D01*
X94741916Y-99430402D01*
X94932392Y-99478021D01*
X95313344Y-99478021D01*
X95408582Y-99430402D01*
X95456201Y-99382783D01*
X95503820Y-99287545D01*
X95503820Y-99097069D01*
X95456201Y-99001831D01*
X95408582Y-98954212D01*
X95313344Y-98906593D01*
X95075249Y-98906593D01*
X94980011Y-98954212D01*
X94932392Y-99001831D01*
X94884773Y-99097069D01*
X94884773Y-99287545D01*
X94932392Y-99382783D01*
X94980011Y-99430402D01*
X95075249Y-99478021D01*
%TO.C,U1*%
X107696095Y-66417880D02*
X107696095Y-67227404D01*
X107743714Y-67322642D01*
X107791333Y-67370261D01*
X107886571Y-67417880D01*
X108077047Y-67417880D01*
X108172285Y-67370261D01*
X108219904Y-67322642D01*
X108267523Y-67227404D01*
X108267523Y-66417880D01*
X109267523Y-67417880D02*
X108696095Y-67417880D01*
X108981809Y-67417880D02*
X108981809Y-66417880D01*
X108886571Y-66560738D01*
X108791333Y-66655976D01*
X108696095Y-66703595D01*
%TD*%
M02*
