%TF.GenerationSoftware,KiCad,Pcbnew,5.1.12-84ad8e8a86~92~ubuntu20.04.1*%
%TF.CreationDate,2022-06-26T22:57:18-03:00*%
%TF.ProjectId,esp_controller,6573705f-636f-46e7-9472-6f6c6c65722e,rev?*%
%TF.SameCoordinates,Original*%
%TF.FileFunction,Soldermask,Bot*%
%TF.FilePolarity,Negative*%
%FSLAX46Y46*%
G04 Gerber Fmt 4.6, Leading zero omitted, Abs format (unit mm)*
G04 Created by KiCad (PCBNEW 5.1.12-84ad8e8a86~92~ubuntu20.04.1) date 2022-06-26 22:57:18*
%MOMM*%
%LPD*%
G01*
G04 APERTURE LIST*
%ADD10O,1.740000X2.190000*%
%ADD11C,2.600000*%
%ADD12R,2.600000X2.600000*%
%ADD13C,3.500000*%
%ADD14C,1.700000*%
%ADD15R,1.700000X1.700000*%
%ADD16C,1.500000*%
%ADD17C,2.300000*%
%ADD18R,1.500000X1.500000*%
%ADD19O,1.700000X1.700000*%
%ADD20O,2.190000X1.740000*%
%ADD21C,2.000000*%
%ADD22O,1.600000X1.600000*%
%ADD23C,1.600000*%
%ADD24C,8.600000*%
G04 APERTURE END LIST*
D10*
%TO.C,J10*%
X175570000Y-120340000D03*
G36*
G01*
X178980000Y-119494999D02*
X178980000Y-121185001D01*
G75*
G02*
X178730001Y-121435000I-249999J0D01*
G01*
X177489999Y-121435000D01*
G75*
G02*
X177240000Y-121185001I0J249999D01*
G01*
X177240000Y-119494999D01*
G75*
G02*
X177489999Y-119245000I249999J0D01*
G01*
X178730001Y-119245000D01*
G75*
G02*
X178980000Y-119494999I0J-249999D01*
G01*
G37*
%TD*%
D11*
%TO.C,J8*%
X166580000Y-119990000D03*
D12*
X161500000Y-119990000D03*
%TD*%
D13*
%TO.C,J2*%
X128844800Y-56239200D03*
X116804800Y-56239200D03*
D14*
X121574800Y-58949200D03*
X124074800Y-58949200D03*
X124074800Y-60949200D03*
D15*
X121574800Y-60949200D03*
%TD*%
D16*
%TO.C,J4*%
X182460000Y-85290000D03*
D17*
X187300000Y-89760000D03*
D16*
X185000000Y-84270000D03*
X182460000Y-83250000D03*
D18*
X185000000Y-82230000D03*
D17*
X187300000Y-77760000D03*
%TD*%
D16*
%TO.C,J3*%
X182460000Y-69270000D03*
D17*
X187300000Y-73740000D03*
D16*
X185000000Y-68250000D03*
X182460000Y-67230000D03*
D18*
X185000000Y-66210000D03*
D17*
X187300000Y-61740000D03*
%TD*%
D11*
%TO.C,J9*%
X155160000Y-120000000D03*
X150080000Y-120000000D03*
D12*
X145000000Y-120000000D03*
%TD*%
D19*
%TO.C,J1*%
X161990000Y-55990000D03*
X161990000Y-53450000D03*
X164530000Y-55990000D03*
X164530000Y-53450000D03*
X167070000Y-55990000D03*
X167070000Y-53450000D03*
X169610000Y-55990000D03*
X169610000Y-53450000D03*
X172150000Y-55990000D03*
D15*
X172150000Y-53450000D03*
%TD*%
D20*
%TO.C,J7*%
X95066800Y-103365000D03*
X95066800Y-105905000D03*
X95066800Y-108445000D03*
G36*
G01*
X95911801Y-111855000D02*
X94221799Y-111855000D01*
G75*
G02*
X93971800Y-111605001I0J249999D01*
G01*
X93971800Y-110364999D01*
G75*
G02*
X94221799Y-110115000I249999J0D01*
G01*
X95911801Y-110115000D01*
G75*
G02*
X96161800Y-110364999I0J-249999D01*
G01*
X96161800Y-111605001D01*
G75*
G02*
X95911801Y-111855000I-249999J0D01*
G01*
G37*
%TD*%
D21*
%TO.C,SW1*%
X142989200Y-52949200D03*
X142989200Y-57449200D03*
X136489200Y-52949200D03*
X136489200Y-57449200D03*
%TD*%
%TO.C,SW2*%
X153489200Y-52949200D03*
X153489200Y-57449200D03*
X146989200Y-52949200D03*
X146989200Y-57449200D03*
%TD*%
%TO.C,SW3*%
X135534400Y-94067460D03*
X131034400Y-94067460D03*
X135534400Y-87567460D03*
X131034400Y-87567460D03*
%TD*%
%TO.C,SW4*%
X135534400Y-107401980D03*
X131034400Y-107401980D03*
X135534400Y-100901980D03*
X131034400Y-100901980D03*
%TD*%
%TO.C,SW5*%
X135534400Y-120736500D03*
X131034400Y-120736500D03*
X135534400Y-114236500D03*
X131034400Y-114236500D03*
%TD*%
D22*
%TO.C,FB1*%
X121589800Y-65831700D03*
D23*
X121589800Y-75831700D03*
%TD*%
D20*
%TO.C,J6*%
X95066800Y-89365000D03*
X95066800Y-91905000D03*
X95066800Y-94445000D03*
G36*
G01*
X95911801Y-97855000D02*
X94221799Y-97855000D01*
G75*
G02*
X93971800Y-97605001I0J249999D01*
G01*
X93971800Y-96364999D01*
G75*
G02*
X94221799Y-96115000I249999J0D01*
G01*
X95911801Y-96115000D01*
G75*
G02*
X96161800Y-96364999I0J-249999D01*
G01*
X96161800Y-97605001D01*
G75*
G02*
X95911801Y-97855000I-249999J0D01*
G01*
G37*
%TD*%
D24*
%TO.C,H3*%
X95000000Y-120000000D03*
%TD*%
%TO.C,H4*%
X187000000Y-120000000D03*
%TD*%
%TO.C,H2*%
X187000000Y-55000000D03*
%TD*%
%TO.C,H1*%
X95000000Y-55000000D03*
%TD*%
M02*
