M48
; DRILL file {KiCad 5.1.12-84ad8e8a86~92~ubuntu20.04.1} date dom 26 jun 2022 22:50:21
; FORMAT={-:-/ absolute / metric / decimal}
; #@! TF.CreationDate,2022-06-26T22:50:21-03:00
; #@! TF.GenerationSoftware,Kicad,Pcbnew,5.1.12-84ad8e8a86~92~ubuntu20.04.1
; #@! TF.FileFunction,Plated,1,2,PTH
FMAT,2
METRIC
T1C0.400
T2C0.850
T3C0.900
T4C0.920
T5C1.000
T6C1.100
T7C1.190
T8C1.300
T9C2.330
T10C4.300
%
G90
G05
T1
X91.604Y-60.684
X91.604Y-67.224
X91.604Y-77.688
X91.604Y-84.228
X93.046Y-90.821
X93.046Y-97.361
X93.046Y-103.901
X93.046Y-110.441
X98.144Y-60.684
X98.144Y-77.688
X98.144Y-84.228
X98.146Y-100.305
X100.107Y-66.657
X100.588Y-111.658
X100.598Y-72.59
X100.76Y-51.528
X101.809Y-111.639
X102.637Y-68.381
X103.55Y-97.244
X104.521Y-80.947
X105.372Y-79.146
X105.537Y-97.358
X107.3Y-51.528
X107.3Y-109.08
X107.3Y-115.62
X107.79Y-97.257
X108.14Y-64.618
X108.608Y-73.764
X108.62Y-103.54
X108.62Y-104.81
X108.62Y-106.08
X108.62Y-107.35
X110.328Y-103.54
X110.328Y-104.81
X110.328Y-106.08
X110.328Y-107.35
X111.846Y-80.294
X113.625Y-97.81
X113.84Y-51.528
X113.84Y-58.068
X113.84Y-114.312
X115.148Y-64.608
X116.395Y-72.657
X117.982Y-95.782
X119.072Y-82.92
X120.38Y-51.528
X124.304Y-89.46
X125.612Y-71.148
X126.92Y-51.528
X126.92Y-59.376
X127.75Y-110.35
X130.683Y-117.521
X130.856Y-78.168
X133.46Y-51.528
X133.46Y-58.068
X133.46Y-89.46
X133.46Y-102.54
X133.46Y-114.312
X133.46Y-120.852
X134.211Y-76.38
X136.454Y-74.178
X137.384Y-82.784
X140.0Y-59.376
X140.0Y-115.62
X142.616Y-94.692
X142.616Y-101.232
X142.616Y-107.772
X143.25Y-70.4
X143.485Y-87.351
X143.924Y-67.224
X144.5Y-86.4
X144.912Y-62.845
X144.996Y-51.511
X146.54Y-115.62
X146.736Y-64.516
X148.6Y-90.6
X149.156Y-52.836
X149.156Y-101.232
X149.156Y-107.772
X149.45Y-73.8
X151.772Y-67.224
X152.0Y-83.9
X153.08Y-112.852
X154.5Y-73.8
X155.696Y-51.528
X156.296Y-64.064
X158.312Y-58.068
X158.657Y-94.258
X158.657Y-97.785
X158.657Y-101.312
X159.6Y-78.85
X159.62Y-114.312
X159.8Y-68.092
X160.518Y-88.666
X160.774Y-96.021
X160.774Y-99.548
X160.928Y-123.468
X162.89Y-94.258
X162.89Y-97.785
X162.89Y-101.312
X164.8Y-82.35
X164.852Y-58.068
X164.852Y-73.764
X165.007Y-96.021
X165.007Y-99.548
X167.124Y-94.258
X167.124Y-97.785
X167.124Y-101.312
X167.468Y-65.916
X168.02Y-75.82
X168.02Y-77.47
X168.02Y-79.12
X168.02Y-80.77
X168.036Y-83.353
X168.465Y-114.3
X168.527Y-61.9
X168.776Y-105.156
X169.926Y-85.344
X170.224Y-61.9
X171.196Y-85.344
X171.59Y-90.145
X171.59Y-91.757
X171.92Y-61.9
X172.7Y-114.312
X172.834Y-90.951
X174.008Y-60.684
X174.008Y-67.224
X174.008Y-80.304
X174.01Y-71.821
X174.01Y-76.126
X174.079Y-90.145
X174.079Y-91.757
X175.316Y-105.156
X175.323Y-90.951
X176.568Y-90.145
X176.568Y-91.757
X176.624Y-51.528
X179.24Y-123.468
X180.548Y-58.068
X180.548Y-64.608
X180.548Y-97.308
X181.856Y-72.456
X181.856Y-78.996
X181.856Y-90.768
X181.856Y-103.848
X184.5Y-90.28
X186.243Y-110.835
X187.088Y-64.608
X187.32Y-93.1
X187.32Y-94.425
X187.32Y-95.75
T2
X121.59Y-65.832
X121.59Y-75.832
T3
X182.46Y-67.23
X182.46Y-69.27
X182.46Y-83.25
X182.46Y-85.29
X185.0Y-66.21
X185.0Y-68.25
X185.0Y-82.23
X185.0Y-84.27
T4
X121.575Y-58.949
X121.575Y-60.949
X124.075Y-58.949
X124.075Y-60.949
T5
X161.99Y-53.45
X161.99Y-55.99
X164.53Y-53.45
X164.53Y-55.99
X167.07Y-53.45
X167.07Y-55.99
X169.61Y-53.45
X169.61Y-55.99
X172.15Y-53.45
X172.15Y-55.99
T6
X131.034Y-87.567
X131.034Y-94.067
X131.034Y-100.902
X131.034Y-107.402
X131.034Y-114.236
X131.034Y-120.736
X135.534Y-87.567
X135.534Y-94.067
X135.534Y-100.902
X135.534Y-107.402
X135.534Y-114.236
X135.534Y-120.736
X136.489Y-52.949
X136.489Y-57.449
X142.989Y-52.949
X142.989Y-57.449
X146.989Y-52.949
X146.989Y-57.449
X153.489Y-52.949
X153.489Y-57.449
T7
X95.067Y-89.365
X95.067Y-91.905
X95.067Y-94.445
X95.067Y-96.985
X95.067Y-103.365
X95.067Y-105.905
X95.067Y-108.445
X95.067Y-110.985
X175.57Y-120.34
X178.11Y-120.34
T8
X145.0Y-120.0
X150.08Y-120.0
X155.16Y-120.0
X161.5Y-119.99
X166.58Y-119.99
T9
X116.805Y-56.239
X128.845Y-56.239
T10
X95.0Y-55.0
X95.0Y-120.0
X187.0Y-55.0
X187.0Y-120.0
T0
M30
