%TF.GenerationSoftware,KiCad,Pcbnew,5.1.12-84ad8e8a86~92~ubuntu20.04.1*%
%TF.CreationDate,2022-06-26T22:57:18-03:00*%
%TF.ProjectId,esp_controller,6573705f-636f-46e7-9472-6f6c6c65722e,rev?*%
%TF.SameCoordinates,Original*%
%TF.FileFunction,Legend,Bot*%
%TF.FilePolarity,Positive*%
%FSLAX46Y46*%
G04 Gerber Fmt 4.6, Leading zero omitted, Abs format (unit mm)*
G04 Created by KiCad (PCBNEW 5.1.12-84ad8e8a86~92~ubuntu20.04.1) date 2022-06-26 22:57:18*
%MOMM*%
%LPD*%
G01*
G04 APERTURE LIST*
%ADD10C,0.200000*%
%ADD11C,0.010000*%
G04 APERTURE END LIST*
D10*
X160541291Y-107420631D02*
X161041291Y-106706345D01*
X161398434Y-107420631D02*
X161398434Y-105920631D01*
X160827005Y-105920631D01*
X160684148Y-105992060D01*
X160612720Y-106063488D01*
X160541291Y-106206345D01*
X160541291Y-106420631D01*
X160612720Y-106563488D01*
X160684148Y-106634917D01*
X160827005Y-106706345D01*
X161398434Y-106706345D01*
X159684148Y-107420631D02*
X159827005Y-107349202D01*
X159898434Y-107277774D01*
X159969862Y-107134917D01*
X159969862Y-106706345D01*
X159898434Y-106563488D01*
X159827005Y-106492060D01*
X159684148Y-106420631D01*
X159469862Y-106420631D01*
X159327005Y-106492060D01*
X159255577Y-106563488D01*
X159184148Y-106706345D01*
X159184148Y-107134917D01*
X159255577Y-107277774D01*
X159327005Y-107349202D01*
X159469862Y-107420631D01*
X159684148Y-107420631D01*
X158541291Y-107420631D02*
X158541291Y-105920631D01*
X158041291Y-106992060D01*
X157541291Y-105920631D01*
X157541291Y-107420631D01*
X156898434Y-106992060D02*
X156184148Y-106992060D01*
X157041291Y-107420631D02*
X156541291Y-105920631D01*
X156041291Y-107420631D01*
X155612720Y-106992060D02*
X154898434Y-106992060D01*
X155755577Y-107420631D02*
X155255577Y-105920631D01*
X154755577Y-107420631D01*
X154255577Y-106849202D02*
X153112720Y-106849202D01*
X152398434Y-106634917D02*
X151898434Y-106634917D01*
X151684148Y-107420631D02*
X152398434Y-107420631D01*
X152398434Y-105920631D01*
X151684148Y-105920631D01*
X151112720Y-107349202D02*
X150898434Y-107420631D01*
X150541291Y-107420631D01*
X150398434Y-107349202D01*
X150327005Y-107277774D01*
X150255577Y-107134917D01*
X150255577Y-106992060D01*
X150327005Y-106849202D01*
X150398434Y-106777774D01*
X150541291Y-106706345D01*
X150827005Y-106634917D01*
X150969862Y-106563488D01*
X151041291Y-106492060D01*
X151112720Y-106349202D01*
X151112720Y-106206345D01*
X151041291Y-106063488D01*
X150969862Y-105992060D01*
X150827005Y-105920631D01*
X150469862Y-105920631D01*
X150255577Y-105992060D01*
X149612720Y-107420631D02*
X149612720Y-105920631D01*
X149041291Y-105920631D01*
X148898434Y-105992060D01*
X148827005Y-106063488D01*
X148755577Y-106206345D01*
X148755577Y-106420631D01*
X148827005Y-106563488D01*
X148898434Y-106634917D01*
X149041291Y-106706345D01*
X149612720Y-106706345D01*
X161398434Y-108370631D02*
X160898434Y-109870631D01*
X160398434Y-108370631D01*
X159327005Y-109799202D02*
X159469862Y-109870631D01*
X159755577Y-109870631D01*
X159898434Y-109799202D01*
X159969862Y-109656345D01*
X159969862Y-109084917D01*
X159898434Y-108942060D01*
X159755577Y-108870631D01*
X159469862Y-108870631D01*
X159327005Y-108942060D01*
X159255577Y-109084917D01*
X159255577Y-109227774D01*
X159969862Y-109370631D01*
X158612720Y-109870631D02*
X158612720Y-108870631D01*
X158612720Y-109156345D02*
X158541291Y-109013488D01*
X158469862Y-108942060D01*
X158327005Y-108870631D01*
X158184148Y-108870631D01*
X157755577Y-109799202D02*
X157612720Y-109870631D01*
X157327005Y-109870631D01*
X157184148Y-109799202D01*
X157112720Y-109656345D01*
X157112720Y-109584917D01*
X157184148Y-109442060D01*
X157327005Y-109370631D01*
X157541291Y-109370631D01*
X157684148Y-109299202D01*
X157755577Y-109156345D01*
X157755577Y-109084917D01*
X157684148Y-108942060D01*
X157541291Y-108870631D01*
X157327005Y-108870631D01*
X157184148Y-108942060D01*
X156469862Y-109870631D02*
X156469862Y-108870631D01*
X156469862Y-108370631D02*
X156541291Y-108442060D01*
X156469862Y-108513488D01*
X156398434Y-108442060D01*
X156469862Y-108370631D01*
X156469862Y-108513488D01*
X155541291Y-109870631D02*
X155684148Y-109799202D01*
X155755577Y-109727774D01*
X155827005Y-109584917D01*
X155827005Y-109156345D01*
X155755577Y-109013488D01*
X155684148Y-108942060D01*
X155541291Y-108870631D01*
X155327005Y-108870631D01*
X155184148Y-108942060D01*
X155112720Y-109013488D01*
X155041291Y-109156345D01*
X155041291Y-109584917D01*
X155112720Y-109727774D01*
X155184148Y-109799202D01*
X155327005Y-109870631D01*
X155541291Y-109870631D01*
X155255577Y-108299202D02*
X155469862Y-108513488D01*
X154398434Y-108870631D02*
X154398434Y-109870631D01*
X154398434Y-109013488D02*
X154327005Y-108942060D01*
X154184148Y-108870631D01*
X153969862Y-108870631D01*
X153827005Y-108942060D01*
X153755577Y-109084917D01*
X153755577Y-109870631D01*
X151112720Y-109870631D02*
X151969862Y-109870631D01*
X151541291Y-109870631D02*
X151541291Y-108370631D01*
X151684148Y-108584917D01*
X151827005Y-108727774D01*
X151969862Y-108799202D01*
X150469862Y-109727774D02*
X150398434Y-109799202D01*
X150469862Y-109870631D01*
X150541291Y-109799202D01*
X150469862Y-109727774D01*
X150469862Y-109870631D01*
X149469862Y-108370631D02*
X149327005Y-108370631D01*
X149184148Y-108442060D01*
X149112720Y-108513488D01*
X149041291Y-108656345D01*
X148969862Y-108942060D01*
X148969862Y-109299202D01*
X149041291Y-109584917D01*
X149112720Y-109727774D01*
X149184148Y-109799202D01*
X149327005Y-109870631D01*
X149469862Y-109870631D01*
X149612720Y-109799202D01*
X149684148Y-109727774D01*
X149755577Y-109584917D01*
X149827005Y-109299202D01*
X149827005Y-108942060D01*
X149755577Y-108656345D01*
X149684148Y-108513488D01*
X149612720Y-108442060D01*
X149469862Y-108370631D01*
X159541291Y-110820631D02*
X159398434Y-110820631D01*
X159255577Y-110892060D01*
X159184148Y-110963488D01*
X159112720Y-111106345D01*
X159041291Y-111392060D01*
X159041291Y-111749202D01*
X159112720Y-112034917D01*
X159184148Y-112177774D01*
X159255577Y-112249202D01*
X159398434Y-112320631D01*
X159541291Y-112320631D01*
X159684148Y-112249202D01*
X159755577Y-112177774D01*
X159827005Y-112034917D01*
X159898434Y-111749202D01*
X159898434Y-111392060D01*
X159827005Y-111106345D01*
X159755577Y-110963488D01*
X159684148Y-110892060D01*
X159541291Y-110820631D01*
X157755577Y-110820631D02*
X158041291Y-110820631D01*
X158184148Y-110892060D01*
X158255577Y-110963488D01*
X158398434Y-111177774D01*
X158469862Y-111463488D01*
X158469862Y-112034917D01*
X158398434Y-112177774D01*
X158327005Y-112249202D01*
X158184148Y-112320631D01*
X157898434Y-112320631D01*
X157755577Y-112249202D01*
X157684148Y-112177774D01*
X157612720Y-112034917D01*
X157612720Y-111677774D01*
X157684148Y-111534917D01*
X157755577Y-111463488D01*
X157898434Y-111392060D01*
X158184148Y-111392060D01*
X158327005Y-111463488D01*
X158398434Y-111534917D01*
X158469862Y-111677774D01*
X155898434Y-110749202D02*
X157184148Y-112677774D01*
X155469862Y-110963488D02*
X155398434Y-110892060D01*
X155255577Y-110820631D01*
X154898434Y-110820631D01*
X154755577Y-110892060D01*
X154684148Y-110963488D01*
X154612720Y-111106345D01*
X154612720Y-111249202D01*
X154684148Y-111463488D01*
X155541291Y-112320631D01*
X154612720Y-112320631D01*
X153684148Y-110820631D02*
X153541291Y-110820631D01*
X153398434Y-110892060D01*
X153327005Y-110963488D01*
X153255577Y-111106345D01*
X153184148Y-111392060D01*
X153184148Y-111749202D01*
X153255577Y-112034917D01*
X153327005Y-112177774D01*
X153398434Y-112249202D01*
X153541291Y-112320631D01*
X153684148Y-112320631D01*
X153827005Y-112249202D01*
X153898434Y-112177774D01*
X153969862Y-112034917D01*
X154041291Y-111749202D01*
X154041291Y-111392060D01*
X153969862Y-111106345D01*
X153898434Y-110963488D01*
X153827005Y-110892060D01*
X153684148Y-110820631D01*
X152612720Y-110963488D02*
X152541291Y-110892060D01*
X152398434Y-110820631D01*
X152041291Y-110820631D01*
X151898434Y-110892060D01*
X151827005Y-110963488D01*
X151755577Y-111106345D01*
X151755577Y-111249202D01*
X151827005Y-111463488D01*
X152684148Y-112320631D01*
X151755577Y-112320631D01*
X151184148Y-110963488D02*
X151112720Y-110892060D01*
X150969862Y-110820631D01*
X150612720Y-110820631D01*
X150469862Y-110892060D01*
X150398434Y-110963488D01*
X150327005Y-111106345D01*
X150327005Y-111249202D01*
X150398434Y-111463488D01*
X151255577Y-112320631D01*
X150327005Y-112320631D01*
D11*
%TO.C,G\u002A\u002A\u002A*%
G36*
X169624847Y-105044239D02*
G01*
X169594688Y-105320065D01*
X169510850Y-105614541D01*
X169381527Y-105908391D01*
X169214914Y-106182341D01*
X169058720Y-106375909D01*
X168958110Y-106474199D01*
X168828842Y-106585769D01*
X168684429Y-106700659D01*
X168538380Y-106808910D01*
X168404207Y-106900561D01*
X168295421Y-106965655D01*
X168225533Y-106994231D01*
X168219206Y-106994752D01*
X168205496Y-106979052D01*
X168194645Y-106927893D01*
X168186383Y-106835032D01*
X168180442Y-106694224D01*
X168176552Y-106499226D01*
X168174445Y-106243792D01*
X168173849Y-105942311D01*
X168173849Y-104890025D01*
X166758706Y-104890025D01*
X166758706Y-105942311D01*
X166759133Y-106262602D01*
X166758602Y-106516163D01*
X166754396Y-106708815D01*
X166743798Y-106846379D01*
X166724089Y-106934674D01*
X166692553Y-106979521D01*
X166646472Y-106986742D01*
X166583129Y-106962155D01*
X166499806Y-106911583D01*
X166393785Y-106840844D01*
X166352089Y-106813237D01*
X166048671Y-106579068D01*
X165786478Y-106306052D01*
X165571593Y-106004253D01*
X165410100Y-105683732D01*
X165308083Y-105354553D01*
X165271625Y-105026779D01*
X165271622Y-105026097D01*
X165270992Y-104890025D01*
X163810186Y-104890025D01*
X163834807Y-105139891D01*
X163904994Y-105589881D01*
X164023776Y-106040782D01*
X164184569Y-106474299D01*
X164380789Y-106872136D01*
X164559170Y-107152869D01*
X164690804Y-107317870D01*
X164859640Y-107502649D01*
X165046493Y-107688279D01*
X165232176Y-107855833D01*
X165397505Y-107986385D01*
X165419863Y-108001947D01*
X165517411Y-108062222D01*
X165658098Y-108141707D01*
X165822182Y-108230052D01*
X165989919Y-108316908D01*
X166141568Y-108391925D01*
X166257385Y-108444753D01*
X166286991Y-108456525D01*
X166265051Y-108461264D01*
X166178312Y-108465764D01*
X166034548Y-108469878D01*
X165841532Y-108473458D01*
X165607036Y-108476357D01*
X165338835Y-108478427D01*
X165080492Y-108479446D01*
X163819563Y-108482311D01*
X163819563Y-109933740D01*
X166375796Y-109933740D01*
X165971973Y-110132404D01*
X165646983Y-110309270D01*
X165339103Y-110509144D01*
X165065571Y-110719727D01*
X164843626Y-110928724D01*
X164820986Y-110953438D01*
X164509884Y-111353384D01*
X164253548Y-111798912D01*
X164053580Y-112286204D01*
X163911585Y-112811442D01*
X163836144Y-113299240D01*
X163812437Y-113526025D01*
X165270992Y-113526025D01*
X165271622Y-113389954D01*
X165307772Y-113067679D01*
X165409054Y-112743236D01*
X165569125Y-112427039D01*
X165781646Y-112129501D01*
X166040275Y-111861037D01*
X166338671Y-111632061D01*
X166344126Y-111628522D01*
X166456798Y-111554157D01*
X166545929Y-111497231D01*
X166614334Y-111463664D01*
X166664828Y-111459381D01*
X166700227Y-111490303D01*
X166723345Y-111562353D01*
X166736999Y-111681455D01*
X166744002Y-111853531D01*
X166747172Y-112084503D01*
X166749321Y-112380295D01*
X166750191Y-112482811D01*
X166759819Y-113526025D01*
X168173849Y-113526025D01*
X168173849Y-112473739D01*
X168174678Y-112205815D01*
X168177024Y-111963039D01*
X168180671Y-111754431D01*
X168185403Y-111589012D01*
X168191006Y-111475803D01*
X168197264Y-111423826D01*
X168198952Y-111421454D01*
X168239837Y-111438723D01*
X168326420Y-111484639D01*
X168442258Y-111550366D01*
X168480167Y-111572574D01*
X168757717Y-111767409D01*
X169009817Y-112004574D01*
X169228795Y-112272370D01*
X169406977Y-112559096D01*
X169536692Y-112853053D01*
X169610267Y-113142539D01*
X169624340Y-113317382D01*
X169625277Y-113526025D01*
X171081693Y-113526025D01*
X171056550Y-113226668D01*
X170996602Y-112807978D01*
X170890327Y-112387756D01*
X170744480Y-111986268D01*
X170565814Y-111623779D01*
X170471529Y-111471304D01*
X170191962Y-111094807D01*
X169890629Y-110775186D01*
X169553180Y-110499847D01*
X169165261Y-110256194D01*
X168968995Y-110152825D01*
X168531322Y-109933739D01*
X169822157Y-109933740D01*
X171112991Y-109933740D01*
X171112991Y-108482311D01*
X168597568Y-108482311D01*
X168957208Y-108306260D01*
X169414300Y-108043792D01*
X169821738Y-107730013D01*
X170176789Y-107368978D01*
X170476717Y-106964741D01*
X170718787Y-106521356D01*
X170900265Y-106042878D01*
X171018417Y-105533361D01*
X171059831Y-105189110D01*
X171086066Y-104853740D01*
X169625277Y-104853740D01*
X169624847Y-105044239D01*
G37*
X169624847Y-105044239D02*
X169594688Y-105320065D01*
X169510850Y-105614541D01*
X169381527Y-105908391D01*
X169214914Y-106182341D01*
X169058720Y-106375909D01*
X168958110Y-106474199D01*
X168828842Y-106585769D01*
X168684429Y-106700659D01*
X168538380Y-106808910D01*
X168404207Y-106900561D01*
X168295421Y-106965655D01*
X168225533Y-106994231D01*
X168219206Y-106994752D01*
X168205496Y-106979052D01*
X168194645Y-106927893D01*
X168186383Y-106835032D01*
X168180442Y-106694224D01*
X168176552Y-106499226D01*
X168174445Y-106243792D01*
X168173849Y-105942311D01*
X168173849Y-104890025D01*
X166758706Y-104890025D01*
X166758706Y-105942311D01*
X166759133Y-106262602D01*
X166758602Y-106516163D01*
X166754396Y-106708815D01*
X166743798Y-106846379D01*
X166724089Y-106934674D01*
X166692553Y-106979521D01*
X166646472Y-106986742D01*
X166583129Y-106962155D01*
X166499806Y-106911583D01*
X166393785Y-106840844D01*
X166352089Y-106813237D01*
X166048671Y-106579068D01*
X165786478Y-106306052D01*
X165571593Y-106004253D01*
X165410100Y-105683732D01*
X165308083Y-105354553D01*
X165271625Y-105026779D01*
X165271622Y-105026097D01*
X165270992Y-104890025D01*
X163810186Y-104890025D01*
X163834807Y-105139891D01*
X163904994Y-105589881D01*
X164023776Y-106040782D01*
X164184569Y-106474299D01*
X164380789Y-106872136D01*
X164559170Y-107152869D01*
X164690804Y-107317870D01*
X164859640Y-107502649D01*
X165046493Y-107688279D01*
X165232176Y-107855833D01*
X165397505Y-107986385D01*
X165419863Y-108001947D01*
X165517411Y-108062222D01*
X165658098Y-108141707D01*
X165822182Y-108230052D01*
X165989919Y-108316908D01*
X166141568Y-108391925D01*
X166257385Y-108444753D01*
X166286991Y-108456525D01*
X166265051Y-108461264D01*
X166178312Y-108465764D01*
X166034548Y-108469878D01*
X165841532Y-108473458D01*
X165607036Y-108476357D01*
X165338835Y-108478427D01*
X165080492Y-108479446D01*
X163819563Y-108482311D01*
X163819563Y-109933740D01*
X166375796Y-109933740D01*
X165971973Y-110132404D01*
X165646983Y-110309270D01*
X165339103Y-110509144D01*
X165065571Y-110719727D01*
X164843626Y-110928724D01*
X164820986Y-110953438D01*
X164509884Y-111353384D01*
X164253548Y-111798912D01*
X164053580Y-112286204D01*
X163911585Y-112811442D01*
X163836144Y-113299240D01*
X163812437Y-113526025D01*
X165270992Y-113526025D01*
X165271622Y-113389954D01*
X165307772Y-113067679D01*
X165409054Y-112743236D01*
X165569125Y-112427039D01*
X165781646Y-112129501D01*
X166040275Y-111861037D01*
X166338671Y-111632061D01*
X166344126Y-111628522D01*
X166456798Y-111554157D01*
X166545929Y-111497231D01*
X166614334Y-111463664D01*
X166664828Y-111459381D01*
X166700227Y-111490303D01*
X166723345Y-111562353D01*
X166736999Y-111681455D01*
X166744002Y-111853531D01*
X166747172Y-112084503D01*
X166749321Y-112380295D01*
X166750191Y-112482811D01*
X166759819Y-113526025D01*
X168173849Y-113526025D01*
X168173849Y-112473739D01*
X168174678Y-112205815D01*
X168177024Y-111963039D01*
X168180671Y-111754431D01*
X168185403Y-111589012D01*
X168191006Y-111475803D01*
X168197264Y-111423826D01*
X168198952Y-111421454D01*
X168239837Y-111438723D01*
X168326420Y-111484639D01*
X168442258Y-111550366D01*
X168480167Y-111572574D01*
X168757717Y-111767409D01*
X169009817Y-112004574D01*
X169228795Y-112272370D01*
X169406977Y-112559096D01*
X169536692Y-112853053D01*
X169610267Y-113142539D01*
X169624340Y-113317382D01*
X169625277Y-113526025D01*
X171081693Y-113526025D01*
X171056550Y-113226668D01*
X170996602Y-112807978D01*
X170890327Y-112387756D01*
X170744480Y-111986268D01*
X170565814Y-111623779D01*
X170471529Y-111471304D01*
X170191962Y-111094807D01*
X169890629Y-110775186D01*
X169553180Y-110499847D01*
X169165261Y-110256194D01*
X168968995Y-110152825D01*
X168531322Y-109933739D01*
X169822157Y-109933740D01*
X171112991Y-109933740D01*
X171112991Y-108482311D01*
X168597568Y-108482311D01*
X168957208Y-108306260D01*
X169414300Y-108043792D01*
X169821738Y-107730013D01*
X170176789Y-107368978D01*
X170476717Y-106964741D01*
X170718787Y-106521356D01*
X170900265Y-106042878D01*
X171018417Y-105533361D01*
X171059831Y-105189110D01*
X171086066Y-104853740D01*
X169625277Y-104853740D01*
X169624847Y-105044239D01*
G36*
X178104642Y-104795327D02*
G01*
X177650483Y-104890003D01*
X177229619Y-105059715D01*
X176844707Y-105304198D01*
X176584697Y-105532982D01*
X176468842Y-105662133D01*
X176352439Y-105813819D01*
X176248902Y-105967766D01*
X176171644Y-106103700D01*
X176134081Y-106201348D01*
X176132464Y-106216454D01*
X176170376Y-106246744D01*
X176268194Y-106274205D01*
X176354317Y-106287050D01*
X176495052Y-106305691D01*
X176608090Y-106327124D01*
X176646410Y-106338208D01*
X176701925Y-106336020D01*
X176746439Y-106268748D01*
X176764932Y-106218263D01*
X176865403Y-106024869D01*
X177030727Y-105832592D01*
X177242815Y-105659558D01*
X177435155Y-105546598D01*
X177554370Y-105489591D01*
X177652706Y-105450758D01*
X177751048Y-105426613D01*
X177870286Y-105413672D01*
X178031306Y-105408450D01*
X178254995Y-105407460D01*
X178269010Y-105407460D01*
X178594681Y-105416066D01*
X178874888Y-105446162D01*
X179135544Y-105504165D01*
X179402557Y-105596490D01*
X179701838Y-105729554D01*
X179836234Y-105795545D01*
X180359393Y-106097587D01*
X180841504Y-106461770D01*
X181255177Y-106854443D01*
X181627290Y-107282316D01*
X181946693Y-107728476D01*
X182212805Y-108186541D01*
X182425043Y-108650131D01*
X182582827Y-109112863D01*
X182685575Y-109568356D01*
X182732705Y-110010229D01*
X182723635Y-110432100D01*
X182657785Y-110827587D01*
X182534571Y-111190310D01*
X182353414Y-111513886D01*
X182113731Y-111791934D01*
X181814941Y-112018073D01*
X181730144Y-112066173D01*
X181334135Y-112229880D01*
X180910471Y-112314972D01*
X180463263Y-112321315D01*
X179996617Y-112248777D01*
X179613984Y-112134553D01*
X179307067Y-112024036D01*
X179307067Y-108561293D01*
X177910067Y-108561293D01*
X177910067Y-111718309D01*
X178111150Y-111914335D01*
X178455821Y-112216312D01*
X178856028Y-112509721D01*
X179292480Y-112783759D01*
X179745884Y-113027627D01*
X180196947Y-113230522D01*
X180626376Y-113381644D01*
X180825833Y-113434159D01*
X181167881Y-113491000D01*
X181547373Y-113518044D01*
X181921478Y-113512409D01*
X181954406Y-113510127D01*
X182405108Y-113436999D01*
X182817998Y-113290283D01*
X183188092Y-113074434D01*
X183510405Y-112793907D01*
X183779950Y-112453158D01*
X183991743Y-112056643D01*
X184140799Y-111608818D01*
X184156427Y-111542058D01*
X184197629Y-111261152D01*
X184212756Y-110927227D01*
X184202836Y-110567478D01*
X184168893Y-110209098D01*
X184111954Y-109879281D01*
X184090280Y-109788960D01*
X183876506Y-109126109D01*
X183582665Y-108471782D01*
X183213353Y-107833898D01*
X182773169Y-107220376D01*
X182266708Y-106639135D01*
X182254310Y-106626202D01*
X181815476Y-106200207D01*
X181379469Y-105842852D01*
X180927588Y-105540895D01*
X180441131Y-105281093D01*
X180201056Y-105172289D01*
X179640302Y-104964169D01*
X179102210Y-104832145D01*
X178589437Y-104775953D01*
X178104642Y-104795327D01*
G37*
X178104642Y-104795327D02*
X177650483Y-104890003D01*
X177229619Y-105059715D01*
X176844707Y-105304198D01*
X176584697Y-105532982D01*
X176468842Y-105662133D01*
X176352439Y-105813819D01*
X176248902Y-105967766D01*
X176171644Y-106103700D01*
X176134081Y-106201348D01*
X176132464Y-106216454D01*
X176170376Y-106246744D01*
X176268194Y-106274205D01*
X176354317Y-106287050D01*
X176495052Y-106305691D01*
X176608090Y-106327124D01*
X176646410Y-106338208D01*
X176701925Y-106336020D01*
X176746439Y-106268748D01*
X176764932Y-106218263D01*
X176865403Y-106024869D01*
X177030727Y-105832592D01*
X177242815Y-105659558D01*
X177435155Y-105546598D01*
X177554370Y-105489591D01*
X177652706Y-105450758D01*
X177751048Y-105426613D01*
X177870286Y-105413672D01*
X178031306Y-105408450D01*
X178254995Y-105407460D01*
X178269010Y-105407460D01*
X178594681Y-105416066D01*
X178874888Y-105446162D01*
X179135544Y-105504165D01*
X179402557Y-105596490D01*
X179701838Y-105729554D01*
X179836234Y-105795545D01*
X180359393Y-106097587D01*
X180841504Y-106461770D01*
X181255177Y-106854443D01*
X181627290Y-107282316D01*
X181946693Y-107728476D01*
X182212805Y-108186541D01*
X182425043Y-108650131D01*
X182582827Y-109112863D01*
X182685575Y-109568356D01*
X182732705Y-110010229D01*
X182723635Y-110432100D01*
X182657785Y-110827587D01*
X182534571Y-111190310D01*
X182353414Y-111513886D01*
X182113731Y-111791934D01*
X181814941Y-112018073D01*
X181730144Y-112066173D01*
X181334135Y-112229880D01*
X180910471Y-112314972D01*
X180463263Y-112321315D01*
X179996617Y-112248777D01*
X179613984Y-112134553D01*
X179307067Y-112024036D01*
X179307067Y-108561293D01*
X177910067Y-108561293D01*
X177910067Y-111718309D01*
X178111150Y-111914335D01*
X178455821Y-112216312D01*
X178856028Y-112509721D01*
X179292480Y-112783759D01*
X179745884Y-113027627D01*
X180196947Y-113230522D01*
X180626376Y-113381644D01*
X180825833Y-113434159D01*
X181167881Y-113491000D01*
X181547373Y-113518044D01*
X181921478Y-113512409D01*
X181954406Y-113510127D01*
X182405108Y-113436999D01*
X182817998Y-113290283D01*
X183188092Y-113074434D01*
X183510405Y-112793907D01*
X183779950Y-112453158D01*
X183991743Y-112056643D01*
X184140799Y-111608818D01*
X184156427Y-111542058D01*
X184197629Y-111261152D01*
X184212756Y-110927227D01*
X184202836Y-110567478D01*
X184168893Y-110209098D01*
X184111954Y-109879281D01*
X184090280Y-109788960D01*
X183876506Y-109126109D01*
X183582665Y-108471782D01*
X183213353Y-107833898D01*
X182773169Y-107220376D01*
X182266708Y-106639135D01*
X182254310Y-106626202D01*
X181815476Y-106200207D01*
X181379469Y-105842852D01*
X180927588Y-105540895D01*
X180441131Y-105281093D01*
X180201056Y-105172289D01*
X179640302Y-104964169D01*
X179102210Y-104832145D01*
X178589437Y-104775953D01*
X178104642Y-104795327D01*
G36*
X175539400Y-111715651D02*
G01*
X175782817Y-111931543D01*
X175921531Y-112053777D01*
X176054005Y-112169187D01*
X176152223Y-112253370D01*
X176154442Y-112255238D01*
X176256787Y-112335938D01*
X176391719Y-112435159D01*
X176541853Y-112541027D01*
X176689804Y-112641671D01*
X176818184Y-112725219D01*
X176909608Y-112779798D01*
X176944334Y-112794626D01*
X176951025Y-112753634D01*
X176956869Y-112636013D01*
X176961772Y-112449798D01*
X176965643Y-112203025D01*
X176968388Y-111903728D01*
X176969916Y-111559942D01*
X176970133Y-111179702D01*
X176968949Y-110771043D01*
X176968546Y-110688543D01*
X176957567Y-108582460D01*
X176248484Y-108570853D01*
X175539400Y-108559246D01*
X175539400Y-111715651D01*
G37*
X175539400Y-111715651D02*
X175782817Y-111931543D01*
X175921531Y-112053777D01*
X176054005Y-112169187D01*
X176152223Y-112253370D01*
X176154442Y-112255238D01*
X176256787Y-112335938D01*
X176391719Y-112435159D01*
X176541853Y-112541027D01*
X176689804Y-112641671D01*
X176818184Y-112725219D01*
X176909608Y-112779798D01*
X176944334Y-112794626D01*
X176951025Y-112753634D01*
X176956869Y-112636013D01*
X176961772Y-112449798D01*
X176965643Y-112203025D01*
X176968388Y-111903728D01*
X176969916Y-111559942D01*
X176970133Y-111179702D01*
X176968949Y-110771043D01*
X176968546Y-110688543D01*
X176957567Y-108582460D01*
X176248484Y-108570853D01*
X175539400Y-108559246D01*
X175539400Y-111715651D01*
G36*
X173211067Y-111727797D02*
G01*
X173454484Y-111951062D01*
X173610661Y-112087399D01*
X173797280Y-112239792D01*
X173995858Y-112394230D01*
X174187911Y-112536699D01*
X174354957Y-112653186D01*
X174478513Y-112729679D01*
X174488337Y-112734886D01*
X174608067Y-112796800D01*
X174608067Y-108561293D01*
X173211067Y-108561293D01*
X173211067Y-111727797D01*
G37*
X173211067Y-111727797D02*
X173454484Y-111951062D01*
X173610661Y-112087399D01*
X173797280Y-112239792D01*
X173995858Y-112394230D01*
X174187911Y-112536699D01*
X174354957Y-112653186D01*
X174478513Y-112729679D01*
X174488337Y-112734886D01*
X174608067Y-112796800D01*
X174608067Y-108561293D01*
X173211067Y-108561293D01*
X173211067Y-111727797D01*
G36*
X178481977Y-106758751D02*
G01*
X178288817Y-106833915D01*
X178120387Y-106960098D01*
X177992421Y-107127098D01*
X177920653Y-107324712D01*
X177910764Y-107430563D01*
X177947497Y-107650462D01*
X178049660Y-107840635D01*
X178202185Y-107990824D01*
X178390006Y-108090775D01*
X178598054Y-108130231D01*
X178811263Y-108098936D01*
X178863354Y-108078965D01*
X179048724Y-107957042D01*
X179190452Y-107782833D01*
X179276978Y-107577883D01*
X179296741Y-107363734D01*
X179285937Y-107291458D01*
X179224409Y-107148839D01*
X179112515Y-106996786D01*
X178974952Y-106865027D01*
X178879552Y-106802297D01*
X178684133Y-106744811D01*
X178481977Y-106758751D01*
G37*
X178481977Y-106758751D02*
X178288817Y-106833915D01*
X178120387Y-106960098D01*
X177992421Y-107127098D01*
X177920653Y-107324712D01*
X177910764Y-107430563D01*
X177947497Y-107650462D01*
X178049660Y-107840635D01*
X178202185Y-107990824D01*
X178390006Y-108090775D01*
X178598054Y-108130231D01*
X178811263Y-108098936D01*
X178863354Y-108078965D01*
X179048724Y-107957042D01*
X179190452Y-107782833D01*
X179276978Y-107577883D01*
X179296741Y-107363734D01*
X179285937Y-107291458D01*
X179224409Y-107148839D01*
X179112515Y-106996786D01*
X178974952Y-106865027D01*
X178879552Y-106802297D01*
X178684133Y-106744811D01*
X178481977Y-106758751D01*
G36*
X176049232Y-106782241D02*
G01*
X175848347Y-106891148D01*
X175718782Y-107017321D01*
X175595074Y-107222009D01*
X175554750Y-107432977D01*
X175598437Y-107646795D01*
X175602108Y-107655759D01*
X175731142Y-107875442D01*
X175901304Y-108031023D01*
X176100672Y-108117582D01*
X176317321Y-108130198D01*
X176539328Y-108063950D01*
X176562577Y-108052159D01*
X176751941Y-107909426D01*
X176873579Y-107716424D01*
X176928175Y-107474574D01*
X176932581Y-107322745D01*
X176908218Y-107210272D01*
X176844966Y-107093924D01*
X176835805Y-107079948D01*
X176670954Y-106897160D01*
X176475159Y-106786067D01*
X176263044Y-106747487D01*
X176049232Y-106782241D01*
G37*
X176049232Y-106782241D02*
X175848347Y-106891148D01*
X175718782Y-107017321D01*
X175595074Y-107222009D01*
X175554750Y-107432977D01*
X175598437Y-107646795D01*
X175602108Y-107655759D01*
X175731142Y-107875442D01*
X175901304Y-108031023D01*
X176100672Y-108117582D01*
X176317321Y-108130198D01*
X176539328Y-108063950D01*
X176562577Y-108052159D01*
X176751941Y-107909426D01*
X176873579Y-107716424D01*
X176928175Y-107474574D01*
X176932581Y-107322745D01*
X176908218Y-107210272D01*
X176844966Y-107093924D01*
X176835805Y-107079948D01*
X176670954Y-106897160D01*
X176475159Y-106786067D01*
X176263044Y-106747487D01*
X176049232Y-106782241D01*
G36*
X173697374Y-106779290D02*
G01*
X173515901Y-106878257D01*
X173363818Y-107020248D01*
X173307876Y-107101656D01*
X173229464Y-107313285D01*
X173223845Y-107522931D01*
X173280772Y-107718947D01*
X173389999Y-107889689D01*
X173541281Y-108023512D01*
X173724370Y-108108770D01*
X173929021Y-108133819D01*
X174144988Y-108087013D01*
X174166856Y-108077913D01*
X174303342Y-107987241D01*
X174436280Y-107848533D01*
X174541028Y-107691872D01*
X174590850Y-107560294D01*
X174591286Y-107345056D01*
X174520223Y-107141748D01*
X174390769Y-106965450D01*
X174216034Y-106831241D01*
X174009126Y-106754201D01*
X173879177Y-106741656D01*
X173697374Y-106779290D01*
G37*
X173697374Y-106779290D02*
X173515901Y-106878257D01*
X173363818Y-107020248D01*
X173307876Y-107101656D01*
X173229464Y-107313285D01*
X173223845Y-107522931D01*
X173280772Y-107718947D01*
X173389999Y-107889689D01*
X173541281Y-108023512D01*
X173724370Y-108108770D01*
X173929021Y-108133819D01*
X174144988Y-108087013D01*
X174166856Y-108077913D01*
X174303342Y-107987241D01*
X174436280Y-107848533D01*
X174541028Y-107691872D01*
X174590850Y-107560294D01*
X174591286Y-107345056D01*
X174520223Y-107141748D01*
X174390769Y-106965450D01*
X174216034Y-106831241D01*
X174009126Y-106754201D01*
X173879177Y-106741656D01*
X173697374Y-106779290D01*
%TD*%
M02*
