%TF.GenerationSoftware,KiCad,Pcbnew,5.1.12-84ad8e8a86~92~ubuntu20.04.1*%
%TF.CreationDate,2022-06-26T22:57:18-03:00*%
%TF.ProjectId,esp_controller,6573705f-636f-46e7-9472-6f6c6c65722e,rev?*%
%TF.SameCoordinates,Original*%
%TF.FileFunction,Soldermask,Top*%
%TF.FilePolarity,Negative*%
%FSLAX46Y46*%
G04 Gerber Fmt 4.6, Leading zero omitted, Abs format (unit mm)*
G04 Created by KiCad (PCBNEW 5.1.12-84ad8e8a86~92~ubuntu20.04.1) date 2022-06-26 22:57:18*
%MOMM*%
%LPD*%
G01*
G04 APERTURE LIST*
%ADD10R,2.500000X1.800000*%
%ADD11R,1.350000X0.650000*%
%ADD12R,1.000000X1.000000*%
%ADD13R,1.500000X0.900000*%
%ADD14R,0.900000X1.500000*%
%ADD15R,1.050000X1.050000*%
%ADD16O,1.740000X2.190000*%
%ADD17C,2.600000*%
%ADD18R,2.600000X2.600000*%
%ADD19C,3.500000*%
%ADD20C,1.700000*%
%ADD21R,1.700000X1.700000*%
%ADD22C,1.500000*%
%ADD23C,2.300000*%
%ADD24R,1.500000X1.500000*%
%ADD25R,10.800000X9.400000*%
%ADD26R,1.100000X4.600000*%
%ADD27R,5.400000X2.900000*%
%ADD28R,1.500000X2.000000*%
%ADD29R,3.800000X2.000000*%
%ADD30O,1.700000X1.700000*%
%ADD31O,2.190000X1.740000*%
%ADD32R,2.400000X0.740000*%
%ADD33C,2.000000*%
%ADD34O,1.600000X1.600000*%
%ADD35C,1.600000*%
%ADD36R,1.750000X0.450000*%
%ADD37C,8.600000*%
G04 APERTURE END LIST*
D10*
%TO.C,D10*%
X158670000Y-111720000D03*
X162670000Y-111720000D03*
%TD*%
%TO.C,D4*%
X123300300Y-79857600D03*
X127300300Y-79857600D03*
%TD*%
%TO.C,C16*%
G36*
G01*
X171736180Y-96827159D02*
X171736180Y-99027161D01*
G75*
G02*
X171486181Y-99277160I-249999J0D01*
G01*
X170836179Y-99277160D01*
G75*
G02*
X170586180Y-99027161I0J249999D01*
G01*
X170586180Y-96827159D01*
G75*
G02*
X170836179Y-96577160I249999J0D01*
G01*
X171486181Y-96577160D01*
G75*
G02*
X171736180Y-96827159I0J-249999D01*
G01*
G37*
G36*
G01*
X174686180Y-96827159D02*
X174686180Y-99027161D01*
G75*
G02*
X174436181Y-99277160I-249999J0D01*
G01*
X173786179Y-99277160D01*
G75*
G02*
X173536180Y-99027161I0J249999D01*
G01*
X173536180Y-96827159D01*
G75*
G02*
X173786179Y-96577160I249999J0D01*
G01*
X174436181Y-96577160D01*
G75*
G02*
X174686180Y-96827159I0J-249999D01*
G01*
G37*
%TD*%
%TO.C,C10*%
G36*
G01*
X109380201Y-81340120D02*
X107180199Y-81340120D01*
G75*
G02*
X106930200Y-81090121I0J249999D01*
G01*
X106930200Y-80440119D01*
G75*
G02*
X107180199Y-80190120I249999J0D01*
G01*
X109380201Y-80190120D01*
G75*
G02*
X109630200Y-80440119I0J-249999D01*
G01*
X109630200Y-81090121D01*
G75*
G02*
X109380201Y-81340120I-249999J0D01*
G01*
G37*
G36*
G01*
X109380201Y-84290120D02*
X107180199Y-84290120D01*
G75*
G02*
X106930200Y-84040121I0J249999D01*
G01*
X106930200Y-83390119D01*
G75*
G02*
X107180199Y-83140120I249999J0D01*
G01*
X109380201Y-83140120D01*
G75*
G02*
X109630200Y-83390119I0J-249999D01*
G01*
X109630200Y-84040121D01*
G75*
G02*
X109380201Y-84290120I-249999J0D01*
G01*
G37*
%TD*%
D11*
%TO.C,Q1*%
X100049840Y-69265800D03*
X98049840Y-70225800D03*
X98049840Y-68305800D03*
%TD*%
%TO.C,Q2*%
X100049840Y-75280520D03*
X98049840Y-76240520D03*
X98049840Y-74320520D03*
%TD*%
D10*
%TO.C,D9*%
X111600000Y-96600000D03*
X115600000Y-96600000D03*
%TD*%
%TO.C,D3*%
G36*
G01*
X110997500Y-62453500D02*
X110997500Y-62133500D01*
G75*
G02*
X111157500Y-61973500I160000J0D01*
G01*
X111602500Y-61973500D01*
G75*
G02*
X111762500Y-62133500I0J-160000D01*
G01*
X111762500Y-62453500D01*
G75*
G02*
X111602500Y-62613500I-160000J0D01*
G01*
X111157500Y-62613500D01*
G75*
G02*
X110997500Y-62453500I0J160000D01*
G01*
G37*
G36*
G01*
X109852500Y-62453500D02*
X109852500Y-62133500D01*
G75*
G02*
X110012500Y-61973500I160000J0D01*
G01*
X110457500Y-61973500D01*
G75*
G02*
X110617500Y-62133500I0J-160000D01*
G01*
X110617500Y-62453500D01*
G75*
G02*
X110457500Y-62613500I-160000J0D01*
G01*
X110012500Y-62613500D01*
G75*
G02*
X109852500Y-62453500I0J160000D01*
G01*
G37*
%TD*%
%TO.C,D2*%
G36*
G01*
X106264250Y-62453500D02*
X106264250Y-62133500D01*
G75*
G02*
X106424250Y-61973500I160000J0D01*
G01*
X106869250Y-61973500D01*
G75*
G02*
X107029250Y-62133500I0J-160000D01*
G01*
X107029250Y-62453500D01*
G75*
G02*
X106869250Y-62613500I-160000J0D01*
G01*
X106424250Y-62613500D01*
G75*
G02*
X106264250Y-62453500I0J160000D01*
G01*
G37*
G36*
G01*
X105119250Y-62453500D02*
X105119250Y-62133500D01*
G75*
G02*
X105279250Y-61973500I160000J0D01*
G01*
X105724250Y-61973500D01*
G75*
G02*
X105884250Y-62133500I0J-160000D01*
G01*
X105884250Y-62453500D01*
G75*
G02*
X105724250Y-62613500I-160000J0D01*
G01*
X105279250Y-62613500D01*
G75*
G02*
X105119250Y-62453500I0J160000D01*
G01*
G37*
%TD*%
%TO.C,D1*%
G36*
G01*
X101531000Y-62453500D02*
X101531000Y-62133500D01*
G75*
G02*
X101691000Y-61973500I160000J0D01*
G01*
X102136000Y-61973500D01*
G75*
G02*
X102296000Y-62133500I0J-160000D01*
G01*
X102296000Y-62453500D01*
G75*
G02*
X102136000Y-62613500I-160000J0D01*
G01*
X101691000Y-62613500D01*
G75*
G02*
X101531000Y-62453500I0J160000D01*
G01*
G37*
G36*
G01*
X100386000Y-62453500D02*
X100386000Y-62133500D01*
G75*
G02*
X100546000Y-61973500I160000J0D01*
G01*
X100991000Y-61973500D01*
G75*
G02*
X101151000Y-62133500I0J-160000D01*
G01*
X101151000Y-62453500D01*
G75*
G02*
X100991000Y-62613500I-160000J0D01*
G01*
X100546000Y-62613500D01*
G75*
G02*
X100386000Y-62453500I0J160000D01*
G01*
G37*
%TD*%
%TO.C,D5*%
G36*
G01*
X115666500Y-90793000D02*
X115346500Y-90793000D01*
G75*
G02*
X115186500Y-90633000I0J160000D01*
G01*
X115186500Y-90188000D01*
G75*
G02*
X115346500Y-90028000I160000J0D01*
G01*
X115666500Y-90028000D01*
G75*
G02*
X115826500Y-90188000I0J-160000D01*
G01*
X115826500Y-90633000D01*
G75*
G02*
X115666500Y-90793000I-160000J0D01*
G01*
G37*
G36*
G01*
X115666500Y-91938000D02*
X115346500Y-91938000D01*
G75*
G02*
X115186500Y-91778000I0J160000D01*
G01*
X115186500Y-91333000D01*
G75*
G02*
X115346500Y-91173000I160000J0D01*
G01*
X115666500Y-91173000D01*
G75*
G02*
X115826500Y-91333000I0J-160000D01*
G01*
X115826500Y-91778000D01*
G75*
G02*
X115666500Y-91938000I-160000J0D01*
G01*
G37*
%TD*%
%TO.C,D6*%
G36*
G01*
X119201333Y-90793000D02*
X118881333Y-90793000D01*
G75*
G02*
X118721333Y-90633000I0J160000D01*
G01*
X118721333Y-90188000D01*
G75*
G02*
X118881333Y-90028000I160000J0D01*
G01*
X119201333Y-90028000D01*
G75*
G02*
X119361333Y-90188000I0J-160000D01*
G01*
X119361333Y-90633000D01*
G75*
G02*
X119201333Y-90793000I-160000J0D01*
G01*
G37*
G36*
G01*
X119201333Y-91938000D02*
X118881333Y-91938000D01*
G75*
G02*
X118721333Y-91778000I0J160000D01*
G01*
X118721333Y-91333000D01*
G75*
G02*
X118881333Y-91173000I160000J0D01*
G01*
X119201333Y-91173000D01*
G75*
G02*
X119361333Y-91333000I0J-160000D01*
G01*
X119361333Y-91778000D01*
G75*
G02*
X119201333Y-91938000I-160000J0D01*
G01*
G37*
%TD*%
%TO.C,D7*%
G36*
G01*
X122736166Y-90793000D02*
X122416166Y-90793000D01*
G75*
G02*
X122256166Y-90633000I0J160000D01*
G01*
X122256166Y-90188000D01*
G75*
G02*
X122416166Y-90028000I160000J0D01*
G01*
X122736166Y-90028000D01*
G75*
G02*
X122896166Y-90188000I0J-160000D01*
G01*
X122896166Y-90633000D01*
G75*
G02*
X122736166Y-90793000I-160000J0D01*
G01*
G37*
G36*
G01*
X122736166Y-91938000D02*
X122416166Y-91938000D01*
G75*
G02*
X122256166Y-91778000I0J160000D01*
G01*
X122256166Y-91333000D01*
G75*
G02*
X122416166Y-91173000I160000J0D01*
G01*
X122736166Y-91173000D01*
G75*
G02*
X122896166Y-91333000I0J-160000D01*
G01*
X122896166Y-91778000D01*
G75*
G02*
X122736166Y-91938000I-160000J0D01*
G01*
G37*
%TD*%
%TO.C,D8*%
G36*
G01*
X126271000Y-90793000D02*
X125951000Y-90793000D01*
G75*
G02*
X125791000Y-90633000I0J160000D01*
G01*
X125791000Y-90188000D01*
G75*
G02*
X125951000Y-90028000I160000J0D01*
G01*
X126271000Y-90028000D01*
G75*
G02*
X126431000Y-90188000I0J-160000D01*
G01*
X126431000Y-90633000D01*
G75*
G02*
X126271000Y-90793000I-160000J0D01*
G01*
G37*
G36*
G01*
X126271000Y-91938000D02*
X125951000Y-91938000D01*
G75*
G02*
X125791000Y-91778000I0J160000D01*
G01*
X125791000Y-91333000D01*
G75*
G02*
X125951000Y-91173000I160000J0D01*
G01*
X126271000Y-91173000D01*
G75*
G02*
X126431000Y-91333000I0J-160000D01*
G01*
X126431000Y-91778000D01*
G75*
G02*
X126271000Y-91938000I-160000J0D01*
G01*
G37*
%TD*%
%TO.C,R19*%
G36*
G01*
X152445000Y-76668334D02*
X152445000Y-75768332D01*
G75*
G02*
X152694999Y-75518333I249999J0D01*
G01*
X153395001Y-75518333D01*
G75*
G02*
X153645000Y-75768332I0J-249999D01*
G01*
X153645000Y-76668334D01*
G75*
G02*
X153395001Y-76918333I-249999J0D01*
G01*
X152694999Y-76918333D01*
G75*
G02*
X152445000Y-76668334I0J249999D01*
G01*
G37*
G36*
G01*
X150445000Y-76668334D02*
X150445000Y-75768332D01*
G75*
G02*
X150694999Y-75518333I249999J0D01*
G01*
X151395001Y-75518333D01*
G75*
G02*
X151645000Y-75768332I0J-249999D01*
G01*
X151645000Y-76668334D01*
G75*
G02*
X151395001Y-76918333I-249999J0D01*
G01*
X150694999Y-76918333D01*
G75*
G02*
X150445000Y-76668334I0J249999D01*
G01*
G37*
%TD*%
%TO.C,R24*%
G36*
G01*
X152445000Y-80999167D02*
X152445000Y-80099165D01*
G75*
G02*
X152694999Y-79849166I249999J0D01*
G01*
X153395001Y-79849166D01*
G75*
G02*
X153645000Y-80099165I0J-249999D01*
G01*
X153645000Y-80999167D01*
G75*
G02*
X153395001Y-81249166I-249999J0D01*
G01*
X152694999Y-81249166D01*
G75*
G02*
X152445000Y-80999167I0J249999D01*
G01*
G37*
G36*
G01*
X150445000Y-80999167D02*
X150445000Y-80099165D01*
G75*
G02*
X150694999Y-79849166I249999J0D01*
G01*
X151395001Y-79849166D01*
G75*
G02*
X151645000Y-80099165I0J-249999D01*
G01*
X151645000Y-80999167D01*
G75*
G02*
X151395001Y-81249166I-249999J0D01*
G01*
X150694999Y-81249166D01*
G75*
G02*
X150445000Y-80999167I0J249999D01*
G01*
G37*
%TD*%
D12*
%TO.C,TP7*%
X99222560Y-105905000D03*
%TD*%
%TO.C,TP5*%
X99222560Y-91905000D03*
%TD*%
%TO.C,TP8*%
X99222560Y-108445000D03*
%TD*%
%TO.C,TP6*%
X99222560Y-94445000D03*
%TD*%
%TO.C,TP10*%
X141711680Y-110462060D03*
%TD*%
%TO.C,TP3*%
X173802040Y-78095686D03*
%TD*%
%TO.C,TP4*%
X173802040Y-82285840D03*
%TD*%
%TO.C,TP9*%
X138539220Y-110462060D03*
%TD*%
%TO.C,TP1*%
X173802040Y-69715380D03*
%TD*%
%TO.C,TP2*%
X173802040Y-73905533D03*
%TD*%
%TO.C,C9*%
G36*
G01*
X135978700Y-80150000D02*
X136928700Y-80150000D01*
G75*
G02*
X137178700Y-80400000I0J-250000D01*
G01*
X137178700Y-81075000D01*
G75*
G02*
X136928700Y-81325000I-250000J0D01*
G01*
X135978700Y-81325000D01*
G75*
G02*
X135728700Y-81075000I0J250000D01*
G01*
X135728700Y-80400000D01*
G75*
G02*
X135978700Y-80150000I250000J0D01*
G01*
G37*
G36*
G01*
X135978700Y-78075000D02*
X136928700Y-78075000D01*
G75*
G02*
X137178700Y-78325000I0J-250000D01*
G01*
X137178700Y-79000000D01*
G75*
G02*
X136928700Y-79250000I-250000J0D01*
G01*
X135978700Y-79250000D01*
G75*
G02*
X135728700Y-79000000I0J250000D01*
G01*
X135728700Y-78325000D01*
G75*
G02*
X135978700Y-78075000I250000J0D01*
G01*
G37*
%TD*%
%TO.C,C6*%
G36*
G01*
X151595000Y-71412500D02*
X151595000Y-72362500D01*
G75*
G02*
X151345000Y-72612500I-250000J0D01*
G01*
X150670000Y-72612500D01*
G75*
G02*
X150420000Y-72362500I0J250000D01*
G01*
X150420000Y-71412500D01*
G75*
G02*
X150670000Y-71162500I250000J0D01*
G01*
X151345000Y-71162500D01*
G75*
G02*
X151595000Y-71412500I0J-250000D01*
G01*
G37*
G36*
G01*
X153670000Y-71412500D02*
X153670000Y-72362500D01*
G75*
G02*
X153420000Y-72612500I-250000J0D01*
G01*
X152745000Y-72612500D01*
G75*
G02*
X152495000Y-72362500I0J250000D01*
G01*
X152495000Y-71412500D01*
G75*
G02*
X152745000Y-71162500I250000J0D01*
G01*
X153420000Y-71162500D01*
G75*
G02*
X153670000Y-71412500I0J-250000D01*
G01*
G37*
%TD*%
D13*
%TO.C,U6*%
X122250000Y-101000000D03*
X122250000Y-102270000D03*
X122250000Y-103540000D03*
X122250000Y-104810000D03*
X122250000Y-106080000D03*
X122250000Y-107350000D03*
X122250000Y-108620000D03*
X122250000Y-109890000D03*
X122250000Y-111160000D03*
X122250000Y-112430000D03*
X122250000Y-113700000D03*
X122250000Y-114970000D03*
X122250000Y-116240000D03*
X122250000Y-117510000D03*
D14*
X119220000Y-99750000D03*
X117950000Y-99750000D03*
X116680000Y-99750000D03*
X115410000Y-99750000D03*
X114140000Y-99750000D03*
X112870000Y-99750000D03*
X111600000Y-99750000D03*
X110330000Y-99750000D03*
X109060000Y-99750000D03*
X107790000Y-99750000D03*
D13*
X104750000Y-101000000D03*
X104750000Y-102270000D03*
X104750000Y-103540000D03*
X104750000Y-104810000D03*
X104750000Y-106080000D03*
X104750000Y-107350000D03*
X104750000Y-108620000D03*
X104750000Y-109890000D03*
X104750000Y-111160000D03*
X104750000Y-112430000D03*
X104750000Y-113700000D03*
X104750000Y-114970000D03*
X104750000Y-116240000D03*
X104750000Y-117510000D03*
D15*
X114180000Y-110170000D03*
X112655000Y-110170000D03*
X115705000Y-110170000D03*
X115705000Y-108645000D03*
X114180000Y-108645000D03*
X112655000Y-108645000D03*
X112655000Y-111695000D03*
X114180000Y-111695000D03*
X115705000Y-111695000D03*
%TD*%
D16*
%TO.C,J10*%
X175570000Y-120340000D03*
G36*
G01*
X178980000Y-119494999D02*
X178980000Y-121185001D01*
G75*
G02*
X178730001Y-121435000I-249999J0D01*
G01*
X177489999Y-121435000D01*
G75*
G02*
X177240000Y-121185001I0J249999D01*
G01*
X177240000Y-119494999D01*
G75*
G02*
X177489999Y-119245000I249999J0D01*
G01*
X178730001Y-119245000D01*
G75*
G02*
X178980000Y-119494999I0J-249999D01*
G01*
G37*
%TD*%
D17*
%TO.C,J8*%
X166580000Y-119990000D03*
D18*
X161500000Y-119990000D03*
%TD*%
D19*
%TO.C,J2*%
X128844800Y-56239200D03*
X116804800Y-56239200D03*
D20*
X121574800Y-58949200D03*
X124074800Y-58949200D03*
X124074800Y-60949200D03*
D21*
X121574800Y-60949200D03*
%TD*%
D22*
%TO.C,J4*%
X182460000Y-85290000D03*
D23*
X187300000Y-89760000D03*
D22*
X185000000Y-84270000D03*
X182460000Y-83250000D03*
D24*
X185000000Y-82230000D03*
D23*
X187300000Y-77760000D03*
%TD*%
D22*
%TO.C,J3*%
X182460000Y-69270000D03*
D23*
X187300000Y-73740000D03*
D22*
X185000000Y-68250000D03*
X182460000Y-67230000D03*
D24*
X185000000Y-66210000D03*
D23*
X187300000Y-61740000D03*
%TD*%
%TO.C,U2*%
G36*
G01*
X139865000Y-76880000D02*
X139565000Y-76880000D01*
G75*
G02*
X139415000Y-76730000I0J150000D01*
G01*
X139415000Y-75080000D01*
G75*
G02*
X139565000Y-74930000I150000J0D01*
G01*
X139865000Y-74930000D01*
G75*
G02*
X140015000Y-75080000I0J-150000D01*
G01*
X140015000Y-76730000D01*
G75*
G02*
X139865000Y-76880000I-150000J0D01*
G01*
G37*
G36*
G01*
X141135000Y-76880000D02*
X140835000Y-76880000D01*
G75*
G02*
X140685000Y-76730000I0J150000D01*
G01*
X140685000Y-75080000D01*
G75*
G02*
X140835000Y-74930000I150000J0D01*
G01*
X141135000Y-74930000D01*
G75*
G02*
X141285000Y-75080000I0J-150000D01*
G01*
X141285000Y-76730000D01*
G75*
G02*
X141135000Y-76880000I-150000J0D01*
G01*
G37*
G36*
G01*
X142405000Y-76880000D02*
X142105000Y-76880000D01*
G75*
G02*
X141955000Y-76730000I0J150000D01*
G01*
X141955000Y-75080000D01*
G75*
G02*
X142105000Y-74930000I150000J0D01*
G01*
X142405000Y-74930000D01*
G75*
G02*
X142555000Y-75080000I0J-150000D01*
G01*
X142555000Y-76730000D01*
G75*
G02*
X142405000Y-76880000I-150000J0D01*
G01*
G37*
G36*
G01*
X143675000Y-76880000D02*
X143375000Y-76880000D01*
G75*
G02*
X143225000Y-76730000I0J150000D01*
G01*
X143225000Y-75080000D01*
G75*
G02*
X143375000Y-74930000I150000J0D01*
G01*
X143675000Y-74930000D01*
G75*
G02*
X143825000Y-75080000I0J-150000D01*
G01*
X143825000Y-76730000D01*
G75*
G02*
X143675000Y-76880000I-150000J0D01*
G01*
G37*
G36*
G01*
X143675000Y-81830000D02*
X143375000Y-81830000D01*
G75*
G02*
X143225000Y-81680000I0J150000D01*
G01*
X143225000Y-80030000D01*
G75*
G02*
X143375000Y-79880000I150000J0D01*
G01*
X143675000Y-79880000D01*
G75*
G02*
X143825000Y-80030000I0J-150000D01*
G01*
X143825000Y-81680000D01*
G75*
G02*
X143675000Y-81830000I-150000J0D01*
G01*
G37*
G36*
G01*
X142405000Y-81830000D02*
X142105000Y-81830000D01*
G75*
G02*
X141955000Y-81680000I0J150000D01*
G01*
X141955000Y-80030000D01*
G75*
G02*
X142105000Y-79880000I150000J0D01*
G01*
X142405000Y-79880000D01*
G75*
G02*
X142555000Y-80030000I0J-150000D01*
G01*
X142555000Y-81680000D01*
G75*
G02*
X142405000Y-81830000I-150000J0D01*
G01*
G37*
G36*
G01*
X141135000Y-81830000D02*
X140835000Y-81830000D01*
G75*
G02*
X140685000Y-81680000I0J150000D01*
G01*
X140685000Y-80030000D01*
G75*
G02*
X140835000Y-79880000I150000J0D01*
G01*
X141135000Y-79880000D01*
G75*
G02*
X141285000Y-80030000I0J-150000D01*
G01*
X141285000Y-81680000D01*
G75*
G02*
X141135000Y-81830000I-150000J0D01*
G01*
G37*
G36*
G01*
X139865000Y-81830000D02*
X139565000Y-81830000D01*
G75*
G02*
X139415000Y-81680000I0J150000D01*
G01*
X139415000Y-80030000D01*
G75*
G02*
X139565000Y-79880000I150000J0D01*
G01*
X139865000Y-79880000D01*
G75*
G02*
X140015000Y-80030000I0J-150000D01*
G01*
X140015000Y-81680000D01*
G75*
G02*
X139865000Y-81830000I-150000J0D01*
G01*
G37*
%TD*%
%TO.C,U3*%
G36*
G01*
X155927500Y-76880000D02*
X155627500Y-76880000D01*
G75*
G02*
X155477500Y-76730000I0J150000D01*
G01*
X155477500Y-75080000D01*
G75*
G02*
X155627500Y-74930000I150000J0D01*
G01*
X155927500Y-74930000D01*
G75*
G02*
X156077500Y-75080000I0J-150000D01*
G01*
X156077500Y-76730000D01*
G75*
G02*
X155927500Y-76880000I-150000J0D01*
G01*
G37*
G36*
G01*
X157197500Y-76880000D02*
X156897500Y-76880000D01*
G75*
G02*
X156747500Y-76730000I0J150000D01*
G01*
X156747500Y-75080000D01*
G75*
G02*
X156897500Y-74930000I150000J0D01*
G01*
X157197500Y-74930000D01*
G75*
G02*
X157347500Y-75080000I0J-150000D01*
G01*
X157347500Y-76730000D01*
G75*
G02*
X157197500Y-76880000I-150000J0D01*
G01*
G37*
G36*
G01*
X158467500Y-76880000D02*
X158167500Y-76880000D01*
G75*
G02*
X158017500Y-76730000I0J150000D01*
G01*
X158017500Y-75080000D01*
G75*
G02*
X158167500Y-74930000I150000J0D01*
G01*
X158467500Y-74930000D01*
G75*
G02*
X158617500Y-75080000I0J-150000D01*
G01*
X158617500Y-76730000D01*
G75*
G02*
X158467500Y-76880000I-150000J0D01*
G01*
G37*
G36*
G01*
X159737500Y-76880000D02*
X159437500Y-76880000D01*
G75*
G02*
X159287500Y-76730000I0J150000D01*
G01*
X159287500Y-75080000D01*
G75*
G02*
X159437500Y-74930000I150000J0D01*
G01*
X159737500Y-74930000D01*
G75*
G02*
X159887500Y-75080000I0J-150000D01*
G01*
X159887500Y-76730000D01*
G75*
G02*
X159737500Y-76880000I-150000J0D01*
G01*
G37*
G36*
G01*
X159737500Y-81830000D02*
X159437500Y-81830000D01*
G75*
G02*
X159287500Y-81680000I0J150000D01*
G01*
X159287500Y-80030000D01*
G75*
G02*
X159437500Y-79880000I150000J0D01*
G01*
X159737500Y-79880000D01*
G75*
G02*
X159887500Y-80030000I0J-150000D01*
G01*
X159887500Y-81680000D01*
G75*
G02*
X159737500Y-81830000I-150000J0D01*
G01*
G37*
G36*
G01*
X158467500Y-81830000D02*
X158167500Y-81830000D01*
G75*
G02*
X158017500Y-81680000I0J150000D01*
G01*
X158017500Y-80030000D01*
G75*
G02*
X158167500Y-79880000I150000J0D01*
G01*
X158467500Y-79880000D01*
G75*
G02*
X158617500Y-80030000I0J-150000D01*
G01*
X158617500Y-81680000D01*
G75*
G02*
X158467500Y-81830000I-150000J0D01*
G01*
G37*
G36*
G01*
X157197500Y-81830000D02*
X156897500Y-81830000D01*
G75*
G02*
X156747500Y-81680000I0J150000D01*
G01*
X156747500Y-80030000D01*
G75*
G02*
X156897500Y-79880000I150000J0D01*
G01*
X157197500Y-79880000D01*
G75*
G02*
X157347500Y-80030000I0J-150000D01*
G01*
X157347500Y-81680000D01*
G75*
G02*
X157197500Y-81830000I-150000J0D01*
G01*
G37*
G36*
G01*
X155927500Y-81830000D02*
X155627500Y-81830000D01*
G75*
G02*
X155477500Y-81680000I0J150000D01*
G01*
X155477500Y-80030000D01*
G75*
G02*
X155627500Y-79880000I150000J0D01*
G01*
X155927500Y-79880000D01*
G75*
G02*
X156077500Y-80030000I0J-150000D01*
G01*
X156077500Y-81680000D01*
G75*
G02*
X155927500Y-81830000I-150000J0D01*
G01*
G37*
%TD*%
D25*
%TO.C,U5*%
X162880000Y-97775000D03*
D26*
X166280000Y-106925000D03*
X164580000Y-106925000D03*
X162880000Y-106925000D03*
X161180000Y-106925000D03*
X159480000Y-106925000D03*
%TD*%
%TO.C,R11*%
G36*
G01*
X141170000Y-72337501D02*
X141170000Y-71437499D01*
G75*
G02*
X141419999Y-71187500I249999J0D01*
G01*
X142120001Y-71187500D01*
G75*
G02*
X142370000Y-71437499I0J-249999D01*
G01*
X142370000Y-72337501D01*
G75*
G02*
X142120001Y-72587500I-249999J0D01*
G01*
X141419999Y-72587500D01*
G75*
G02*
X141170000Y-72337501I0J249999D01*
G01*
G37*
G36*
G01*
X139170000Y-72337501D02*
X139170000Y-71437499D01*
G75*
G02*
X139419999Y-71187500I249999J0D01*
G01*
X140120001Y-71187500D01*
G75*
G02*
X140370000Y-71437499I0J-249999D01*
G01*
X140370000Y-72337501D01*
G75*
G02*
X140120001Y-72587500I-249999J0D01*
G01*
X139419999Y-72587500D01*
G75*
G02*
X139170000Y-72337501I0J249999D01*
G01*
G37*
%TD*%
%TO.C,R30*%
G36*
G01*
X141170000Y-85330001D02*
X141170000Y-84429999D01*
G75*
G02*
X141419999Y-84180000I249999J0D01*
G01*
X142120001Y-84180000D01*
G75*
G02*
X142370000Y-84429999I0J-249999D01*
G01*
X142370000Y-85330001D01*
G75*
G02*
X142120001Y-85580000I-249999J0D01*
G01*
X141419999Y-85580000D01*
G75*
G02*
X141170000Y-85330001I0J249999D01*
G01*
G37*
G36*
G01*
X139170000Y-85330001D02*
X139170000Y-84429999D01*
G75*
G02*
X139419999Y-84180000I249999J0D01*
G01*
X140120001Y-84180000D01*
G75*
G02*
X140370000Y-84429999I0J-249999D01*
G01*
X140370000Y-85330001D01*
G75*
G02*
X140120001Y-85580000I-249999J0D01*
G01*
X139419999Y-85580000D01*
G75*
G02*
X139170000Y-85330001I0J249999D01*
G01*
G37*
%TD*%
%TO.C,R6*%
G36*
G01*
X146857500Y-67649999D02*
X146857500Y-68550001D01*
G75*
G02*
X146607501Y-68800000I-249999J0D01*
G01*
X145907499Y-68800000D01*
G75*
G02*
X145657500Y-68550001I0J249999D01*
G01*
X145657500Y-67649999D01*
G75*
G02*
X145907499Y-67400000I249999J0D01*
G01*
X146607501Y-67400000D01*
G75*
G02*
X146857500Y-67649999I0J-249999D01*
G01*
G37*
G36*
G01*
X148857500Y-67649999D02*
X148857500Y-68550001D01*
G75*
G02*
X148607501Y-68800000I-249999J0D01*
G01*
X147907499Y-68800000D01*
G75*
G02*
X147657500Y-68550001I0J249999D01*
G01*
X147657500Y-67649999D01*
G75*
G02*
X147907499Y-67400000I249999J0D01*
G01*
X148607501Y-67400000D01*
G75*
G02*
X148857500Y-67649999I0J-249999D01*
G01*
G37*
%TD*%
%TO.C,R38*%
G36*
G01*
X146857500Y-88209999D02*
X146857500Y-89110001D01*
G75*
G02*
X146607501Y-89360000I-249999J0D01*
G01*
X145907499Y-89360000D01*
G75*
G02*
X145657500Y-89110001I0J249999D01*
G01*
X145657500Y-88209999D01*
G75*
G02*
X145907499Y-87960000I249999J0D01*
G01*
X146607501Y-87960000D01*
G75*
G02*
X146857500Y-88209999I0J-249999D01*
G01*
G37*
G36*
G01*
X148857500Y-88209999D02*
X148857500Y-89110001D01*
G75*
G02*
X148607501Y-89360000I-249999J0D01*
G01*
X147907499Y-89360000D01*
G75*
G02*
X147657500Y-89110001I0J249999D01*
G01*
X147657500Y-88209999D01*
G75*
G02*
X147907499Y-87960000I249999J0D01*
G01*
X148607501Y-87960000D01*
G75*
G02*
X148857500Y-88209999I0J-249999D01*
G01*
G37*
%TD*%
%TO.C,R18*%
G36*
G01*
X147657500Y-76668334D02*
X147657500Y-75768332D01*
G75*
G02*
X147907499Y-75518333I249999J0D01*
G01*
X148607501Y-75518333D01*
G75*
G02*
X148857500Y-75768332I0J-249999D01*
G01*
X148857500Y-76668334D01*
G75*
G02*
X148607501Y-76918333I-249999J0D01*
G01*
X147907499Y-76918333D01*
G75*
G02*
X147657500Y-76668334I0J249999D01*
G01*
G37*
G36*
G01*
X145657500Y-76668334D02*
X145657500Y-75768332D01*
G75*
G02*
X145907499Y-75518333I249999J0D01*
G01*
X146607501Y-75518333D01*
G75*
G02*
X146857500Y-75768332I0J-249999D01*
G01*
X146857500Y-76668334D01*
G75*
G02*
X146607501Y-76918333I-249999J0D01*
G01*
X145907499Y-76918333D01*
G75*
G02*
X145657500Y-76668334I0J249999D01*
G01*
G37*
%TD*%
%TO.C,R12*%
G36*
G01*
X147657500Y-72337501D02*
X147657500Y-71437499D01*
G75*
G02*
X147907499Y-71187500I249999J0D01*
G01*
X148607501Y-71187500D01*
G75*
G02*
X148857500Y-71437499I0J-249999D01*
G01*
X148857500Y-72337501D01*
G75*
G02*
X148607501Y-72587500I-249999J0D01*
G01*
X147907499Y-72587500D01*
G75*
G02*
X147657500Y-72337501I0J249999D01*
G01*
G37*
G36*
G01*
X145657500Y-72337501D02*
X145657500Y-71437499D01*
G75*
G02*
X145907499Y-71187500I249999J0D01*
G01*
X146607501Y-71187500D01*
G75*
G02*
X146857500Y-71437499I0J-249999D01*
G01*
X146857500Y-72337501D01*
G75*
G02*
X146607501Y-72587500I-249999J0D01*
G01*
X145907499Y-72587500D01*
G75*
G02*
X145657500Y-72337501I0J249999D01*
G01*
G37*
%TD*%
%TO.C,R23*%
G36*
G01*
X147657500Y-80999167D02*
X147657500Y-80099165D01*
G75*
G02*
X147907499Y-79849166I249999J0D01*
G01*
X148607501Y-79849166D01*
G75*
G02*
X148857500Y-80099165I0J-249999D01*
G01*
X148857500Y-80999167D01*
G75*
G02*
X148607501Y-81249166I-249999J0D01*
G01*
X147907499Y-81249166D01*
G75*
G02*
X147657500Y-80999167I0J249999D01*
G01*
G37*
G36*
G01*
X145657500Y-80999167D02*
X145657500Y-80099165D01*
G75*
G02*
X145907499Y-79849166I249999J0D01*
G01*
X146607501Y-79849166D01*
G75*
G02*
X146857500Y-80099165I0J-249999D01*
G01*
X146857500Y-80999167D01*
G75*
G02*
X146607501Y-81249166I-249999J0D01*
G01*
X145907499Y-81249166D01*
G75*
G02*
X145657500Y-80999167I0J249999D01*
G01*
G37*
%TD*%
%TO.C,R31*%
G36*
G01*
X147657500Y-85330001D02*
X147657500Y-84429999D01*
G75*
G02*
X147907499Y-84180000I249999J0D01*
G01*
X148607501Y-84180000D01*
G75*
G02*
X148857500Y-84429999I0J-249999D01*
G01*
X148857500Y-85330001D01*
G75*
G02*
X148607501Y-85580000I-249999J0D01*
G01*
X147907499Y-85580000D01*
G75*
G02*
X147657500Y-85330001I0J249999D01*
G01*
G37*
G36*
G01*
X145657500Y-85330001D02*
X145657500Y-84429999D01*
G75*
G02*
X145907499Y-84180000I249999J0D01*
G01*
X146607501Y-84180000D01*
G75*
G02*
X146857500Y-84429999I0J-249999D01*
G01*
X146857500Y-85330001D01*
G75*
G02*
X146607501Y-85580000I-249999J0D01*
G01*
X145907499Y-85580000D01*
G75*
G02*
X145657500Y-85330001I0J249999D01*
G01*
G37*
%TD*%
%TO.C,R13*%
G36*
G01*
X157232500Y-72337501D02*
X157232500Y-71437499D01*
G75*
G02*
X157482499Y-71187500I249999J0D01*
G01*
X158182501Y-71187500D01*
G75*
G02*
X158432500Y-71437499I0J-249999D01*
G01*
X158432500Y-72337501D01*
G75*
G02*
X158182501Y-72587500I-249999J0D01*
G01*
X157482499Y-72587500D01*
G75*
G02*
X157232500Y-72337501I0J249999D01*
G01*
G37*
G36*
G01*
X155232500Y-72337501D02*
X155232500Y-71437499D01*
G75*
G02*
X155482499Y-71187500I249999J0D01*
G01*
X156182501Y-71187500D01*
G75*
G02*
X156432500Y-71437499I0J-249999D01*
G01*
X156432500Y-72337501D01*
G75*
G02*
X156182501Y-72587500I-249999J0D01*
G01*
X155482499Y-72587500D01*
G75*
G02*
X155232500Y-72337501I0J249999D01*
G01*
G37*
%TD*%
%TO.C,R32*%
G36*
G01*
X157232500Y-85330001D02*
X157232500Y-84429999D01*
G75*
G02*
X157482499Y-84180000I249999J0D01*
G01*
X158182501Y-84180000D01*
G75*
G02*
X158432500Y-84429999I0J-249999D01*
G01*
X158432500Y-85330001D01*
G75*
G02*
X158182501Y-85580000I-249999J0D01*
G01*
X157482499Y-85580000D01*
G75*
G02*
X157232500Y-85330001I0J249999D01*
G01*
G37*
G36*
G01*
X155232500Y-85330001D02*
X155232500Y-84429999D01*
G75*
G02*
X155482499Y-84180000I249999J0D01*
G01*
X156182501Y-84180000D01*
G75*
G02*
X156432500Y-84429999I0J-249999D01*
G01*
X156432500Y-85330001D01*
G75*
G02*
X156182501Y-85580000I-249999J0D01*
G01*
X155482499Y-85580000D01*
G75*
G02*
X155232500Y-85330001I0J249999D01*
G01*
G37*
%TD*%
%TO.C,R14*%
G36*
G01*
X162920000Y-71437499D02*
X162920000Y-72337501D01*
G75*
G02*
X162670001Y-72587500I-249999J0D01*
G01*
X161969999Y-72587500D01*
G75*
G02*
X161720000Y-72337501I0J249999D01*
G01*
X161720000Y-71437499D01*
G75*
G02*
X161969999Y-71187500I249999J0D01*
G01*
X162670001Y-71187500D01*
G75*
G02*
X162920000Y-71437499I0J-249999D01*
G01*
G37*
G36*
G01*
X164920000Y-71437499D02*
X164920000Y-72337501D01*
G75*
G02*
X164670001Y-72587500I-249999J0D01*
G01*
X163969999Y-72587500D01*
G75*
G02*
X163720000Y-72337501I0J249999D01*
G01*
X163720000Y-71437499D01*
G75*
G02*
X163969999Y-71187500I249999J0D01*
G01*
X164670001Y-71187500D01*
G75*
G02*
X164920000Y-71437499I0J-249999D01*
G01*
G37*
%TD*%
%TO.C,R33*%
G36*
G01*
X162920000Y-84429999D02*
X162920000Y-85330001D01*
G75*
G02*
X162670001Y-85580000I-249999J0D01*
G01*
X161969999Y-85580000D01*
G75*
G02*
X161720000Y-85330001I0J249999D01*
G01*
X161720000Y-84429999D01*
G75*
G02*
X161969999Y-84180000I249999J0D01*
G01*
X162670001Y-84180000D01*
G75*
G02*
X162920000Y-84429999I0J-249999D01*
G01*
G37*
G36*
G01*
X164920000Y-84429999D02*
X164920000Y-85330001D01*
G75*
G02*
X164670001Y-85580000I-249999J0D01*
G01*
X163969999Y-85580000D01*
G75*
G02*
X163720000Y-85330001I0J249999D01*
G01*
X163720000Y-84429999D01*
G75*
G02*
X163969999Y-84180000I249999J0D01*
G01*
X164670001Y-84180000D01*
G75*
G02*
X164920000Y-84429999I0J-249999D01*
G01*
G37*
%TD*%
%TO.C,R7*%
G36*
G01*
X163720000Y-68550001D02*
X163720000Y-67649999D01*
G75*
G02*
X163969999Y-67400000I249999J0D01*
G01*
X164670001Y-67400000D01*
G75*
G02*
X164920000Y-67649999I0J-249999D01*
G01*
X164920000Y-68550001D01*
G75*
G02*
X164670001Y-68800000I-249999J0D01*
G01*
X163969999Y-68800000D01*
G75*
G02*
X163720000Y-68550001I0J249999D01*
G01*
G37*
G36*
G01*
X161720000Y-68550001D02*
X161720000Y-67649999D01*
G75*
G02*
X161969999Y-67400000I249999J0D01*
G01*
X162670001Y-67400000D01*
G75*
G02*
X162920000Y-67649999I0J-249999D01*
G01*
X162920000Y-68550001D01*
G75*
G02*
X162670001Y-68800000I-249999J0D01*
G01*
X161969999Y-68800000D01*
G75*
G02*
X161720000Y-68550001I0J249999D01*
G01*
G37*
%TD*%
%TO.C,R20*%
G36*
G01*
X163720000Y-76668334D02*
X163720000Y-75768332D01*
G75*
G02*
X163969999Y-75518333I249999J0D01*
G01*
X164670001Y-75518333D01*
G75*
G02*
X164920000Y-75768332I0J-249999D01*
G01*
X164920000Y-76668334D01*
G75*
G02*
X164670001Y-76918333I-249999J0D01*
G01*
X163969999Y-76918333D01*
G75*
G02*
X163720000Y-76668334I0J249999D01*
G01*
G37*
G36*
G01*
X161720000Y-76668334D02*
X161720000Y-75768332D01*
G75*
G02*
X161969999Y-75518333I249999J0D01*
G01*
X162670001Y-75518333D01*
G75*
G02*
X162920000Y-75768332I0J-249999D01*
G01*
X162920000Y-76668334D01*
G75*
G02*
X162670001Y-76918333I-249999J0D01*
G01*
X161969999Y-76918333D01*
G75*
G02*
X161720000Y-76668334I0J249999D01*
G01*
G37*
%TD*%
%TO.C,R25*%
G36*
G01*
X163720000Y-80999167D02*
X163720000Y-80099165D01*
G75*
G02*
X163969999Y-79849166I249999J0D01*
G01*
X164670001Y-79849166D01*
G75*
G02*
X164920000Y-80099165I0J-249999D01*
G01*
X164920000Y-80999167D01*
G75*
G02*
X164670001Y-81249166I-249999J0D01*
G01*
X163969999Y-81249166D01*
G75*
G02*
X163720000Y-80999167I0J249999D01*
G01*
G37*
G36*
G01*
X161720000Y-80999167D02*
X161720000Y-80099165D01*
G75*
G02*
X161969999Y-79849166I249999J0D01*
G01*
X162670001Y-79849166D01*
G75*
G02*
X162920000Y-80099165I0J-249999D01*
G01*
X162920000Y-80999167D01*
G75*
G02*
X162670001Y-81249166I-249999J0D01*
G01*
X161969999Y-81249166D01*
G75*
G02*
X161720000Y-80999167I0J249999D01*
G01*
G37*
%TD*%
%TO.C,R39*%
G36*
G01*
X163720000Y-89110001D02*
X163720000Y-88209999D01*
G75*
G02*
X163969999Y-87960000I249999J0D01*
G01*
X164670001Y-87960000D01*
G75*
G02*
X164920000Y-88209999I0J-249999D01*
G01*
X164920000Y-89110001D01*
G75*
G02*
X164670001Y-89360000I-249999J0D01*
G01*
X163969999Y-89360000D01*
G75*
G02*
X163720000Y-89110001I0J249999D01*
G01*
G37*
G36*
G01*
X161720000Y-89110001D02*
X161720000Y-88209999D01*
G75*
G02*
X161969999Y-87960000I249999J0D01*
G01*
X162670001Y-87960000D01*
G75*
G02*
X162920000Y-88209999I0J-249999D01*
G01*
X162920000Y-89110001D01*
G75*
G02*
X162670001Y-89360000I-249999J0D01*
G01*
X161969999Y-89360000D01*
G75*
G02*
X161720000Y-89110001I0J249999D01*
G01*
G37*
%TD*%
%TO.C,R26*%
G36*
G01*
X170771100Y-81588399D02*
X170771100Y-82488401D01*
G75*
G02*
X170521101Y-82738400I-249999J0D01*
G01*
X169821099Y-82738400D01*
G75*
G02*
X169571100Y-82488401I0J249999D01*
G01*
X169571100Y-81588399D01*
G75*
G02*
X169821099Y-81338400I249999J0D01*
G01*
X170521101Y-81338400D01*
G75*
G02*
X170771100Y-81588399I0J-249999D01*
G01*
G37*
G36*
G01*
X172771100Y-81588399D02*
X172771100Y-82488401D01*
G75*
G02*
X172521101Y-82738400I-249999J0D01*
G01*
X171821099Y-82738400D01*
G75*
G02*
X171571100Y-82488401I0J249999D01*
G01*
X171571100Y-81588399D01*
G75*
G02*
X171821099Y-81338400I249999J0D01*
G01*
X172521101Y-81338400D01*
G75*
G02*
X172771100Y-81588399I0J-249999D01*
G01*
G37*
%TD*%
%TO.C,R15*%
G36*
G01*
X170771100Y-73210132D02*
X170771100Y-74110134D01*
G75*
G02*
X170521101Y-74360133I-249999J0D01*
G01*
X169821099Y-74360133D01*
G75*
G02*
X169571100Y-74110134I0J249999D01*
G01*
X169571100Y-73210132D01*
G75*
G02*
X169821099Y-72960133I249999J0D01*
G01*
X170521101Y-72960133D01*
G75*
G02*
X170771100Y-73210132I0J-249999D01*
G01*
G37*
G36*
G01*
X172771100Y-73210132D02*
X172771100Y-74110134D01*
G75*
G02*
X172521101Y-74360133I-249999J0D01*
G01*
X171821099Y-74360133D01*
G75*
G02*
X171571100Y-74110134I0J249999D01*
G01*
X171571100Y-73210132D01*
G75*
G02*
X171821099Y-72960133I249999J0D01*
G01*
X172521101Y-72960133D01*
G75*
G02*
X172771100Y-73210132I0J-249999D01*
G01*
G37*
%TD*%
%TO.C,R21*%
G36*
G01*
X170771100Y-77399265D02*
X170771100Y-78299267D01*
G75*
G02*
X170521101Y-78549266I-249999J0D01*
G01*
X169821099Y-78549266D01*
G75*
G02*
X169571100Y-78299267I0J249999D01*
G01*
X169571100Y-77399265D01*
G75*
G02*
X169821099Y-77149266I249999J0D01*
G01*
X170521101Y-77149266D01*
G75*
G02*
X170771100Y-77399265I0J-249999D01*
G01*
G37*
G36*
G01*
X172771100Y-77399265D02*
X172771100Y-78299267D01*
G75*
G02*
X172521101Y-78549266I-249999J0D01*
G01*
X171821099Y-78549266D01*
G75*
G02*
X171571100Y-78299267I0J249999D01*
G01*
X171571100Y-77399265D01*
G75*
G02*
X171821099Y-77149266I249999J0D01*
G01*
X172521101Y-77149266D01*
G75*
G02*
X172771100Y-77399265I0J-249999D01*
G01*
G37*
%TD*%
%TO.C,R8*%
G36*
G01*
X170771100Y-69020999D02*
X170771100Y-69921001D01*
G75*
G02*
X170521101Y-70171000I-249999J0D01*
G01*
X169821099Y-70171000D01*
G75*
G02*
X169571100Y-69921001I0J249999D01*
G01*
X169571100Y-69020999D01*
G75*
G02*
X169821099Y-68771000I249999J0D01*
G01*
X170521101Y-68771000D01*
G75*
G02*
X170771100Y-69020999I0J-249999D01*
G01*
G37*
G36*
G01*
X172771100Y-69020999D02*
X172771100Y-69921001D01*
G75*
G02*
X172521101Y-70171000I-249999J0D01*
G01*
X171821099Y-70171000D01*
G75*
G02*
X171571100Y-69921001I0J249999D01*
G01*
X171571100Y-69020999D01*
G75*
G02*
X171821099Y-68771000I249999J0D01*
G01*
X172521101Y-68771000D01*
G75*
G02*
X172771100Y-69020999I0J-249999D01*
G01*
G37*
%TD*%
%TO.C,R22*%
G36*
G01*
X176832700Y-78299267D02*
X176832700Y-77399265D01*
G75*
G02*
X177082699Y-77149266I249999J0D01*
G01*
X177782701Y-77149266D01*
G75*
G02*
X178032700Y-77399265I0J-249999D01*
G01*
X178032700Y-78299267D01*
G75*
G02*
X177782701Y-78549266I-249999J0D01*
G01*
X177082699Y-78549266D01*
G75*
G02*
X176832700Y-78299267I0J249999D01*
G01*
G37*
G36*
G01*
X174832700Y-78299267D02*
X174832700Y-77399265D01*
G75*
G02*
X175082699Y-77149266I249999J0D01*
G01*
X175782701Y-77149266D01*
G75*
G02*
X176032700Y-77399265I0J-249999D01*
G01*
X176032700Y-78299267D01*
G75*
G02*
X175782701Y-78549266I-249999J0D01*
G01*
X175082699Y-78549266D01*
G75*
G02*
X174832700Y-78299267I0J249999D01*
G01*
G37*
%TD*%
%TO.C,R27*%
G36*
G01*
X176832700Y-82488401D02*
X176832700Y-81588399D01*
G75*
G02*
X177082699Y-81338400I249999J0D01*
G01*
X177782701Y-81338400D01*
G75*
G02*
X178032700Y-81588399I0J-249999D01*
G01*
X178032700Y-82488401D01*
G75*
G02*
X177782701Y-82738400I-249999J0D01*
G01*
X177082699Y-82738400D01*
G75*
G02*
X176832700Y-82488401I0J249999D01*
G01*
G37*
G36*
G01*
X174832700Y-82488401D02*
X174832700Y-81588399D01*
G75*
G02*
X175082699Y-81338400I249999J0D01*
G01*
X175782701Y-81338400D01*
G75*
G02*
X176032700Y-81588399I0J-249999D01*
G01*
X176032700Y-82488401D01*
G75*
G02*
X175782701Y-82738400I-249999J0D01*
G01*
X175082699Y-82738400D01*
G75*
G02*
X174832700Y-82488401I0J249999D01*
G01*
G37*
%TD*%
%TO.C,R9*%
G36*
G01*
X176832700Y-69921001D02*
X176832700Y-69020999D01*
G75*
G02*
X177082699Y-68771000I249999J0D01*
G01*
X177782701Y-68771000D01*
G75*
G02*
X178032700Y-69020999I0J-249999D01*
G01*
X178032700Y-69921001D01*
G75*
G02*
X177782701Y-70171000I-249999J0D01*
G01*
X177082699Y-70171000D01*
G75*
G02*
X176832700Y-69921001I0J249999D01*
G01*
G37*
G36*
G01*
X174832700Y-69921001D02*
X174832700Y-69020999D01*
G75*
G02*
X175082699Y-68771000I249999J0D01*
G01*
X175782701Y-68771000D01*
G75*
G02*
X176032700Y-69020999I0J-249999D01*
G01*
X176032700Y-69921001D01*
G75*
G02*
X175782701Y-70171000I-249999J0D01*
G01*
X175082699Y-70171000D01*
G75*
G02*
X174832700Y-69921001I0J249999D01*
G01*
G37*
%TD*%
%TO.C,R16*%
G36*
G01*
X176832700Y-74110134D02*
X176832700Y-73210132D01*
G75*
G02*
X177082699Y-72960133I249999J0D01*
G01*
X177782701Y-72960133D01*
G75*
G02*
X178032700Y-73210132I0J-249999D01*
G01*
X178032700Y-74110134D01*
G75*
G02*
X177782701Y-74360133I-249999J0D01*
G01*
X177082699Y-74360133D01*
G75*
G02*
X176832700Y-74110134I0J249999D01*
G01*
G37*
G36*
G01*
X174832700Y-74110134D02*
X174832700Y-73210132D01*
G75*
G02*
X175082699Y-72960133I249999J0D01*
G01*
X175782701Y-72960133D01*
G75*
G02*
X176032700Y-73210132I0J-249999D01*
G01*
X176032700Y-74110134D01*
G75*
G02*
X175782701Y-74360133I-249999J0D01*
G01*
X175082699Y-74360133D01*
G75*
G02*
X174832700Y-74110134I0J249999D01*
G01*
G37*
%TD*%
%TO.C,R29*%
G36*
G01*
X131614400Y-85184401D02*
X131614400Y-84284399D01*
G75*
G02*
X131864399Y-84034400I249999J0D01*
G01*
X132564401Y-84034400D01*
G75*
G02*
X132814400Y-84284399I0J-249999D01*
G01*
X132814400Y-85184401D01*
G75*
G02*
X132564401Y-85434400I-249999J0D01*
G01*
X131864399Y-85434400D01*
G75*
G02*
X131614400Y-85184401I0J249999D01*
G01*
G37*
G36*
G01*
X129614400Y-85184401D02*
X129614400Y-84284399D01*
G75*
G02*
X129864399Y-84034400I249999J0D01*
G01*
X130564401Y-84034400D01*
G75*
G02*
X130814400Y-84284399I0J-249999D01*
G01*
X130814400Y-85184401D01*
G75*
G02*
X130564401Y-85434400I-249999J0D01*
G01*
X129864399Y-85434400D01*
G75*
G02*
X129614400Y-85184401I0J249999D01*
G01*
G37*
%TD*%
%TO.C,R40*%
G36*
G01*
X131614400Y-98518921D02*
X131614400Y-97618919D01*
G75*
G02*
X131864399Y-97368920I249999J0D01*
G01*
X132564401Y-97368920D01*
G75*
G02*
X132814400Y-97618919I0J-249999D01*
G01*
X132814400Y-98518921D01*
G75*
G02*
X132564401Y-98768920I-249999J0D01*
G01*
X131864399Y-98768920D01*
G75*
G02*
X131614400Y-98518921I0J249999D01*
G01*
G37*
G36*
G01*
X129614400Y-98518921D02*
X129614400Y-97618919D01*
G75*
G02*
X129864399Y-97368920I249999J0D01*
G01*
X130564401Y-97368920D01*
G75*
G02*
X130814400Y-97618919I0J-249999D01*
G01*
X130814400Y-98518921D01*
G75*
G02*
X130564401Y-98768920I-249999J0D01*
G01*
X129864399Y-98768920D01*
G75*
G02*
X129614400Y-98518921I0J249999D01*
G01*
G37*
%TD*%
%TO.C,R41*%
G36*
G01*
X131614400Y-111853441D02*
X131614400Y-110953439D01*
G75*
G02*
X131864399Y-110703440I249999J0D01*
G01*
X132564401Y-110703440D01*
G75*
G02*
X132814400Y-110953439I0J-249999D01*
G01*
X132814400Y-111853441D01*
G75*
G02*
X132564401Y-112103440I-249999J0D01*
G01*
X131864399Y-112103440D01*
G75*
G02*
X131614400Y-111853441I0J249999D01*
G01*
G37*
G36*
G01*
X129614400Y-111853441D02*
X129614400Y-110953439D01*
G75*
G02*
X129864399Y-110703440I249999J0D01*
G01*
X130564401Y-110703440D01*
G75*
G02*
X130814400Y-110953439I0J-249999D01*
G01*
X130814400Y-111853441D01*
G75*
G02*
X130564401Y-112103440I-249999J0D01*
G01*
X129864399Y-112103440D01*
G75*
G02*
X129614400Y-111853441I0J249999D01*
G01*
G37*
%TD*%
%TO.C,R28*%
G36*
G01*
X113039799Y-82668700D02*
X113939801Y-82668700D01*
G75*
G02*
X114189800Y-82918699I0J-249999D01*
G01*
X114189800Y-83618701D01*
G75*
G02*
X113939801Y-83868700I-249999J0D01*
G01*
X113039799Y-83868700D01*
G75*
G02*
X112789800Y-83618701I0J249999D01*
G01*
X112789800Y-82918699D01*
G75*
G02*
X113039799Y-82668700I249999J0D01*
G01*
G37*
G36*
G01*
X113039799Y-80668700D02*
X113939801Y-80668700D01*
G75*
G02*
X114189800Y-80918699I0J-249999D01*
G01*
X114189800Y-81618701D01*
G75*
G02*
X113939801Y-81868700I-249999J0D01*
G01*
X113039799Y-81868700D01*
G75*
G02*
X112789800Y-81618701I0J249999D01*
G01*
X112789800Y-80918699D01*
G75*
G02*
X113039799Y-80668700I249999J0D01*
G01*
G37*
%TD*%
%TO.C,R10*%
G36*
G01*
X93757800Y-69823679D02*
X93757800Y-70723681D01*
G75*
G02*
X93507801Y-70973680I-249999J0D01*
G01*
X92807799Y-70973680D01*
G75*
G02*
X92557800Y-70723681I0J249999D01*
G01*
X92557800Y-69823679D01*
G75*
G02*
X92807799Y-69573680I249999J0D01*
G01*
X93507801Y-69573680D01*
G75*
G02*
X93757800Y-69823679I0J-249999D01*
G01*
G37*
G36*
G01*
X95757800Y-69823679D02*
X95757800Y-70723681D01*
G75*
G02*
X95507801Y-70973680I-249999J0D01*
G01*
X94807799Y-70973680D01*
G75*
G02*
X94557800Y-70723681I0J249999D01*
G01*
X94557800Y-69823679D01*
G75*
G02*
X94807799Y-69573680I249999J0D01*
G01*
X95507801Y-69573680D01*
G75*
G02*
X95757800Y-69823679I0J-249999D01*
G01*
G37*
%TD*%
%TO.C,R17*%
G36*
G01*
X93757800Y-73822279D02*
X93757800Y-74722281D01*
G75*
G02*
X93507801Y-74972280I-249999J0D01*
G01*
X92807799Y-74972280D01*
G75*
G02*
X92557800Y-74722281I0J249999D01*
G01*
X92557800Y-73822279D01*
G75*
G02*
X92807799Y-73572280I249999J0D01*
G01*
X93507801Y-73572280D01*
G75*
G02*
X93757800Y-73822279I0J-249999D01*
G01*
G37*
G36*
G01*
X95757800Y-73822279D02*
X95757800Y-74722281D01*
G75*
G02*
X95507801Y-74972280I-249999J0D01*
G01*
X94807799Y-74972280D01*
G75*
G02*
X94557800Y-74722281I0J249999D01*
G01*
X94557800Y-73822279D01*
G75*
G02*
X94807799Y-73572280I249999J0D01*
G01*
X95507801Y-73572280D01*
G75*
G02*
X95757800Y-73822279I0J-249999D01*
G01*
G37*
%TD*%
%TO.C,R5*%
G36*
G01*
X148050276Y-62850001D02*
X148050276Y-61949999D01*
G75*
G02*
X148300275Y-61700000I249999J0D01*
G01*
X149000277Y-61700000D01*
G75*
G02*
X149250276Y-61949999I0J-249999D01*
G01*
X149250276Y-62850001D01*
G75*
G02*
X149000277Y-63100000I-249999J0D01*
G01*
X148300275Y-63100000D01*
G75*
G02*
X148050276Y-62850001I0J249999D01*
G01*
G37*
G36*
G01*
X146050276Y-62850001D02*
X146050276Y-61949999D01*
G75*
G02*
X146300275Y-61700000I249999J0D01*
G01*
X147000277Y-61700000D01*
G75*
G02*
X147250276Y-61949999I0J-249999D01*
G01*
X147250276Y-62850001D01*
G75*
G02*
X147000277Y-63100000I-249999J0D01*
G01*
X146300275Y-63100000D01*
G75*
G02*
X146050276Y-62850001I0J249999D01*
G01*
G37*
%TD*%
%TO.C,R4*%
G36*
G01*
X136912500Y-62850001D02*
X136912500Y-61949999D01*
G75*
G02*
X137162499Y-61700000I249999J0D01*
G01*
X137862501Y-61700000D01*
G75*
G02*
X138112500Y-61949999I0J-249999D01*
G01*
X138112500Y-62850001D01*
G75*
G02*
X137862501Y-63100000I-249999J0D01*
G01*
X137162499Y-63100000D01*
G75*
G02*
X136912500Y-62850001I0J249999D01*
G01*
G37*
G36*
G01*
X134912500Y-62850001D02*
X134912500Y-61949999D01*
G75*
G02*
X135162499Y-61700000I249999J0D01*
G01*
X135862501Y-61700000D01*
G75*
G02*
X136112500Y-61949999I0J-249999D01*
G01*
X136112500Y-62850001D01*
G75*
G02*
X135862501Y-63100000I-249999J0D01*
G01*
X135162499Y-63100000D01*
G75*
G02*
X134912500Y-62850001I0J249999D01*
G01*
G37*
%TD*%
%TO.C,R3*%
G36*
G01*
X111207500Y-58425501D02*
X111207500Y-57525499D01*
G75*
G02*
X111457499Y-57275500I249999J0D01*
G01*
X112157501Y-57275500D01*
G75*
G02*
X112407500Y-57525499I0J-249999D01*
G01*
X112407500Y-58425501D01*
G75*
G02*
X112157501Y-58675500I-249999J0D01*
G01*
X111457499Y-58675500D01*
G75*
G02*
X111207500Y-58425501I0J249999D01*
G01*
G37*
G36*
G01*
X109207500Y-58425501D02*
X109207500Y-57525499D01*
G75*
G02*
X109457499Y-57275500I249999J0D01*
G01*
X110157501Y-57275500D01*
G75*
G02*
X110407500Y-57525499I0J-249999D01*
G01*
X110407500Y-58425501D01*
G75*
G02*
X110157501Y-58675500I-249999J0D01*
G01*
X109457499Y-58675500D01*
G75*
G02*
X109207500Y-58425501I0J249999D01*
G01*
G37*
%TD*%
%TO.C,R2*%
G36*
G01*
X106474250Y-58425501D02*
X106474250Y-57525499D01*
G75*
G02*
X106724249Y-57275500I249999J0D01*
G01*
X107424251Y-57275500D01*
G75*
G02*
X107674250Y-57525499I0J-249999D01*
G01*
X107674250Y-58425501D01*
G75*
G02*
X107424251Y-58675500I-249999J0D01*
G01*
X106724249Y-58675500D01*
G75*
G02*
X106474250Y-58425501I0J249999D01*
G01*
G37*
G36*
G01*
X104474250Y-58425501D02*
X104474250Y-57525499D01*
G75*
G02*
X104724249Y-57275500I249999J0D01*
G01*
X105424251Y-57275500D01*
G75*
G02*
X105674250Y-57525499I0J-249999D01*
G01*
X105674250Y-58425501D01*
G75*
G02*
X105424251Y-58675500I-249999J0D01*
G01*
X104724249Y-58675500D01*
G75*
G02*
X104474250Y-58425501I0J249999D01*
G01*
G37*
%TD*%
%TO.C,R1*%
G36*
G01*
X101741000Y-58425501D02*
X101741000Y-57525499D01*
G75*
G02*
X101990999Y-57275500I249999J0D01*
G01*
X102691001Y-57275500D01*
G75*
G02*
X102941000Y-57525499I0J-249999D01*
G01*
X102941000Y-58425501D01*
G75*
G02*
X102691001Y-58675500I-249999J0D01*
G01*
X101990999Y-58675500D01*
G75*
G02*
X101741000Y-58425501I0J249999D01*
G01*
G37*
G36*
G01*
X99741000Y-58425501D02*
X99741000Y-57525499D01*
G75*
G02*
X99990999Y-57275500I249999J0D01*
G01*
X100691001Y-57275500D01*
G75*
G02*
X100941000Y-57525499I0J-249999D01*
G01*
X100941000Y-58425501D01*
G75*
G02*
X100691001Y-58675500I-249999J0D01*
G01*
X99990999Y-58675500D01*
G75*
G02*
X99741000Y-58425501I0J249999D01*
G01*
G37*
%TD*%
%TO.C,R34*%
G36*
G01*
X115956501Y-86964500D02*
X115056499Y-86964500D01*
G75*
G02*
X114806500Y-86714501I0J249999D01*
G01*
X114806500Y-86014499D01*
G75*
G02*
X115056499Y-85764500I249999J0D01*
G01*
X115956501Y-85764500D01*
G75*
G02*
X116206500Y-86014499I0J-249999D01*
G01*
X116206500Y-86714501D01*
G75*
G02*
X115956501Y-86964500I-249999J0D01*
G01*
G37*
G36*
G01*
X115956501Y-88964500D02*
X115056499Y-88964500D01*
G75*
G02*
X114806500Y-88714501I0J249999D01*
G01*
X114806500Y-88014499D01*
G75*
G02*
X115056499Y-87764500I249999J0D01*
G01*
X115956501Y-87764500D01*
G75*
G02*
X116206500Y-88014499I0J-249999D01*
G01*
X116206500Y-88714501D01*
G75*
G02*
X115956501Y-88964500I-249999J0D01*
G01*
G37*
%TD*%
%TO.C,R35*%
G36*
G01*
X119491334Y-86964500D02*
X118591332Y-86964500D01*
G75*
G02*
X118341333Y-86714501I0J249999D01*
G01*
X118341333Y-86014499D01*
G75*
G02*
X118591332Y-85764500I249999J0D01*
G01*
X119491334Y-85764500D01*
G75*
G02*
X119741333Y-86014499I0J-249999D01*
G01*
X119741333Y-86714501D01*
G75*
G02*
X119491334Y-86964500I-249999J0D01*
G01*
G37*
G36*
G01*
X119491334Y-88964500D02*
X118591332Y-88964500D01*
G75*
G02*
X118341333Y-88714501I0J249999D01*
G01*
X118341333Y-88014499D01*
G75*
G02*
X118591332Y-87764500I249999J0D01*
G01*
X119491334Y-87764500D01*
G75*
G02*
X119741333Y-88014499I0J-249999D01*
G01*
X119741333Y-88714501D01*
G75*
G02*
X119491334Y-88964500I-249999J0D01*
G01*
G37*
%TD*%
%TO.C,R36*%
G36*
G01*
X123026167Y-86964500D02*
X122126165Y-86964500D01*
G75*
G02*
X121876166Y-86714501I0J249999D01*
G01*
X121876166Y-86014499D01*
G75*
G02*
X122126165Y-85764500I249999J0D01*
G01*
X123026167Y-85764500D01*
G75*
G02*
X123276166Y-86014499I0J-249999D01*
G01*
X123276166Y-86714501D01*
G75*
G02*
X123026167Y-86964500I-249999J0D01*
G01*
G37*
G36*
G01*
X123026167Y-88964500D02*
X122126165Y-88964500D01*
G75*
G02*
X121876166Y-88714501I0J249999D01*
G01*
X121876166Y-88014499D01*
G75*
G02*
X122126165Y-87764500I249999J0D01*
G01*
X123026167Y-87764500D01*
G75*
G02*
X123276166Y-88014499I0J-249999D01*
G01*
X123276166Y-88714501D01*
G75*
G02*
X123026167Y-88964500I-249999J0D01*
G01*
G37*
%TD*%
%TO.C,R37*%
G36*
G01*
X126561001Y-86964500D02*
X125660999Y-86964500D01*
G75*
G02*
X125411000Y-86714501I0J249999D01*
G01*
X125411000Y-86014499D01*
G75*
G02*
X125660999Y-85764500I249999J0D01*
G01*
X126561001Y-85764500D01*
G75*
G02*
X126811000Y-86014499I0J-249999D01*
G01*
X126811000Y-86714501D01*
G75*
G02*
X126561001Y-86964500I-249999J0D01*
G01*
G37*
G36*
G01*
X126561001Y-88964500D02*
X125660999Y-88964500D01*
G75*
G02*
X125411000Y-88714501I0J249999D01*
G01*
X125411000Y-88014499D01*
G75*
G02*
X125660999Y-87764500I249999J0D01*
G01*
X126561001Y-87764500D01*
G75*
G02*
X126811000Y-88014499I0J-249999D01*
G01*
X126811000Y-88714501D01*
G75*
G02*
X126561001Y-88964500I-249999J0D01*
G01*
G37*
%TD*%
D27*
%TO.C,L1*%
X175610000Y-101820000D03*
X175610000Y-111720000D03*
%TD*%
%TO.C,C4*%
G36*
G01*
X140350000Y-67625000D02*
X140350000Y-68575000D01*
G75*
G02*
X140100000Y-68825000I-250000J0D01*
G01*
X139425000Y-68825000D01*
G75*
G02*
X139175000Y-68575000I0J250000D01*
G01*
X139175000Y-67625000D01*
G75*
G02*
X139425000Y-67375000I250000J0D01*
G01*
X140100000Y-67375000D01*
G75*
G02*
X140350000Y-67625000I0J-250000D01*
G01*
G37*
G36*
G01*
X142425000Y-67625000D02*
X142425000Y-68575000D01*
G75*
G02*
X142175000Y-68825000I-250000J0D01*
G01*
X141500000Y-68825000D01*
G75*
G02*
X141250000Y-68575000I0J250000D01*
G01*
X141250000Y-67625000D01*
G75*
G02*
X141500000Y-67375000I250000J0D01*
G01*
X142175000Y-67375000D01*
G75*
G02*
X142425000Y-67625000I0J-250000D01*
G01*
G37*
%TD*%
%TO.C,C13*%
G36*
G01*
X140350000Y-88185000D02*
X140350000Y-89135000D01*
G75*
G02*
X140100000Y-89385000I-250000J0D01*
G01*
X139425000Y-89385000D01*
G75*
G02*
X139175000Y-89135000I0J250000D01*
G01*
X139175000Y-88185000D01*
G75*
G02*
X139425000Y-87935000I250000J0D01*
G01*
X140100000Y-87935000D01*
G75*
G02*
X140350000Y-88185000I0J-250000D01*
G01*
G37*
G36*
G01*
X142425000Y-88185000D02*
X142425000Y-89135000D01*
G75*
G02*
X142175000Y-89385000I-250000J0D01*
G01*
X141500000Y-89385000D01*
G75*
G02*
X141250000Y-89135000I0J250000D01*
G01*
X141250000Y-88185000D01*
G75*
G02*
X141500000Y-87935000I250000J0D01*
G01*
X142175000Y-87935000D01*
G75*
G02*
X142425000Y-88185000I0J-250000D01*
G01*
G37*
%TD*%
%TO.C,C5*%
G36*
G01*
X156412500Y-67625000D02*
X156412500Y-68575000D01*
G75*
G02*
X156162500Y-68825000I-250000J0D01*
G01*
X155487500Y-68825000D01*
G75*
G02*
X155237500Y-68575000I0J250000D01*
G01*
X155237500Y-67625000D01*
G75*
G02*
X155487500Y-67375000I250000J0D01*
G01*
X156162500Y-67375000D01*
G75*
G02*
X156412500Y-67625000I0J-250000D01*
G01*
G37*
G36*
G01*
X158487500Y-67625000D02*
X158487500Y-68575000D01*
G75*
G02*
X158237500Y-68825000I-250000J0D01*
G01*
X157562500Y-68825000D01*
G75*
G02*
X157312500Y-68575000I0J250000D01*
G01*
X157312500Y-67625000D01*
G75*
G02*
X157562500Y-67375000I250000J0D01*
G01*
X158237500Y-67375000D01*
G75*
G02*
X158487500Y-67625000I0J-250000D01*
G01*
G37*
%TD*%
%TO.C,C14*%
G36*
G01*
X156412500Y-88185000D02*
X156412500Y-89135000D01*
G75*
G02*
X156162500Y-89385000I-250000J0D01*
G01*
X155487500Y-89385000D01*
G75*
G02*
X155237500Y-89135000I0J250000D01*
G01*
X155237500Y-88185000D01*
G75*
G02*
X155487500Y-87935000I250000J0D01*
G01*
X156162500Y-87935000D01*
G75*
G02*
X156412500Y-88185000I0J-250000D01*
G01*
G37*
G36*
G01*
X158487500Y-88185000D02*
X158487500Y-89135000D01*
G75*
G02*
X158237500Y-89385000I-250000J0D01*
G01*
X157562500Y-89385000D01*
G75*
G02*
X157312500Y-89135000I0J250000D01*
G01*
X157312500Y-88185000D01*
G75*
G02*
X157562500Y-87935000I250000J0D01*
G01*
X158237500Y-87935000D01*
G75*
G02*
X158487500Y-88185000I0J-250000D01*
G01*
G37*
%TD*%
%TO.C,C19*%
G36*
G01*
X186639998Y-104520000D02*
X188040002Y-104520000D01*
G75*
G02*
X188290000Y-104769998I0J-249998D01*
G01*
X188290000Y-108420002D01*
G75*
G02*
X188040002Y-108670000I-249998J0D01*
G01*
X186639998Y-108670000D01*
G75*
G02*
X186390000Y-108420002I0J249998D01*
G01*
X186390000Y-104769998D01*
G75*
G02*
X186639998Y-104520000I249998J0D01*
G01*
G37*
G36*
G01*
X186639998Y-97570000D02*
X188040002Y-97570000D01*
G75*
G02*
X188290000Y-97819998I0J-249998D01*
G01*
X188290000Y-101470002D01*
G75*
G02*
X188040002Y-101720000I-249998J0D01*
G01*
X186639998Y-101720000D01*
G75*
G02*
X186390000Y-101470002I0J249998D01*
G01*
X186390000Y-97819998D01*
G75*
G02*
X186639998Y-97570000I249998J0D01*
G01*
G37*
%TD*%
%TO.C,C18*%
G36*
G01*
X151459998Y-104520000D02*
X152860002Y-104520000D01*
G75*
G02*
X153110000Y-104769998I0J-249998D01*
G01*
X153110000Y-108420002D01*
G75*
G02*
X152860002Y-108670000I-249998J0D01*
G01*
X151459998Y-108670000D01*
G75*
G02*
X151210000Y-108420002I0J249998D01*
G01*
X151210000Y-104769998D01*
G75*
G02*
X151459998Y-104520000I249998J0D01*
G01*
G37*
G36*
G01*
X151459998Y-97570000D02*
X152860002Y-97570000D01*
G75*
G02*
X153110000Y-97819998I0J-249998D01*
G01*
X153110000Y-101470002D01*
G75*
G02*
X152860002Y-101720000I-249998J0D01*
G01*
X151459998Y-101720000D01*
G75*
G02*
X151210000Y-101470002I0J249998D01*
G01*
X151210000Y-97819998D01*
G75*
G02*
X151459998Y-97570000I249998J0D01*
G01*
G37*
%TD*%
%TO.C,C7*%
G36*
G01*
X116360400Y-76014600D02*
X116360400Y-75064600D01*
G75*
G02*
X116610400Y-74814600I250000J0D01*
G01*
X117285400Y-74814600D01*
G75*
G02*
X117535400Y-75064600I0J-250000D01*
G01*
X117535400Y-76014600D01*
G75*
G02*
X117285400Y-76264600I-250000J0D01*
G01*
X116610400Y-76264600D01*
G75*
G02*
X116360400Y-76014600I0J250000D01*
G01*
G37*
G36*
G01*
X114285400Y-76014600D02*
X114285400Y-75064600D01*
G75*
G02*
X114535400Y-74814600I250000J0D01*
G01*
X115210400Y-74814600D01*
G75*
G02*
X115460400Y-75064600I0J-250000D01*
G01*
X115460400Y-76014600D01*
G75*
G02*
X115210400Y-76264600I-250000J0D01*
G01*
X114535400Y-76264600D01*
G75*
G02*
X114285400Y-76014600I0J250000D01*
G01*
G37*
%TD*%
%TO.C,C15*%
G36*
G01*
X182845000Y-94917500D02*
X183795000Y-94917500D01*
G75*
G02*
X184045000Y-95167500I0J-250000D01*
G01*
X184045000Y-95842500D01*
G75*
G02*
X183795000Y-96092500I-250000J0D01*
G01*
X182845000Y-96092500D01*
G75*
G02*
X182595000Y-95842500I0J250000D01*
G01*
X182595000Y-95167500D01*
G75*
G02*
X182845000Y-94917500I250000J0D01*
G01*
G37*
G36*
G01*
X182845000Y-92842500D02*
X183795000Y-92842500D01*
G75*
G02*
X184045000Y-93092500I0J-250000D01*
G01*
X184045000Y-93767500D01*
G75*
G02*
X183795000Y-94017500I-250000J0D01*
G01*
X182845000Y-94017500D01*
G75*
G02*
X182595000Y-93767500I0J250000D01*
G01*
X182595000Y-93092500D01*
G75*
G02*
X182845000Y-92842500I250000J0D01*
G01*
G37*
%TD*%
%TO.C,C8*%
G36*
G01*
X133425000Y-79250000D02*
X132475000Y-79250000D01*
G75*
G02*
X132225000Y-79000000I0J250000D01*
G01*
X132225000Y-78325000D01*
G75*
G02*
X132475000Y-78075000I250000J0D01*
G01*
X133425000Y-78075000D01*
G75*
G02*
X133675000Y-78325000I0J-250000D01*
G01*
X133675000Y-79000000D01*
G75*
G02*
X133425000Y-79250000I-250000J0D01*
G01*
G37*
G36*
G01*
X133425000Y-81325000D02*
X132475000Y-81325000D01*
G75*
G02*
X132225000Y-81075000I0J250000D01*
G01*
X132225000Y-80400000D01*
G75*
G02*
X132475000Y-80150000I250000J0D01*
G01*
X133425000Y-80150000D01*
G75*
G02*
X133675000Y-80400000I0J-250000D01*
G01*
X133675000Y-81075000D01*
G75*
G02*
X133425000Y-81325000I-250000J0D01*
G01*
G37*
%TD*%
%TO.C,C1*%
G36*
G01*
X153670000Y-60725000D02*
X153670000Y-59775000D01*
G75*
G02*
X153920000Y-59525000I250000J0D01*
G01*
X154595000Y-59525000D01*
G75*
G02*
X154845000Y-59775000I0J-250000D01*
G01*
X154845000Y-60725000D01*
G75*
G02*
X154595000Y-60975000I-250000J0D01*
G01*
X153920000Y-60975000D01*
G75*
G02*
X153670000Y-60725000I0J250000D01*
G01*
G37*
G36*
G01*
X151595000Y-60725000D02*
X151595000Y-59775000D01*
G75*
G02*
X151845000Y-59525000I250000J0D01*
G01*
X152520000Y-59525000D01*
G75*
G02*
X152770000Y-59775000I0J-250000D01*
G01*
X152770000Y-60725000D01*
G75*
G02*
X152520000Y-60975000I-250000J0D01*
G01*
X151845000Y-60975000D01*
G75*
G02*
X151595000Y-60725000I0J250000D01*
G01*
G37*
%TD*%
%TO.C,C2*%
G36*
G01*
X142531388Y-62875000D02*
X142531388Y-61925000D01*
G75*
G02*
X142781388Y-61675000I250000J0D01*
G01*
X143456388Y-61675000D01*
G75*
G02*
X143706388Y-61925000I0J-250000D01*
G01*
X143706388Y-62875000D01*
G75*
G02*
X143456388Y-63125000I-250000J0D01*
G01*
X142781388Y-63125000D01*
G75*
G02*
X142531388Y-62875000I0J250000D01*
G01*
G37*
G36*
G01*
X140456388Y-62875000D02*
X140456388Y-61925000D01*
G75*
G02*
X140706388Y-61675000I250000J0D01*
G01*
X141381388Y-61675000D01*
G75*
G02*
X141631388Y-61925000I0J-250000D01*
G01*
X141631388Y-62875000D01*
G75*
G02*
X141381388Y-63125000I-250000J0D01*
G01*
X140706388Y-63125000D01*
G75*
G02*
X140456388Y-62875000I0J250000D01*
G01*
G37*
%TD*%
%TO.C,C3*%
G36*
G01*
X153669166Y-62875000D02*
X153669166Y-61925000D01*
G75*
G02*
X153919166Y-61675000I250000J0D01*
G01*
X154594166Y-61675000D01*
G75*
G02*
X154844166Y-61925000I0J-250000D01*
G01*
X154844166Y-62875000D01*
G75*
G02*
X154594166Y-63125000I-250000J0D01*
G01*
X153919166Y-63125000D01*
G75*
G02*
X153669166Y-62875000I0J250000D01*
G01*
G37*
G36*
G01*
X151594166Y-62875000D02*
X151594166Y-61925000D01*
G75*
G02*
X151844166Y-61675000I250000J0D01*
G01*
X152519166Y-61675000D01*
G75*
G02*
X152769166Y-61925000I0J-250000D01*
G01*
X152769166Y-62875000D01*
G75*
G02*
X152519166Y-63125000I-250000J0D01*
G01*
X151844166Y-63125000D01*
G75*
G02*
X151594166Y-62875000I0J250000D01*
G01*
G37*
%TD*%
%TO.C,C11*%
G36*
G01*
X135781200Y-85184000D02*
X135781200Y-84234000D01*
G75*
G02*
X136031200Y-83984000I250000J0D01*
G01*
X136706200Y-83984000D01*
G75*
G02*
X136956200Y-84234000I0J-250000D01*
G01*
X136956200Y-85184000D01*
G75*
G02*
X136706200Y-85434000I-250000J0D01*
G01*
X136031200Y-85434000D01*
G75*
G02*
X135781200Y-85184000I0J250000D01*
G01*
G37*
G36*
G01*
X133706200Y-85184000D02*
X133706200Y-84234000D01*
G75*
G02*
X133956200Y-83984000I250000J0D01*
G01*
X134631200Y-83984000D01*
G75*
G02*
X134881200Y-84234000I0J-250000D01*
G01*
X134881200Y-85184000D01*
G75*
G02*
X134631200Y-85434000I-250000J0D01*
G01*
X133956200Y-85434000D01*
G75*
G02*
X133706200Y-85184000I0J250000D01*
G01*
G37*
%TD*%
%TO.C,C17*%
G36*
G01*
X135781200Y-98519000D02*
X135781200Y-97569000D01*
G75*
G02*
X136031200Y-97319000I250000J0D01*
G01*
X136706200Y-97319000D01*
G75*
G02*
X136956200Y-97569000I0J-250000D01*
G01*
X136956200Y-98519000D01*
G75*
G02*
X136706200Y-98769000I-250000J0D01*
G01*
X136031200Y-98769000D01*
G75*
G02*
X135781200Y-98519000I0J250000D01*
G01*
G37*
G36*
G01*
X133706200Y-98519000D02*
X133706200Y-97569000D01*
G75*
G02*
X133956200Y-97319000I250000J0D01*
G01*
X134631200Y-97319000D01*
G75*
G02*
X134881200Y-97569000I0J-250000D01*
G01*
X134881200Y-98519000D01*
G75*
G02*
X134631200Y-98769000I-250000J0D01*
G01*
X133956200Y-98769000D01*
G75*
G02*
X133706200Y-98519000I0J250000D01*
G01*
G37*
%TD*%
%TO.C,C20*%
G36*
G01*
X135781200Y-111854000D02*
X135781200Y-110904000D01*
G75*
G02*
X136031200Y-110654000I250000J0D01*
G01*
X136706200Y-110654000D01*
G75*
G02*
X136956200Y-110904000I0J-250000D01*
G01*
X136956200Y-111854000D01*
G75*
G02*
X136706200Y-112104000I-250000J0D01*
G01*
X136031200Y-112104000D01*
G75*
G02*
X135781200Y-111854000I0J250000D01*
G01*
G37*
G36*
G01*
X133706200Y-111854000D02*
X133706200Y-110904000D01*
G75*
G02*
X133956200Y-110654000I250000J0D01*
G01*
X134631200Y-110654000D01*
G75*
G02*
X134881200Y-110904000I0J-250000D01*
G01*
X134881200Y-111854000D01*
G75*
G02*
X134631200Y-112104000I-250000J0D01*
G01*
X133956200Y-112104000D01*
G75*
G02*
X133706200Y-111854000I0J250000D01*
G01*
G37*
%TD*%
%TO.C,C21*%
G36*
G01*
X125610200Y-117040640D02*
X125610200Y-117990640D01*
G75*
G02*
X125360200Y-118240640I-250000J0D01*
G01*
X124685200Y-118240640D01*
G75*
G02*
X124435200Y-117990640I0J250000D01*
G01*
X124435200Y-117040640D01*
G75*
G02*
X124685200Y-116790640I250000J0D01*
G01*
X125360200Y-116790640D01*
G75*
G02*
X125610200Y-117040640I0J-250000D01*
G01*
G37*
G36*
G01*
X127685200Y-117040640D02*
X127685200Y-117990640D01*
G75*
G02*
X127435200Y-118240640I-250000J0D01*
G01*
X126760200Y-118240640D01*
G75*
G02*
X126510200Y-117990640I0J250000D01*
G01*
X126510200Y-117040640D01*
G75*
G02*
X126760200Y-116790640I250000J0D01*
G01*
X127435200Y-116790640D01*
G75*
G02*
X127685200Y-117040640I0J-250000D01*
G01*
G37*
%TD*%
%TO.C,C12*%
G36*
G01*
X167695000Y-88950000D02*
X168645000Y-88950000D01*
G75*
G02*
X168895000Y-89200000I0J-250000D01*
G01*
X168895000Y-89875000D01*
G75*
G02*
X168645000Y-90125000I-250000J0D01*
G01*
X167695000Y-90125000D01*
G75*
G02*
X167445000Y-89875000I0J250000D01*
G01*
X167445000Y-89200000D01*
G75*
G02*
X167695000Y-88950000I250000J0D01*
G01*
G37*
G36*
G01*
X167695000Y-86875000D02*
X168645000Y-86875000D01*
G75*
G02*
X168895000Y-87125000I0J-250000D01*
G01*
X168895000Y-87800000D01*
G75*
G02*
X168645000Y-88050000I-250000J0D01*
G01*
X167695000Y-88050000D01*
G75*
G02*
X167445000Y-87800000I0J250000D01*
G01*
X167445000Y-87125000D01*
G75*
G02*
X167695000Y-86875000I250000J0D01*
G01*
G37*
%TD*%
D28*
%TO.C,U4*%
X171790000Y-94150000D03*
X176390000Y-94150000D03*
X174090000Y-94150000D03*
D29*
X174090000Y-87850000D03*
%TD*%
D17*
%TO.C,J9*%
X155160000Y-120000000D03*
X150080000Y-120000000D03*
D18*
X145000000Y-120000000D03*
%TD*%
D30*
%TO.C,J1*%
X161990000Y-55990000D03*
X161990000Y-53450000D03*
X164530000Y-55990000D03*
X164530000Y-53450000D03*
X167070000Y-55990000D03*
X167070000Y-53450000D03*
X169610000Y-55990000D03*
X169610000Y-53450000D03*
X172150000Y-55990000D03*
D21*
X172150000Y-53450000D03*
%TD*%
D31*
%TO.C,J7*%
X95066800Y-103365000D03*
X95066800Y-105905000D03*
X95066800Y-108445000D03*
G36*
G01*
X95911801Y-111855000D02*
X94221799Y-111855000D01*
G75*
G02*
X93971800Y-111605001I0J249999D01*
G01*
X93971800Y-110364999D01*
G75*
G02*
X94221799Y-110115000I249999J0D01*
G01*
X95911801Y-110115000D01*
G75*
G02*
X96161800Y-110364999I0J-249999D01*
G01*
X96161800Y-111605001D01*
G75*
G02*
X95911801Y-111855000I-249999J0D01*
G01*
G37*
%TD*%
D32*
%TO.C,J5*%
X109958000Y-93540000D03*
X106058000Y-93540000D03*
X109958000Y-92270000D03*
X106058000Y-92270000D03*
X109958000Y-91000000D03*
X106058000Y-91000000D03*
X109958000Y-89730000D03*
X106058000Y-89730000D03*
X109958000Y-88460000D03*
X106058000Y-88460000D03*
%TD*%
D33*
%TO.C,SW1*%
X142989200Y-52949200D03*
X142989200Y-57449200D03*
X136489200Y-52949200D03*
X136489200Y-57449200D03*
%TD*%
%TO.C,SW2*%
X153489200Y-52949200D03*
X153489200Y-57449200D03*
X146989200Y-52949200D03*
X146989200Y-57449200D03*
%TD*%
%TO.C,SW3*%
X135534400Y-94067460D03*
X131034400Y-94067460D03*
X135534400Y-87567460D03*
X131034400Y-87567460D03*
%TD*%
%TO.C,SW4*%
X135534400Y-107401980D03*
X131034400Y-107401980D03*
X135534400Y-100901980D03*
X131034400Y-100901980D03*
%TD*%
%TO.C,SW5*%
X135534400Y-120736500D03*
X131034400Y-120736500D03*
X135534400Y-114236500D03*
X131034400Y-114236500D03*
%TD*%
D34*
%TO.C,FB1*%
X121589800Y-65831700D03*
D35*
X121589800Y-75831700D03*
%TD*%
D31*
%TO.C,J6*%
X95066800Y-89365000D03*
X95066800Y-91905000D03*
X95066800Y-94445000D03*
G36*
G01*
X95911801Y-97855000D02*
X94221799Y-97855000D01*
G75*
G02*
X93971800Y-97605001I0J249999D01*
G01*
X93971800Y-96364999D01*
G75*
G02*
X94221799Y-96115000I249999J0D01*
G01*
X95911801Y-96115000D01*
G75*
G02*
X96161800Y-96364999I0J-249999D01*
G01*
X96161800Y-97605001D01*
G75*
G02*
X95911801Y-97855000I-249999J0D01*
G01*
G37*
%TD*%
D36*
%TO.C,U1*%
X112058000Y-68990500D03*
X112058000Y-69640500D03*
X112058000Y-70290500D03*
X112058000Y-70940500D03*
X112058000Y-71590500D03*
X112058000Y-72240500D03*
X112058000Y-72890500D03*
X112058000Y-73540500D03*
X112058000Y-74190500D03*
X112058000Y-74840500D03*
X112058000Y-75490500D03*
X112058000Y-76140500D03*
X112058000Y-76790500D03*
X112058000Y-77440500D03*
X104858000Y-77440500D03*
X104858000Y-76790500D03*
X104858000Y-76140500D03*
X104858000Y-75490500D03*
X104858000Y-74840500D03*
X104858000Y-74190500D03*
X104858000Y-73540500D03*
X104858000Y-72890500D03*
X104858000Y-72240500D03*
X104858000Y-71590500D03*
X104858000Y-70940500D03*
X104858000Y-70290500D03*
X104858000Y-69640500D03*
X104858000Y-68990500D03*
%TD*%
D37*
%TO.C,H3*%
X95000000Y-120000000D03*
%TD*%
%TO.C,H4*%
X187000000Y-120000000D03*
%TD*%
%TO.C,H2*%
X187000000Y-55000000D03*
%TD*%
%TO.C,H1*%
X95000000Y-55000000D03*
%TD*%
M02*
