%FSLAX45Y45*%
G04 Gerber Fmt 4.5, Leading zero omitted, Abs format (unit mm)*
G04 Created by KiCad (PCBNEW 5.1.12-84ad8e8a86~92~ubuntu20.04.1) date 2022-06-26 22:50:32*
%MOMM*%
%LPD*%
G01*
G04 APERTURE LIST*
%TA.AperFunction,Profile*%
%ADD10C,0.100000*%
%TD*%
%ADD11C,0.200000*%
%ADD12C,0.300000*%
G04 APERTURE END LIST*
D10*
X9500000Y-12500000D02*
X9499600Y-12499848D01*
X9993439Y-11920210D02*
G75*
G02*
X9499600Y-12499848I-493439J-79790D01*
G01*
X12750292Y-12500000D02*
X12750292Y-11920220D01*
X9993376Y-11920220D02*
X12750292Y-11920220D01*
X12750292Y-12500000D02*
X18700000Y-12500000D01*
X18700000Y-5000000D02*
X9500000Y-5000000D01*
X19200000Y-12000000D02*
X19200000Y-5500000D01*
X9000000Y-5500000D02*
X9000000Y-12000000D01*
X18700000Y-5000000D02*
G75*
G02*
X19200000Y-5500000I0J-500000D01*
G01*
X19200000Y-12000000D02*
G75*
G02*
X18700000Y-12500000I-500000J0D01*
G01*
X9500000Y-12500000D02*
G75*
G02*
X9000000Y-12000000I0J500000D01*
G01*
X9000000Y-5500000D02*
G75*
G02*
X9500000Y-5000000I500000J0D01*
G01*
D11*
X18615000Y-6059000D02*
X18845000Y-6289000D01*
X18845000Y-6059000D02*
X18615000Y-6289000D01*
X18615000Y-7259000D02*
X18845000Y-7489000D01*
X18845000Y-7259000D02*
X18615000Y-7489000D01*
X18615000Y-7661000D02*
X18845000Y-7891000D01*
X18845000Y-7661000D02*
X18615000Y-7891000D01*
X18615000Y-8861000D02*
X18845000Y-9091000D01*
X18845000Y-8861000D02*
X18615000Y-9091000D01*
D12*
X9281428Y-12970714D02*
X9281428Y-12670714D01*
X9352857Y-12670714D01*
X9395714Y-12685000D01*
X9424286Y-12713571D01*
X9438571Y-12742143D01*
X9452857Y-12799286D01*
X9452857Y-12842143D01*
X9438571Y-12899286D01*
X9424286Y-12927857D01*
X9395714Y-12956429D01*
X9352857Y-12970714D01*
X9281428Y-12970714D01*
X9581428Y-12970714D02*
X9581428Y-12770714D01*
X9581428Y-12827857D02*
X9595714Y-12799286D01*
X9610000Y-12785000D01*
X9638571Y-12770714D01*
X9667143Y-12770714D01*
X9767143Y-12970714D02*
X9767143Y-12770714D01*
X9767143Y-12670714D02*
X9752857Y-12685000D01*
X9767143Y-12699286D01*
X9781428Y-12685000D01*
X9767143Y-12670714D01*
X9767143Y-12699286D01*
X9952857Y-12970714D02*
X9924286Y-12956429D01*
X9910000Y-12927857D01*
X9910000Y-12670714D01*
X10110000Y-12970714D02*
X10081428Y-12956429D01*
X10067143Y-12927857D01*
X10067143Y-12670714D01*
X10452857Y-12970714D02*
X10452857Y-12670714D01*
X10552857Y-12885000D01*
X10652857Y-12670714D01*
X10652857Y-12970714D01*
X10924286Y-12970714D02*
X10924286Y-12813571D01*
X10910000Y-12785000D01*
X10881428Y-12770714D01*
X10824286Y-12770714D01*
X10795714Y-12785000D01*
X10924286Y-12956429D02*
X10895714Y-12970714D01*
X10824286Y-12970714D01*
X10795714Y-12956429D01*
X10781428Y-12927857D01*
X10781428Y-12899286D01*
X10795714Y-12870714D01*
X10824286Y-12856429D01*
X10895714Y-12856429D01*
X10924286Y-12842143D01*
X11067143Y-12770714D02*
X11067143Y-13070714D01*
X11067143Y-12785000D02*
X11095714Y-12770714D01*
X11152857Y-12770714D01*
X11181428Y-12785000D01*
X11195714Y-12799286D01*
X11210000Y-12827857D01*
X11210000Y-12913571D01*
X11195714Y-12942143D01*
X11181428Y-12956429D01*
X11152857Y-12970714D01*
X11095714Y-12970714D01*
X11067143Y-12956429D01*
X11338571Y-12942143D02*
X11352857Y-12956429D01*
X11338571Y-12970714D01*
X11324286Y-12956429D01*
X11338571Y-12942143D01*
X11338571Y-12970714D01*
X11338571Y-12785000D02*
X11352857Y-12799286D01*
X11338571Y-12813571D01*
X11324286Y-12799286D01*
X11338571Y-12785000D01*
X11338571Y-12813571D01*
X8765000Y-13350000D02*
X8995000Y-13580000D01*
X8995000Y-13350000D02*
X8765000Y-13580000D01*
X9267143Y-13329286D02*
X9281428Y-13315000D01*
X9310000Y-13300714D01*
X9381428Y-13300714D01*
X9410000Y-13315000D01*
X9424286Y-13329286D01*
X9438571Y-13357857D01*
X9438571Y-13386429D01*
X9424286Y-13429286D01*
X9252857Y-13600714D01*
X9438571Y-13600714D01*
X9567143Y-13572143D02*
X9581428Y-13586429D01*
X9567143Y-13600714D01*
X9552857Y-13586429D01*
X9567143Y-13572143D01*
X9567143Y-13600714D01*
X9681428Y-13300714D02*
X9867143Y-13300714D01*
X9767143Y-13415000D01*
X9810000Y-13415000D01*
X9838571Y-13429286D01*
X9852857Y-13443571D01*
X9867143Y-13472143D01*
X9867143Y-13543571D01*
X9852857Y-13572143D01*
X9838571Y-13586429D01*
X9810000Y-13600714D01*
X9724286Y-13600714D01*
X9695714Y-13586429D01*
X9681428Y-13572143D01*
X10052857Y-13300714D02*
X10081428Y-13300714D01*
X10110000Y-13315000D01*
X10124286Y-13329286D01*
X10138571Y-13357857D01*
X10152857Y-13415000D01*
X10152857Y-13486429D01*
X10138571Y-13543571D01*
X10124286Y-13572143D01*
X10110000Y-13586429D01*
X10081428Y-13600714D01*
X10052857Y-13600714D01*
X10024286Y-13586429D01*
X10010000Y-13572143D01*
X9995714Y-13543571D01*
X9981428Y-13486429D01*
X9981428Y-13415000D01*
X9995714Y-13357857D01*
X10010000Y-13329286D01*
X10024286Y-13315000D01*
X10052857Y-13300714D01*
X10338571Y-13300714D02*
X10367143Y-13300714D01*
X10395714Y-13315000D01*
X10410000Y-13329286D01*
X10424286Y-13357857D01*
X10438571Y-13415000D01*
X10438571Y-13486429D01*
X10424286Y-13543571D01*
X10410000Y-13572143D01*
X10395714Y-13586429D01*
X10367143Y-13600714D01*
X10338571Y-13600714D01*
X10310000Y-13586429D01*
X10295714Y-13572143D01*
X10281428Y-13543571D01*
X10267143Y-13486429D01*
X10267143Y-13415000D01*
X10281428Y-13357857D01*
X10295714Y-13329286D01*
X10310000Y-13315000D01*
X10338571Y-13300714D01*
X10567143Y-13600714D02*
X10567143Y-13400714D01*
X10567143Y-13429286D02*
X10581428Y-13415000D01*
X10610000Y-13400714D01*
X10652857Y-13400714D01*
X10681428Y-13415000D01*
X10695714Y-13443571D01*
X10695714Y-13600714D01*
X10695714Y-13443571D02*
X10710000Y-13415000D01*
X10738571Y-13400714D01*
X10781428Y-13400714D01*
X10810000Y-13415000D01*
X10824286Y-13443571D01*
X10824286Y-13600714D01*
X10967143Y-13600714D02*
X10967143Y-13400714D01*
X10967143Y-13429286D02*
X10981428Y-13415000D01*
X11010000Y-13400714D01*
X11052857Y-13400714D01*
X11081428Y-13415000D01*
X11095714Y-13443571D01*
X11095714Y-13600714D01*
X11095714Y-13443571D02*
X11110000Y-13415000D01*
X11138571Y-13400714D01*
X11181428Y-13400714D01*
X11210000Y-13415000D01*
X11224286Y-13443571D01*
X11224286Y-13600714D01*
X11810000Y-13286429D02*
X11552857Y-13672143D01*
X12195714Y-13300714D02*
X12224286Y-13300714D01*
X12252857Y-13315000D01*
X12267143Y-13329286D01*
X12281428Y-13357857D01*
X12295714Y-13415000D01*
X12295714Y-13486429D01*
X12281428Y-13543571D01*
X12267143Y-13572143D01*
X12252857Y-13586429D01*
X12224286Y-13600714D01*
X12195714Y-13600714D01*
X12167143Y-13586429D01*
X12152857Y-13572143D01*
X12138571Y-13543571D01*
X12124286Y-13486429D01*
X12124286Y-13415000D01*
X12138571Y-13357857D01*
X12152857Y-13329286D01*
X12167143Y-13315000D01*
X12195714Y-13300714D01*
X12424286Y-13572143D02*
X12438571Y-13586429D01*
X12424286Y-13600714D01*
X12410000Y-13586429D01*
X12424286Y-13572143D01*
X12424286Y-13600714D01*
X12624286Y-13300714D02*
X12652857Y-13300714D01*
X12681428Y-13315000D01*
X12695714Y-13329286D01*
X12710000Y-13357857D01*
X12724286Y-13415000D01*
X12724286Y-13486429D01*
X12710000Y-13543571D01*
X12695714Y-13572143D01*
X12681428Y-13586429D01*
X12652857Y-13600714D01*
X12624286Y-13600714D01*
X12595714Y-13586429D01*
X12581428Y-13572143D01*
X12567143Y-13543571D01*
X12552857Y-13486429D01*
X12552857Y-13415000D01*
X12567143Y-13357857D01*
X12581428Y-13329286D01*
X12595714Y-13315000D01*
X12624286Y-13300714D01*
X12867143Y-13600714D02*
X12924286Y-13600714D01*
X12952857Y-13586429D01*
X12967143Y-13572143D01*
X12995714Y-13529286D01*
X13010000Y-13472143D01*
X13010000Y-13357857D01*
X12995714Y-13329286D01*
X12981428Y-13315000D01*
X12952857Y-13300714D01*
X12895714Y-13300714D01*
X12867143Y-13315000D01*
X12852857Y-13329286D01*
X12838571Y-13357857D01*
X12838571Y-13429286D01*
X12852857Y-13457857D01*
X12867143Y-13472143D01*
X12895714Y-13486429D01*
X12952857Y-13486429D01*
X12981428Y-13472143D01*
X12995714Y-13457857D01*
X13010000Y-13429286D01*
X13195714Y-13300714D02*
X13224286Y-13300714D01*
X13252857Y-13315000D01*
X13267143Y-13329286D01*
X13281428Y-13357857D01*
X13295714Y-13415000D01*
X13295714Y-13486429D01*
X13281428Y-13543571D01*
X13267143Y-13572143D01*
X13252857Y-13586429D01*
X13224286Y-13600714D01*
X13195714Y-13600714D01*
X13167143Y-13586429D01*
X13152857Y-13572143D01*
X13138571Y-13543571D01*
X13124286Y-13486429D01*
X13124286Y-13415000D01*
X13138571Y-13357857D01*
X13152857Y-13329286D01*
X13167143Y-13315000D01*
X13195714Y-13300714D01*
X13552857Y-13300714D02*
X13495714Y-13300714D01*
X13467143Y-13315000D01*
X13452857Y-13329286D01*
X13424286Y-13372143D01*
X13410000Y-13429286D01*
X13410000Y-13543571D01*
X13424286Y-13572143D01*
X13438571Y-13586429D01*
X13467143Y-13600714D01*
X13524286Y-13600714D01*
X13552857Y-13586429D01*
X13567143Y-13572143D01*
X13581428Y-13543571D01*
X13581428Y-13472143D01*
X13567143Y-13443571D01*
X13552857Y-13429286D01*
X13524286Y-13415000D01*
X13467143Y-13415000D01*
X13438571Y-13429286D01*
X13424286Y-13443571D01*
X13410000Y-13472143D01*
X13695714Y-13300714D02*
X13695714Y-13357857D01*
X13810000Y-13300714D02*
X13810000Y-13357857D01*
X14252857Y-13715000D02*
X14238571Y-13700714D01*
X14210000Y-13657857D01*
X14195714Y-13629286D01*
X14181428Y-13586429D01*
X14167143Y-13515000D01*
X14167143Y-13457857D01*
X14181428Y-13386429D01*
X14195714Y-13343571D01*
X14210000Y-13315000D01*
X14238571Y-13272143D01*
X14252857Y-13257857D01*
X14495714Y-13400714D02*
X14495714Y-13600714D01*
X14424286Y-13286429D02*
X14352857Y-13500714D01*
X14538571Y-13500714D01*
X14881428Y-13600714D02*
X14881428Y-13300714D01*
X15010000Y-13600714D02*
X15010000Y-13443571D01*
X14995714Y-13415000D01*
X14967143Y-13400714D01*
X14924286Y-13400714D01*
X14895714Y-13415000D01*
X14881428Y-13429286D01*
X15195714Y-13600714D02*
X15167143Y-13586429D01*
X15152857Y-13572143D01*
X15138571Y-13543571D01*
X15138571Y-13457857D01*
X15152857Y-13429286D01*
X15167143Y-13415000D01*
X15195714Y-13400714D01*
X15238571Y-13400714D01*
X15267143Y-13415000D01*
X15281428Y-13429286D01*
X15295714Y-13457857D01*
X15295714Y-13543571D01*
X15281428Y-13572143D01*
X15267143Y-13586429D01*
X15238571Y-13600714D01*
X15195714Y-13600714D01*
X15467143Y-13600714D02*
X15438571Y-13586429D01*
X15424286Y-13557857D01*
X15424286Y-13300714D01*
X15695714Y-13586429D02*
X15667143Y-13600714D01*
X15610000Y-13600714D01*
X15581428Y-13586429D01*
X15567143Y-13557857D01*
X15567143Y-13443571D01*
X15581428Y-13415000D01*
X15610000Y-13400714D01*
X15667143Y-13400714D01*
X15695714Y-13415000D01*
X15710000Y-13443571D01*
X15710000Y-13472143D01*
X15567143Y-13500714D01*
X15824286Y-13586429D02*
X15852857Y-13600714D01*
X15910000Y-13600714D01*
X15938571Y-13586429D01*
X15952857Y-13557857D01*
X15952857Y-13543571D01*
X15938571Y-13515000D01*
X15910000Y-13500714D01*
X15867143Y-13500714D01*
X15838571Y-13486429D01*
X15824286Y-13457857D01*
X15824286Y-13443571D01*
X15838571Y-13415000D01*
X15867143Y-13400714D01*
X15910000Y-13400714D01*
X15938571Y-13415000D01*
X16052857Y-13715000D02*
X16067143Y-13700714D01*
X16095714Y-13657857D01*
X16110000Y-13629286D01*
X16124286Y-13586429D01*
X16138571Y-13515000D01*
X16138571Y-13457857D01*
X16124286Y-13386429D01*
X16110000Y-13343571D01*
X16095714Y-13315000D01*
X16067143Y-13272143D01*
X16052857Y-13257857D01*
X16595714Y-13715000D02*
X16581428Y-13700714D01*
X16552857Y-13657857D01*
X16538571Y-13629286D01*
X16524286Y-13586429D01*
X16510000Y-13515000D01*
X16510000Y-13457857D01*
X16524286Y-13386429D01*
X16538571Y-13343571D01*
X16552857Y-13315000D01*
X16581428Y-13272143D01*
X16595714Y-13257857D01*
X16710000Y-13400714D02*
X16710000Y-13600714D01*
X16710000Y-13429286D02*
X16724286Y-13415000D01*
X16752857Y-13400714D01*
X16795714Y-13400714D01*
X16824286Y-13415000D01*
X16838571Y-13443571D01*
X16838571Y-13600714D01*
X17024286Y-13600714D02*
X16995714Y-13586429D01*
X16981428Y-13572143D01*
X16967143Y-13543571D01*
X16967143Y-13457857D01*
X16981428Y-13429286D01*
X16995714Y-13415000D01*
X17024286Y-13400714D01*
X17067143Y-13400714D01*
X17095714Y-13415000D01*
X17110000Y-13429286D01*
X17124286Y-13457857D01*
X17124286Y-13543571D01*
X17110000Y-13572143D01*
X17095714Y-13586429D01*
X17067143Y-13600714D01*
X17024286Y-13600714D01*
X17210000Y-13400714D02*
X17324286Y-13400714D01*
X17252857Y-13300714D02*
X17252857Y-13557857D01*
X17267143Y-13586429D01*
X17295714Y-13600714D01*
X17324286Y-13600714D01*
X17652857Y-13400714D02*
X17652857Y-13700714D01*
X17652857Y-13415000D02*
X17681428Y-13400714D01*
X17738571Y-13400714D01*
X17767143Y-13415000D01*
X17781428Y-13429286D01*
X17795714Y-13457857D01*
X17795714Y-13543571D01*
X17781428Y-13572143D01*
X17767143Y-13586429D01*
X17738571Y-13600714D01*
X17681428Y-13600714D01*
X17652857Y-13586429D01*
X17967143Y-13600714D02*
X17938571Y-13586429D01*
X17924286Y-13557857D01*
X17924286Y-13300714D01*
X18210000Y-13600714D02*
X18210000Y-13443571D01*
X18195714Y-13415000D01*
X18167143Y-13400714D01*
X18110000Y-13400714D01*
X18081428Y-13415000D01*
X18210000Y-13586429D02*
X18181428Y-13600714D01*
X18110000Y-13600714D01*
X18081428Y-13586429D01*
X18067143Y-13557857D01*
X18067143Y-13529286D01*
X18081428Y-13500714D01*
X18110000Y-13486429D01*
X18181428Y-13486429D01*
X18210000Y-13472143D01*
X18310000Y-13400714D02*
X18424286Y-13400714D01*
X18352857Y-13300714D02*
X18352857Y-13557857D01*
X18367143Y-13586429D01*
X18395714Y-13600714D01*
X18424286Y-13600714D01*
X18638571Y-13586429D02*
X18610000Y-13600714D01*
X18552857Y-13600714D01*
X18524286Y-13586429D01*
X18510000Y-13557857D01*
X18510000Y-13443571D01*
X18524286Y-13415000D01*
X18552857Y-13400714D01*
X18610000Y-13400714D01*
X18638571Y-13415000D01*
X18652857Y-13443571D01*
X18652857Y-13472143D01*
X18510000Y-13500714D01*
X18910000Y-13600714D02*
X18910000Y-13300714D01*
X18910000Y-13586429D02*
X18881428Y-13600714D01*
X18824286Y-13600714D01*
X18795714Y-13586429D01*
X18781428Y-13572143D01*
X18767143Y-13543571D01*
X18767143Y-13457857D01*
X18781428Y-13429286D01*
X18795714Y-13415000D01*
X18824286Y-13400714D01*
X18881428Y-13400714D01*
X18910000Y-13415000D01*
X19024286Y-13715000D02*
X19038571Y-13700714D01*
X19067143Y-13657857D01*
X19081428Y-13629286D01*
X19095714Y-13586429D01*
X19110000Y-13515000D01*
X19110000Y-13457857D01*
X19095714Y-13386429D01*
X19081428Y-13343571D01*
X19067143Y-13315000D01*
X19038571Y-13272143D01*
X19024286Y-13257857D01*
M02*
